%TF.GenerationSoftware,KiCad,Pcbnew,10.0.5-1.fc44*%
%TF.CreationDate,2026-08-14T22:09:46+02:00*%
%TF.ProjectId,QuakeGuard_PCB,5175616b-6547-4756-9172-645f5043422e,rev?*%
%TF.SameCoordinates,Original*%
%TF.FileFunction,Soldermask,Bot*%
%TF.FilePolarity,Negative*%
%FSLAX46Y46*%
G04 Gerber Fmt 4.6, Leading zero omitted, Abs format (unit mm)*
G04 Created by KiCad (PCBNEW 10.0.5-1.fc44) date 2026-08-14 22:09:46*
%MOMM*%
%LPD*%
G01*
G04 APERTURE LIST*
G04 Aperture macros list*
%AMRoundRect*
0 Rectangle with rounded corners*
0 $1 Rounding radius*
0 $2 $3 $4 $5 $6 $7 $8 $9 X,Y pos of 4 corners*
0 Add a 4 corners polygon primitive as box body*
4,1,4,$2,$3,$4,$5,$6,$7,$8,$9,$2,$3,0*
0 Add four circle primitives for the rounded corners*
1,1,$1+$1,$2,$3*
1,1,$1+$1,$4,$5*
1,1,$1+$1,$6,$7*
1,1,$1+$1,$8,$9*
0 Add four rect primitives between the rounded corners*
20,1,$1+$1,$2,$3,$4,$5,0*
20,1,$1+$1,$4,$5,$6,$7,0*
20,1,$1+$1,$6,$7,$8,$9,0*
20,1,$1+$1,$8,$9,$2,$3,0*%
G04 Aperture macros list end*
%ADD10R,1.700000X1.700000*%
%ADD11C,1.700000*%
%ADD12C,6.400000*%
%ADD13RoundRect,0.250000X0.550000X-0.550000X0.550000X0.550000X-0.550000X0.550000X-0.550000X-0.550000X0*%
%ADD14C,1.600000*%
%ADD15R,1.800000X1.800000*%
%ADD16C,1.800000*%
%ADD17C,8.600000*%
%ADD18RoundRect,0.250000X0.550000X0.550000X-0.550000X0.550000X-0.550000X-0.550000X0.550000X-0.550000X0*%
G04 APERTURE END LIST*
D10*
%TO.C,J4*%
X89190000Y-94960000D03*
D11*
X89190000Y-97500000D03*
X89190000Y-100040000D03*
X89190000Y-102580000D03*
X89190000Y-105120000D03*
%TD*%
D12*
%TO.C,REF\u002A\u002A*%
X107280000Y-68450000D03*
%TD*%
D13*
%TO.C,C1*%
X104500000Y-50455113D03*
D14*
X104500000Y-47955113D03*
%TD*%
D10*
%TO.C,J1*%
X131040001Y-48749999D03*
D11*
X128500001Y-48749999D03*
X125960001Y-48749999D03*
X123420001Y-48749999D03*
X120880001Y-48749999D03*
X118340001Y-48749999D03*
X115800001Y-48749999D03*
X113260001Y-48749999D03*
%TD*%
D15*
%TO.C,D1*%
X95750000Y-48210000D03*
D16*
X95750000Y-50750000D03*
%TD*%
D14*
%TO.C,R3*%
X76750000Y-65000000D03*
X76750000Y-54840000D03*
%TD*%
%TO.C,R2*%
X81500000Y-65080000D03*
X81500000Y-54920000D03*
%TD*%
%TO.C,R1*%
X86250000Y-65250000D03*
X86250000Y-55090000D03*
%TD*%
D15*
%TO.C,D3*%
X79750000Y-48210000D03*
D16*
X79750000Y-50750000D03*
%TD*%
D17*
%TO.C,REF\u002A\u002A*%
X119250000Y-90250000D03*
%TD*%
D10*
%TO.C,J2*%
X131040001Y-63989999D03*
D11*
X128500001Y-63989999D03*
X125960001Y-63989999D03*
X123420001Y-63989999D03*
X120880001Y-63989999D03*
X118340001Y-63989999D03*
X115800001Y-63989999D03*
X113260001Y-63989999D03*
%TD*%
D12*
%TO.C,REF\u002A\u002A*%
X107280000Y-82950000D03*
%TD*%
D10*
%TO.C,J3*%
X95020000Y-66950000D03*
D11*
X95020000Y-69490000D03*
X95020000Y-72030000D03*
X95020000Y-74570000D03*
X95020000Y-77110000D03*
X95020000Y-79650000D03*
X95020000Y-82190000D03*
X95020000Y-84730000D03*
%TD*%
D15*
%TO.C,D2*%
X87750000Y-48210000D03*
D16*
X87750000Y-50750000D03*
%TD*%
D18*
%TO.C,C3*%
X104140000Y-119380000D03*
D14*
X101640000Y-119380000D03*
%TD*%
%TO.C,C2*%
X95000000Y-62000000D03*
X95000000Y-57000000D03*
%TD*%
D17*
%TO.C,REF\u002A\u002A*%
X119250000Y-109750000D03*
%TD*%
M02*
