M48
; DRILL file KiCad 10.0.5-1.fc44 date 2026-08-14T22:11:32
; FORMAT={-:-/ absolute / metric / decimal}
; #@! TF.CreationDate,2026-08-14T22:11:32+02:00
; #@! TF.GenerationSoftware,Kicad,Pcbnew,10.0.5-1.fc44
; #@! TF.FileFunction,Plated,1,2,PTH
FMAT,2
METRIC
; #@! TA.AperFunction,Plated,PTH,ViaDrill
T1C0.300
; #@! TA.AperFunction,Plated,PTH,ComponentDrill
T2C0.800
; #@! TA.AperFunction,Plated,PTH,ComponentDrill
T3C0.900
; #@! TA.AperFunction,Plated,PTH,ComponentDrill
T4C1.000
; #@! TA.AperFunction,Plated,PTH,ComponentDrill
T5C3.200
; #@! TA.AperFunction,Plated,PTH,ComponentDrill
T6C4.300
%
G90
G05
T1
X80.0Y-99.0
X80.0Y-108.0
X80.25Y-90.75
X82.75Y-67.75
X90.25Y-62.5
X91.0Y-68.0
X92.75Y-64.0
X94.25Y-119.25
X97.75Y-64.75
X97.75Y-66.76
X100.75Y-75.0
X100.75Y-78.75
X101.25Y-92.0
X105.5Y-59.75
X105.75Y-53.75
X106.75Y-96.0
X107.5Y-96.75
X109.0Y-55.0
X109.25Y-62.25
X110.0Y-92.75
X110.5Y-93.75
X110.75Y-55.25
X111.0Y-59.75
X111.25Y-100.75
X111.75Y-53.75
X112.0Y-73.25
X115.25Y-55.25
X116.5Y-61.0
X120.0Y-56.5
X125.5Y-99.75
X130.25Y-56.25
X132.75Y-82.75
T2
X76.75Y-54.84
X76.75Y-65.0
X81.5Y-54.92
X81.5Y-65.08
X86.25Y-55.09
X86.25Y-65.25
X95.0Y-57.0
X95.0Y-62.0
X101.64Y-119.38
X104.14Y-119.38
X104.5Y-47.955
X104.5Y-50.455
T3
X79.75Y-48.21
X79.75Y-50.75
X87.75Y-48.21
X87.75Y-50.75
X95.75Y-48.21
X95.75Y-50.75
T4
X89.19Y-94.96
X89.19Y-97.5
X89.19Y-100.04
X89.19Y-102.58
X89.19Y-105.12
X95.02Y-66.95
X95.02Y-69.49
X95.02Y-72.03
X95.02Y-74.57
X95.02Y-77.11
X95.02Y-79.65
X95.02Y-82.19
X95.02Y-84.73
X113.26Y-48.75
X113.26Y-63.99
X115.8Y-48.75
X115.8Y-63.99
X118.34Y-48.75
X118.34Y-63.99
X120.88Y-48.75
X120.88Y-63.99
X123.42Y-48.75
X123.42Y-63.99
X125.96Y-48.75
X125.96Y-63.99
X128.5Y-48.75
X128.5Y-63.99
X131.04Y-48.75
X131.04Y-63.99
T5
X107.28Y-68.45
X107.28Y-82.95
T6
X119.25Y-90.25
X119.25Y-109.75
M30
