%TF.GenerationSoftware,KiCad,Pcbnew,10.0.5-1.fc44*%
%TF.CreationDate,2026-08-14T22:09:28+02:00*%
%TF.ProjectId,QuakeGuard_PCB,5175616b-6547-4756-9172-645f5043422e,rev?*%
%TF.SameCoordinates,Original*%
%TF.FileFunction,Copper,L2,Bot*%
%TF.FilePolarity,Positive*%
%FSLAX46Y46*%
G04 Gerber Fmt 4.6, Leading zero omitted, Abs format (unit mm)*
G04 Created by KiCad (PCBNEW 10.0.5-1.fc44) date 2026-08-14 22:09:28*
%MOMM*%
%LPD*%
G01*
G04 APERTURE LIST*
G04 Aperture macros list*
%AMRoundRect*
0 Rectangle with rounded corners*
0 $1 Rounding radius*
0 $2 $3 $4 $5 $6 $7 $8 $9 X,Y pos of 4 corners*
0 Add a 4 corners polygon primitive as box body*
4,1,4,$2,$3,$4,$5,$6,$7,$8,$9,$2,$3,0*
0 Add four circle primitives for the rounded corners*
1,1,$1+$1,$2,$3*
1,1,$1+$1,$4,$5*
1,1,$1+$1,$6,$7*
1,1,$1+$1,$8,$9*
0 Add four rect primitives between the rounded corners*
20,1,$1+$1,$2,$3,$4,$5,0*
20,1,$1+$1,$4,$5,$6,$7,0*
20,1,$1+$1,$6,$7,$8,$9,0*
20,1,$1+$1,$8,$9,$2,$3,0*%
G04 Aperture macros list end*
%ADD10C,0.300000*%
%TA.AperFunction,NonConductor*%
%ADD11C,0.300000*%
%TD*%
%TA.AperFunction,ComponentPad*%
%ADD12R,1.700000X1.700000*%
%TD*%
%TA.AperFunction,ComponentPad*%
%ADD13C,1.700000*%
%TD*%
%TA.AperFunction,ComponentPad*%
%ADD14C,6.400000*%
%TD*%
%TA.AperFunction,ComponentPad*%
%ADD15RoundRect,0.250000X0.550000X-0.550000X0.550000X0.550000X-0.550000X0.550000X-0.550000X-0.550000X0*%
%TD*%
%TA.AperFunction,ComponentPad*%
%ADD16C,1.600000*%
%TD*%
%TA.AperFunction,ComponentPad*%
%ADD17R,1.800000X1.800000*%
%TD*%
%TA.AperFunction,ComponentPad*%
%ADD18C,1.800000*%
%TD*%
%TA.AperFunction,ComponentPad*%
%ADD19C,8.600000*%
%TD*%
%TA.AperFunction,ComponentPad*%
%ADD20RoundRect,0.250000X0.550000X0.550000X-0.550000X0.550000X-0.550000X-0.550000X0.550000X-0.550000X0*%
%TD*%
%TA.AperFunction,ViaPad*%
%ADD21C,0.600000*%
%TD*%
%TA.AperFunction,Conductor*%
%ADD22C,0.600000*%
%TD*%
%TA.AperFunction,Conductor*%
%ADD23C,0.200000*%
%TD*%
%TA.AperFunction,Conductor*%
%ADD24C,0.500000*%
%TD*%
G04 APERTURE END LIST*
D10*
D11*
X111695489Y-109863727D02*
X111838346Y-109792299D01*
X111838346Y-109792299D02*
X111981203Y-109649442D01*
X111981203Y-109649442D02*
X112195489Y-109435156D01*
X112195489Y-109435156D02*
X112338346Y-109363727D01*
X112338346Y-109363727D02*
X112481203Y-109363727D01*
X112409774Y-109720870D02*
X112552632Y-109649442D01*
X112552632Y-109649442D02*
X112695489Y-109506584D01*
X112695489Y-109506584D02*
X112766917Y-109220870D01*
X112766917Y-109220870D02*
X112766917Y-108720870D01*
X112766917Y-108720870D02*
X112695489Y-108435156D01*
X112695489Y-108435156D02*
X112552632Y-108292299D01*
X112552632Y-108292299D02*
X112409774Y-108220870D01*
X112409774Y-108220870D02*
X112124060Y-108220870D01*
X112124060Y-108220870D02*
X111981203Y-108292299D01*
X111981203Y-108292299D02*
X111838346Y-108435156D01*
X111838346Y-108435156D02*
X111766917Y-108720870D01*
X111766917Y-108720870D02*
X111766917Y-109220870D01*
X111766917Y-109220870D02*
X111838346Y-109506584D01*
X111838346Y-109506584D02*
X111981203Y-109649442D01*
X111981203Y-109649442D02*
X112124060Y-109720870D01*
X112124060Y-109720870D02*
X112409774Y-109720870D01*
X110481203Y-108720870D02*
X110481203Y-109720870D01*
X111124060Y-108720870D02*
X111124060Y-109506584D01*
X111124060Y-109506584D02*
X111052631Y-109649442D01*
X111052631Y-109649442D02*
X110909774Y-109720870D01*
X110909774Y-109720870D02*
X110695488Y-109720870D01*
X110695488Y-109720870D02*
X110552631Y-109649442D01*
X110552631Y-109649442D02*
X110481203Y-109578013D01*
X109124060Y-109720870D02*
X109124060Y-108935156D01*
X109124060Y-108935156D02*
X109195488Y-108792299D01*
X109195488Y-108792299D02*
X109338345Y-108720870D01*
X109338345Y-108720870D02*
X109624060Y-108720870D01*
X109624060Y-108720870D02*
X109766917Y-108792299D01*
X109124060Y-109649442D02*
X109266917Y-109720870D01*
X109266917Y-109720870D02*
X109624060Y-109720870D01*
X109624060Y-109720870D02*
X109766917Y-109649442D01*
X109766917Y-109649442D02*
X109838345Y-109506584D01*
X109838345Y-109506584D02*
X109838345Y-109363727D01*
X109838345Y-109363727D02*
X109766917Y-109220870D01*
X109766917Y-109220870D02*
X109624060Y-109149442D01*
X109624060Y-109149442D02*
X109266917Y-109149442D01*
X109266917Y-109149442D02*
X109124060Y-109078013D01*
X108409774Y-109720870D02*
X108409774Y-108220870D01*
X108266917Y-109149442D02*
X107838345Y-109720870D01*
X107838345Y-108720870D02*
X108409774Y-109292299D01*
X106624059Y-109649442D02*
X106766916Y-109720870D01*
X106766916Y-109720870D02*
X107052631Y-109720870D01*
X107052631Y-109720870D02*
X107195488Y-109649442D01*
X107195488Y-109649442D02*
X107266916Y-109506584D01*
X107266916Y-109506584D02*
X107266916Y-108935156D01*
X107266916Y-108935156D02*
X107195488Y-108792299D01*
X107195488Y-108792299D02*
X107052631Y-108720870D01*
X107052631Y-108720870D02*
X106766916Y-108720870D01*
X106766916Y-108720870D02*
X106624059Y-108792299D01*
X106624059Y-108792299D02*
X106552631Y-108935156D01*
X106552631Y-108935156D02*
X106552631Y-109078013D01*
X106552631Y-109078013D02*
X107266916Y-109220870D01*
X105124059Y-108292299D02*
X105266917Y-108220870D01*
X105266917Y-108220870D02*
X105481202Y-108220870D01*
X105481202Y-108220870D02*
X105695488Y-108292299D01*
X105695488Y-108292299D02*
X105838345Y-108435156D01*
X105838345Y-108435156D02*
X105909774Y-108578013D01*
X105909774Y-108578013D02*
X105981202Y-108863727D01*
X105981202Y-108863727D02*
X105981202Y-109078013D01*
X105981202Y-109078013D02*
X105909774Y-109363727D01*
X105909774Y-109363727D02*
X105838345Y-109506584D01*
X105838345Y-109506584D02*
X105695488Y-109649442D01*
X105695488Y-109649442D02*
X105481202Y-109720870D01*
X105481202Y-109720870D02*
X105338345Y-109720870D01*
X105338345Y-109720870D02*
X105124059Y-109649442D01*
X105124059Y-109649442D02*
X105052631Y-109578013D01*
X105052631Y-109578013D02*
X105052631Y-109078013D01*
X105052631Y-109078013D02*
X105338345Y-109078013D01*
X103766917Y-108720870D02*
X103766917Y-109720870D01*
X104409774Y-108720870D02*
X104409774Y-109506584D01*
X104409774Y-109506584D02*
X104338345Y-109649442D01*
X104338345Y-109649442D02*
X104195488Y-109720870D01*
X104195488Y-109720870D02*
X103981202Y-109720870D01*
X103981202Y-109720870D02*
X103838345Y-109649442D01*
X103838345Y-109649442D02*
X103766917Y-109578013D01*
X102409774Y-109720870D02*
X102409774Y-108935156D01*
X102409774Y-108935156D02*
X102481202Y-108792299D01*
X102481202Y-108792299D02*
X102624059Y-108720870D01*
X102624059Y-108720870D02*
X102909774Y-108720870D01*
X102909774Y-108720870D02*
X103052631Y-108792299D01*
X102409774Y-109649442D02*
X102552631Y-109720870D01*
X102552631Y-109720870D02*
X102909774Y-109720870D01*
X102909774Y-109720870D02*
X103052631Y-109649442D01*
X103052631Y-109649442D02*
X103124059Y-109506584D01*
X103124059Y-109506584D02*
X103124059Y-109363727D01*
X103124059Y-109363727D02*
X103052631Y-109220870D01*
X103052631Y-109220870D02*
X102909774Y-109149442D01*
X102909774Y-109149442D02*
X102552631Y-109149442D01*
X102552631Y-109149442D02*
X102409774Y-109078013D01*
X101695488Y-109720870D02*
X101695488Y-108720870D01*
X101695488Y-109006584D02*
X101624059Y-108863727D01*
X101624059Y-108863727D02*
X101552631Y-108792299D01*
X101552631Y-108792299D02*
X101409773Y-108720870D01*
X101409773Y-108720870D02*
X101266916Y-108720870D01*
X100124060Y-109720870D02*
X100124060Y-108220870D01*
X100124060Y-109649442D02*
X100266917Y-109720870D01*
X100266917Y-109720870D02*
X100552631Y-109720870D01*
X100552631Y-109720870D02*
X100695488Y-109649442D01*
X100695488Y-109649442D02*
X100766917Y-109578013D01*
X100766917Y-109578013D02*
X100838345Y-109435156D01*
X100838345Y-109435156D02*
X100838345Y-109006584D01*
X100838345Y-109006584D02*
X100766917Y-108863727D01*
X100766917Y-108863727D02*
X100695488Y-108792299D01*
X100695488Y-108792299D02*
X100552631Y-108720870D01*
X100552631Y-108720870D02*
X100266917Y-108720870D01*
X100266917Y-108720870D02*
X100124060Y-108792299D01*
X112195489Y-111350072D02*
X111981203Y-111421500D01*
X111981203Y-111421500D02*
X111909774Y-111492929D01*
X111909774Y-111492929D02*
X111838346Y-111635786D01*
X111838346Y-111635786D02*
X111838346Y-111850072D01*
X111838346Y-111850072D02*
X111909774Y-111992929D01*
X111909774Y-111992929D02*
X111981203Y-112064358D01*
X111981203Y-112064358D02*
X112124060Y-112135786D01*
X112124060Y-112135786D02*
X112695489Y-112135786D01*
X112695489Y-112135786D02*
X112695489Y-110635786D01*
X112695489Y-110635786D02*
X112195489Y-110635786D01*
X112195489Y-110635786D02*
X112052632Y-110707215D01*
X112052632Y-110707215D02*
X111981203Y-110778643D01*
X111981203Y-110778643D02*
X111909774Y-110921500D01*
X111909774Y-110921500D02*
X111909774Y-111064358D01*
X111909774Y-111064358D02*
X111981203Y-111207215D01*
X111981203Y-111207215D02*
X112052632Y-111278643D01*
X112052632Y-111278643D02*
X112195489Y-111350072D01*
X112195489Y-111350072D02*
X112695489Y-111350072D01*
X111338346Y-111135786D02*
X110981203Y-112135786D01*
X110624060Y-111135786D02*
X110981203Y-112135786D01*
X110981203Y-112135786D02*
X111124060Y-112492929D01*
X111124060Y-112492929D02*
X111195489Y-112564358D01*
X111195489Y-112564358D02*
X111338346Y-112635786D01*
X108124060Y-110707215D02*
X108266918Y-110635786D01*
X108266918Y-110635786D02*
X108481203Y-110635786D01*
X108481203Y-110635786D02*
X108695489Y-110707215D01*
X108695489Y-110707215D02*
X108838346Y-110850072D01*
X108838346Y-110850072D02*
X108909775Y-110992929D01*
X108909775Y-110992929D02*
X108981203Y-111278643D01*
X108981203Y-111278643D02*
X108981203Y-111492929D01*
X108981203Y-111492929D02*
X108909775Y-111778643D01*
X108909775Y-111778643D02*
X108838346Y-111921500D01*
X108838346Y-111921500D02*
X108695489Y-112064358D01*
X108695489Y-112064358D02*
X108481203Y-112135786D01*
X108481203Y-112135786D02*
X108338346Y-112135786D01*
X108338346Y-112135786D02*
X108124060Y-112064358D01*
X108124060Y-112064358D02*
X108052632Y-111992929D01*
X108052632Y-111992929D02*
X108052632Y-111492929D01*
X108052632Y-111492929D02*
X108338346Y-111492929D01*
X107409775Y-112135786D02*
X107409775Y-111135786D01*
X107409775Y-110635786D02*
X107481203Y-110707215D01*
X107481203Y-110707215D02*
X107409775Y-110778643D01*
X107409775Y-110778643D02*
X107338346Y-110707215D01*
X107338346Y-110707215D02*
X107409775Y-110635786D01*
X107409775Y-110635786D02*
X107409775Y-110778643D01*
X106838346Y-111135786D02*
X106052632Y-111135786D01*
X106052632Y-111135786D02*
X106838346Y-112135786D01*
X106838346Y-112135786D02*
X106052632Y-112135786D01*
X104838346Y-112135786D02*
X104838346Y-111350072D01*
X104838346Y-111350072D02*
X104909774Y-111207215D01*
X104909774Y-111207215D02*
X105052631Y-111135786D01*
X105052631Y-111135786D02*
X105338346Y-111135786D01*
X105338346Y-111135786D02*
X105481203Y-111207215D01*
X104838346Y-112064358D02*
X104981203Y-112135786D01*
X104981203Y-112135786D02*
X105338346Y-112135786D01*
X105338346Y-112135786D02*
X105481203Y-112064358D01*
X105481203Y-112064358D02*
X105552631Y-111921500D01*
X105552631Y-111921500D02*
X105552631Y-111778643D01*
X105552631Y-111778643D02*
X105481203Y-111635786D01*
X105481203Y-111635786D02*
X105338346Y-111564358D01*
X105338346Y-111564358D02*
X104981203Y-111564358D01*
X104981203Y-111564358D02*
X104838346Y-111492929D01*
X104124060Y-111135786D02*
X104124060Y-112135786D01*
X104124060Y-111278643D02*
X104052631Y-111207215D01*
X104052631Y-111207215D02*
X103909774Y-111135786D01*
X103909774Y-111135786D02*
X103695488Y-111135786D01*
X103695488Y-111135786D02*
X103552631Y-111207215D01*
X103552631Y-111207215D02*
X103481203Y-111350072D01*
X103481203Y-111350072D02*
X103481203Y-112135786D01*
X102552631Y-112135786D02*
X102695488Y-112064358D01*
X102695488Y-112064358D02*
X102766917Y-111992929D01*
X102766917Y-111992929D02*
X102838345Y-111850072D01*
X102838345Y-111850072D02*
X102838345Y-111421500D01*
X102838345Y-111421500D02*
X102766917Y-111278643D01*
X102766917Y-111278643D02*
X102695488Y-111207215D01*
X102695488Y-111207215D02*
X102552631Y-111135786D01*
X102552631Y-111135786D02*
X102338345Y-111135786D01*
X102338345Y-111135786D02*
X102195488Y-111207215D01*
X102195488Y-111207215D02*
X102124060Y-111278643D01*
X102124060Y-111278643D02*
X102052631Y-111421500D01*
X102052631Y-111421500D02*
X102052631Y-111850072D01*
X102052631Y-111850072D02*
X102124060Y-111992929D01*
X102124060Y-111992929D02*
X102195488Y-112064358D01*
X102195488Y-112064358D02*
X102338345Y-112135786D01*
X102338345Y-112135786D02*
X102552631Y-112135786D01*
X99052631Y-112135786D02*
X99124060Y-112135786D01*
X99124060Y-112135786D02*
X99266917Y-112064358D01*
X99266917Y-112064358D02*
X99481202Y-111850072D01*
X99481202Y-111850072D02*
X99838345Y-111421500D01*
X99838345Y-111421500D02*
X99981202Y-111207215D01*
X99981202Y-111207215D02*
X100052631Y-110992929D01*
X100052631Y-110992929D02*
X100052631Y-110850072D01*
X100052631Y-110850072D02*
X99981202Y-110707215D01*
X99981202Y-110707215D02*
X99838345Y-110635786D01*
X99838345Y-110635786D02*
X99766917Y-110635786D01*
X99766917Y-110635786D02*
X99624060Y-110707215D01*
X99624060Y-110707215D02*
X99552631Y-110850072D01*
X99552631Y-110850072D02*
X99552631Y-110921500D01*
X99552631Y-110921500D02*
X99624060Y-111064358D01*
X99624060Y-111064358D02*
X99695488Y-111135786D01*
X99695488Y-111135786D02*
X100124060Y-111421500D01*
X100124060Y-111421500D02*
X100195488Y-111492929D01*
X100195488Y-111492929D02*
X100266917Y-111635786D01*
X100266917Y-111635786D02*
X100266917Y-111850072D01*
X100266917Y-111850072D02*
X100195488Y-111992929D01*
X100195488Y-111992929D02*
X100124060Y-112064358D01*
X100124060Y-112064358D02*
X99981202Y-112135786D01*
X99981202Y-112135786D02*
X99766917Y-112135786D01*
X99766917Y-112135786D02*
X99624060Y-112064358D01*
X99624060Y-112064358D02*
X99552631Y-111992929D01*
X99552631Y-111992929D02*
X99338345Y-111707215D01*
X99338345Y-111707215D02*
X99266917Y-111492929D01*
X99266917Y-111492929D02*
X99266917Y-111350072D01*
X97266917Y-112135786D02*
X97266917Y-111135786D01*
X97266917Y-111421500D02*
X97195488Y-111278643D01*
X97195488Y-111278643D02*
X97124060Y-111207215D01*
X97124060Y-111207215D02*
X96981202Y-111135786D01*
X96981202Y-111135786D02*
X96838345Y-111135786D01*
X96338346Y-112135786D02*
X96338346Y-111135786D01*
X96338346Y-110635786D02*
X96409774Y-110707215D01*
X96409774Y-110707215D02*
X96338346Y-110778643D01*
X96338346Y-110778643D02*
X96266917Y-110707215D01*
X96266917Y-110707215D02*
X96338346Y-110635786D01*
X96338346Y-110635786D02*
X96338346Y-110778643D01*
X94981203Y-112064358D02*
X95124060Y-112135786D01*
X95124060Y-112135786D02*
X95409774Y-112135786D01*
X95409774Y-112135786D02*
X95552631Y-112064358D01*
X95552631Y-112064358D02*
X95624060Y-111992929D01*
X95624060Y-111992929D02*
X95695488Y-111850072D01*
X95695488Y-111850072D02*
X95695488Y-111421500D01*
X95695488Y-111421500D02*
X95624060Y-111278643D01*
X95624060Y-111278643D02*
X95552631Y-111207215D01*
X95552631Y-111207215D02*
X95409774Y-111135786D01*
X95409774Y-111135786D02*
X95124060Y-111135786D01*
X95124060Y-111135786D02*
X94981203Y-111207215D01*
X93695489Y-112064358D02*
X93838346Y-112135786D01*
X93838346Y-112135786D02*
X94124060Y-112135786D01*
X94124060Y-112135786D02*
X94266917Y-112064358D01*
X94266917Y-112064358D02*
X94338346Y-111992929D01*
X94338346Y-111992929D02*
X94409774Y-111850072D01*
X94409774Y-111850072D02*
X94409774Y-111421500D01*
X94409774Y-111421500D02*
X94338346Y-111278643D01*
X94338346Y-111278643D02*
X94266917Y-111207215D01*
X94266917Y-111207215D02*
X94124060Y-111135786D01*
X94124060Y-111135786D02*
X93838346Y-111135786D01*
X93838346Y-111135786D02*
X93695489Y-111207215D01*
X92409775Y-112135786D02*
X92409775Y-111350072D01*
X92409775Y-111350072D02*
X92481203Y-111207215D01*
X92481203Y-111207215D02*
X92624060Y-111135786D01*
X92624060Y-111135786D02*
X92909775Y-111135786D01*
X92909775Y-111135786D02*
X93052632Y-111207215D01*
X92409775Y-112064358D02*
X92552632Y-112135786D01*
X92552632Y-112135786D02*
X92909775Y-112135786D01*
X92909775Y-112135786D02*
X93052632Y-112064358D01*
X93052632Y-112064358D02*
X93124060Y-111921500D01*
X93124060Y-111921500D02*
X93124060Y-111778643D01*
X93124060Y-111778643D02*
X93052632Y-111635786D01*
X93052632Y-111635786D02*
X92909775Y-111564358D01*
X92909775Y-111564358D02*
X92552632Y-111564358D01*
X92552632Y-111564358D02*
X92409775Y-111492929D01*
X91695489Y-112135786D02*
X91695489Y-111135786D01*
X91695489Y-111421500D02*
X91624060Y-111278643D01*
X91624060Y-111278643D02*
X91552632Y-111207215D01*
X91552632Y-111207215D02*
X91409774Y-111135786D01*
X91409774Y-111135786D02*
X91266917Y-111135786D01*
X90124061Y-112135786D02*
X90124061Y-110635786D01*
X90124061Y-112064358D02*
X90266918Y-112135786D01*
X90266918Y-112135786D02*
X90552632Y-112135786D01*
X90552632Y-112135786D02*
X90695489Y-112064358D01*
X90695489Y-112064358D02*
X90766918Y-111992929D01*
X90766918Y-111992929D02*
X90838346Y-111850072D01*
X90838346Y-111850072D02*
X90838346Y-111421500D01*
X90838346Y-111421500D02*
X90766918Y-111278643D01*
X90766918Y-111278643D02*
X90695489Y-111207215D01*
X90695489Y-111207215D02*
X90552632Y-111135786D01*
X90552632Y-111135786D02*
X90266918Y-111135786D01*
X90266918Y-111135786D02*
X90124061Y-111207215D01*
X89195489Y-112135786D02*
X89338346Y-112064358D01*
X89338346Y-112064358D02*
X89409775Y-111992929D01*
X89409775Y-111992929D02*
X89481203Y-111850072D01*
X89481203Y-111850072D02*
X89481203Y-111421500D01*
X89481203Y-111421500D02*
X89409775Y-111278643D01*
X89409775Y-111278643D02*
X89338346Y-111207215D01*
X89338346Y-111207215D02*
X89195489Y-111135786D01*
X89195489Y-111135786D02*
X88981203Y-111135786D01*
X88981203Y-111135786D02*
X88838346Y-111207215D01*
X88838346Y-111207215D02*
X88766918Y-111278643D01*
X88766918Y-111278643D02*
X88695489Y-111421500D01*
X88695489Y-111421500D02*
X88695489Y-111850072D01*
X88695489Y-111850072D02*
X88766918Y-111992929D01*
X88766918Y-111992929D02*
X88838346Y-112064358D01*
X88838346Y-112064358D02*
X88981203Y-112135786D01*
X88981203Y-112135786D02*
X89195489Y-112135786D01*
X87766917Y-110635786D02*
X87624060Y-110635786D01*
X87624060Y-110635786D02*
X87481203Y-110707215D01*
X87481203Y-110707215D02*
X87409775Y-110778643D01*
X87409775Y-110778643D02*
X87338346Y-110921500D01*
X87338346Y-110921500D02*
X87266917Y-111207215D01*
X87266917Y-111207215D02*
X87266917Y-111564358D01*
X87266917Y-111564358D02*
X87338346Y-111850072D01*
X87338346Y-111850072D02*
X87409775Y-111992929D01*
X87409775Y-111992929D02*
X87481203Y-112064358D01*
X87481203Y-112064358D02*
X87624060Y-112135786D01*
X87624060Y-112135786D02*
X87766917Y-112135786D01*
X87766917Y-112135786D02*
X87909775Y-112064358D01*
X87909775Y-112064358D02*
X87981203Y-111992929D01*
X87981203Y-111992929D02*
X88052632Y-111850072D01*
X88052632Y-111850072D02*
X88124060Y-111564358D01*
X88124060Y-111564358D02*
X88124060Y-111207215D01*
X88124060Y-111207215D02*
X88052632Y-110921500D01*
X88052632Y-110921500D02*
X87981203Y-110778643D01*
X87981203Y-110778643D02*
X87909775Y-110707215D01*
X87909775Y-110707215D02*
X87766917Y-110635786D01*
X86766918Y-110635786D02*
X85766918Y-110635786D01*
X85766918Y-110635786D02*
X86409775Y-112135786D01*
X85338347Y-110635786D02*
X84409775Y-110635786D01*
X84409775Y-110635786D02*
X84909775Y-111207215D01*
X84909775Y-111207215D02*
X84695490Y-111207215D01*
X84695490Y-111207215D02*
X84552633Y-111278643D01*
X84552633Y-111278643D02*
X84481204Y-111350072D01*
X84481204Y-111350072D02*
X84409775Y-111492929D01*
X84409775Y-111492929D02*
X84409775Y-111850072D01*
X84409775Y-111850072D02*
X84481204Y-111992929D01*
X84481204Y-111992929D02*
X84552633Y-112064358D01*
X84552633Y-112064358D02*
X84695490Y-112135786D01*
X84695490Y-112135786D02*
X85124061Y-112135786D01*
X85124061Y-112135786D02*
X85266918Y-112064358D01*
X85266918Y-112064358D02*
X85338347Y-111992929D01*
X82981204Y-112135786D02*
X83838347Y-112135786D01*
X83409776Y-112135786D02*
X83409776Y-110635786D01*
X83409776Y-110635786D02*
X83552633Y-110850072D01*
X83552633Y-110850072D02*
X83695490Y-110992929D01*
X83695490Y-110992929D02*
X83838347Y-111064358D01*
D12*
%TO.P,J4,1,Pin_1_1*%
%TO.N,5V_USB*%
X89190000Y-94960000D03*
D13*
%TO.P,J4,2,Pin_2_2*%
%TO.N,GND*%
X89190000Y-97500000D03*
%TO.P,J4,3,Pin_3_3*%
%TO.N,GPIO_5*%
X89190000Y-100040000D03*
%TO.P,J4,4,Pin_4_4*%
%TO.N,GPIO_4*%
X89190000Y-102580000D03*
%TO.P,J4,5,Pin_5_5*%
%TO.N,GPIO_2*%
X89190000Y-105120000D03*
%TD*%
D14*
%TO.P,REF\u002A\u002A,1*%
%TO.N,N/C*%
X107280000Y-68450000D03*
%TD*%
D15*
%TO.P,C1,1*%
%TO.N,5V_USB*%
X104500000Y-50455113D03*
D16*
%TO.P,C1,2*%
%TO.N,GND*%
X104500000Y-47955113D03*
%TD*%
D12*
%TO.P,J1,1,Pin_1_1*%
%TO.N,GPIO_5*%
X131040001Y-48749999D03*
D13*
%TO.P,J1,2,Pin_2_2*%
%TO.N,unconnected-(J1-Pin_2-Pad2)*%
X128500001Y-48749999D03*
%TO.P,J1,3,Pin_3_3*%
%TO.N,GPIO_7*%
X125960001Y-48749999D03*
%TO.P,J1,4,Pin_4_4*%
%TO.N,GPIO_8*%
X123420001Y-48749999D03*
%TO.P,J1,5,Pin_5_5*%
%TO.N,unconnected-(J1-Pin_5-Pad5)*%
X120880001Y-48749999D03*
%TO.P,J1,6,Pin_6_6*%
%TO.N,GPIO_10*%
X118340001Y-48749999D03*
%TO.P,J1,7,Pin_7_7*%
%TO.N,unconnected-(J1-Pin_7-Pad7)*%
X115800001Y-48749999D03*
%TO.P,J1,8,Pin_8_8*%
%TO.N,unconnected-(J1-Pin_8-Pad8)*%
X113260001Y-48749999D03*
%TD*%
D17*
%TO.P,D1,1,K_1*%
%TO.N,GND*%
X95750000Y-48210000D03*
D18*
%TO.P,D1,2,A_2*%
%TO.N,Net-(D1-A)*%
X95750000Y-50750000D03*
%TD*%
D16*
%TO.P,R3,1*%
%TO.N,GPIO_3*%
X76750000Y-65000000D03*
%TO.P,R3,2*%
%TO.N,Net-(D3-A)*%
X76750000Y-54840000D03*
%TD*%
%TO.P,R2,1*%
%TO.N,GPIO_10*%
X81500000Y-65080000D03*
%TO.P,R2,2*%
%TO.N,Net-(D2-A)*%
X81500000Y-54920000D03*
%TD*%
%TO.P,R1,1*%
%TO.N,3.3V*%
X86250000Y-65250000D03*
%TO.P,R1,2*%
%TO.N,Net-(D1-A)*%
X86250000Y-55090000D03*
%TD*%
D17*
%TO.P,D3,1,K_1*%
%TO.N,GND*%
X79750000Y-48210000D03*
D18*
%TO.P,D3,2,A_2*%
%TO.N,Net-(D3-A)*%
X79750000Y-50750000D03*
%TD*%
D19*
%TO.P,REF\u002A\u002A,1*%
%TO.N,N/C*%
X119250000Y-90250000D03*
%TD*%
D12*
%TO.P,J2,1,Pin_1_1*%
%TO.N,5V_USB*%
X131040001Y-63989999D03*
D13*
%TO.P,J2,2,Pin_2_2*%
%TO.N,GND*%
X128500001Y-63989999D03*
%TO.P,J2,3,Pin_3_3*%
%TO.N,3.3V*%
X125960001Y-63989999D03*
%TO.P,J2,4,Pin_4_4*%
%TO.N,GPIO_4*%
X123420001Y-63989999D03*
%TO.P,J2,5,Pin_5_5*%
%TO.N,GPIO_3*%
X120880001Y-63989999D03*
%TO.P,J2,6,Pin_6_6*%
%TO.N,GPIO_2*%
X118340001Y-63989999D03*
%TO.P,J2,7,Pin_7_7*%
%TO.N,unconnected-(J2-Pin_7-Pad7)*%
X115800001Y-63989999D03*
%TO.P,J2,8,Pin_8_8*%
%TO.N,unconnected-(J2-Pin_8-Pad8)*%
X113260001Y-63989999D03*
%TD*%
D14*
%TO.P,REF\u002A\u002A,1*%
%TO.N,N/C*%
X107280000Y-82950000D03*
%TD*%
D12*
%TO.P,J3,1,Pin_1_1*%
%TO.N,GND*%
X95020000Y-66950000D03*
D13*
%TO.P,J3,2,Pin_2_2*%
%TO.N,3.3V*%
X95020000Y-69490000D03*
%TO.P,J3,3,Pin_3_3*%
X95020000Y-72030000D03*
%TO.P,J3,4,Pin_4_4*%
%TO.N,unconnected-(J3-Pin_4-Pad4)*%
X95020000Y-74570000D03*
%TO.P,J3,5,Pin_5_5*%
%TO.N,unconnected-(J3-Pin_5-Pad5)*%
X95020000Y-77110000D03*
%TO.P,J3,6,Pin_6_6*%
%TO.N,GND*%
X95020000Y-79650000D03*
%TO.P,J3,7,Pin_7_7*%
%TO.N,GPIO_7*%
X95020000Y-82190000D03*
%TO.P,J3,8,Pin_8_8*%
%TO.N,GPIO_8*%
X95020000Y-84730000D03*
%TD*%
D17*
%TO.P,D2,1,K_1*%
%TO.N,GND*%
X87750000Y-48210000D03*
D18*
%TO.P,D2,2,A_2*%
%TO.N,Net-(D2-A)*%
X87750000Y-50750000D03*
%TD*%
D20*
%TO.P,C3,1*%
%TO.N,3.3V*%
X104140000Y-119380000D03*
D16*
%TO.P,C3,2*%
%TO.N,GND*%
X101640000Y-119380000D03*
%TD*%
%TO.P,C2,1*%
%TO.N,3.3V*%
X95000000Y-62000000D03*
%TO.P,C2,2*%
%TO.N,GND*%
X95000000Y-57000000D03*
%TD*%
D19*
%TO.P,REF\u002A\u002A,1*%
%TO.N,N/C*%
X119250000Y-109750000D03*
%TD*%
D21*
%TO.N,GND*%
X94250000Y-119250000D03*
X130250000Y-56250000D03*
X101250000Y-92000000D03*
X111250000Y-100750000D03*
X80000000Y-108000000D03*
X80000000Y-99000000D03*
X80250000Y-90750000D03*
%TO.N,5V_USB*%
X115250000Y-55250000D03*
X125500000Y-99750000D03*
X110750000Y-55250000D03*
X132750000Y-82750000D03*
%TO.N,GPIO_5*%
X106750000Y-96000000D03*
X120000000Y-56500000D03*
X110000000Y-92750000D03*
X109250000Y-62250000D03*
X112000000Y-73250000D03*
%TO.N,GPIO_4*%
X107500000Y-96750000D03*
X110500000Y-93750000D03*
%TO.N,GPIO_8*%
X100750000Y-78750000D03*
X100750000Y-75000000D03*
%TO.N,GPIO_10*%
X111750000Y-53750000D03*
X109000000Y-55000000D03*
X92750000Y-64000000D03*
X91000000Y-68000000D03*
%TO.N,GPIO_3*%
X105750000Y-53750000D03*
X90250000Y-62500000D03*
X82750000Y-67750000D03*
X116500000Y-61000000D03*
%TO.N,3.3V*%
X105500000Y-59750000D03*
X97750000Y-66760000D03*
X97750000Y-64750000D03*
X111000000Y-59750000D03*
%TD*%
%TO.N,5V_USB*%
D22*
X132750000Y-92500000D02*
X125500000Y-99750000D01*
X132750000Y-82750000D02*
X132750000Y-92500000D01*
X115250000Y-55250000D02*
X110750000Y-55250000D01*
%TO.N,GPIO_5*%
D23*
X112000000Y-65000000D02*
X109250000Y-62250000D01*
X112000000Y-65000000D02*
X112000000Y-73250000D01*
X123290000Y-56500000D02*
X131040001Y-48749999D01*
X120000000Y-56500000D02*
X123290000Y-56500000D01*
X110000000Y-92750000D02*
X106750000Y-96000000D01*
%TO.N,GPIO_4*%
X110500000Y-93750000D02*
X107500000Y-96750000D01*
%TO.N,GPIO_8*%
X100750000Y-78750000D02*
X100750000Y-75000000D01*
%TO.N,GPIO_10*%
X110250000Y-53750000D02*
X111750000Y-53750000D01*
X109000000Y-55000000D02*
X110250000Y-53750000D01*
X91000000Y-68000000D02*
X92750000Y-66250000D01*
X92750000Y-66250000D02*
X92750000Y-64000000D01*
%TO.N,GPIO_3*%
X88500000Y-67750000D02*
X90250000Y-66000000D01*
X90250000Y-66000000D02*
X90250000Y-62500000D01*
X105750000Y-53750000D02*
X110750000Y-58750000D01*
X82750000Y-67750000D02*
X88500000Y-67750000D01*
X110750000Y-58750000D02*
X114250000Y-58750000D01*
X114250000Y-58750000D02*
X116500000Y-61000000D01*
%TO.N,3.3V*%
D24*
X111000000Y-59750000D02*
X106000000Y-59750000D01*
X106000000Y-59750000D02*
X105500000Y-59750000D01*
X97750000Y-64750000D02*
X97750000Y-66760000D01*
%TD*%
%TA.AperFunction,Conductor*%
%TO.N,GND*%
G36*
X134147050Y-45202535D02*
G01*
X134209648Y-45233570D01*
X134245530Y-45293522D01*
X134249500Y-45324648D01*
X134249500Y-104427522D01*
X134229815Y-104494561D01*
X134227995Y-104497312D01*
X134156963Y-104601588D01*
X133485157Y-105587798D01*
X133483474Y-105590206D01*
X132607194Y-106813265D01*
X132605455Y-106815633D01*
X131700408Y-108017633D01*
X131698612Y-108019959D01*
X130765406Y-109200093D01*
X130763557Y-109202376D01*
X129802595Y-110360137D01*
X129800692Y-110362375D01*
X128812591Y-111497017D01*
X128810635Y-111499210D01*
X127795934Y-112610116D01*
X127793927Y-112612262D01*
X126753169Y-113698836D01*
X126751111Y-113700934D01*
X125684923Y-114762522D01*
X125682817Y-114764570D01*
X124591774Y-115800599D01*
X124589620Y-115802597D01*
X123474292Y-116812526D01*
X123472090Y-116814472D01*
X122333207Y-117797639D01*
X122330961Y-117799532D01*
X121169082Y-118755457D01*
X121166791Y-118757297D01*
X119982579Y-119685432D01*
X119980245Y-119687217D01*
X118774370Y-120587039D01*
X118771994Y-120588768D01*
X117545197Y-121459723D01*
X117542782Y-121461396D01*
X116295587Y-122303111D01*
X116293132Y-122304725D01*
X115026433Y-123116598D01*
X115023941Y-123118154D01*
X113738332Y-123899805D01*
X113735803Y-123901302D01*
X112432028Y-124652277D01*
X112429465Y-124653713D01*
X111108262Y-125373587D01*
X111105665Y-125374962D01*
X109767796Y-126063320D01*
X109765168Y-126064633D01*
X108411366Y-126721099D01*
X108408707Y-126722350D01*
X107039709Y-127346565D01*
X107037022Y-127347752D01*
X105653619Y-127939357D01*
X105650904Y-127940480D01*
X104475847Y-128410375D01*
X104406291Y-128416990D01*
X104384808Y-128410787D01*
X103995942Y-128259347D01*
X103173010Y-127938864D01*
X103170236Y-127937745D01*
X101749895Y-127344293D01*
X101747225Y-127343138D01*
X101278339Y-127133643D01*
X100341827Y-126715216D01*
X100339079Y-126713948D01*
X98949446Y-126051926D01*
X98946730Y-126050591D01*
X97573685Y-125354860D01*
X97571002Y-125353459D01*
X97136952Y-125120040D01*
X96215329Y-124624419D01*
X96212696Y-124622961D01*
X94875230Y-123861059D01*
X94872619Y-123859529D01*
X93554156Y-123065219D01*
X93551583Y-123063626D01*
X92252862Y-122237354D01*
X92250329Y-122235698D01*
X90972217Y-121378016D01*
X90969724Y-121376299D01*
X89985634Y-120680499D01*
X89712860Y-120487634D01*
X89710428Y-120485869D01*
X88699669Y-119733553D01*
X88475685Y-119566839D01*
X88473281Y-119565005D01*
X88224792Y-119370451D01*
X88106305Y-119277682D01*
X100340000Y-119277682D01*
X100340000Y-119482317D01*
X100372009Y-119684417D01*
X100435244Y-119879031D01*
X100528141Y-120061350D01*
X100528147Y-120061359D01*
X100560523Y-120105921D01*
X100560524Y-120105922D01*
X101240000Y-119426446D01*
X101240000Y-119432661D01*
X101267259Y-119534394D01*
X101319920Y-119625606D01*
X101394394Y-119700080D01*
X101485606Y-119752741D01*
X101587339Y-119780000D01*
X101593553Y-119780000D01*
X100914076Y-120459474D01*
X100958650Y-120491859D01*
X101140968Y-120584755D01*
X101335582Y-120647990D01*
X101537683Y-120680000D01*
X101742317Y-120680000D01*
X101944417Y-120647990D01*
X102139031Y-120584755D01*
X102321349Y-120491859D01*
X102365921Y-120459474D01*
X101686447Y-119780000D01*
X101692661Y-119780000D01*
X101794394Y-119752741D01*
X101885606Y-119700080D01*
X101960080Y-119625606D01*
X102012741Y-119534394D01*
X102040000Y-119432661D01*
X102040000Y-119426448D01*
X102719473Y-120105921D01*
X102757280Y-120102946D01*
X102825658Y-120117310D01*
X102875415Y-120166361D01*
X102884714Y-120187556D01*
X102905186Y-120249334D01*
X102997288Y-120398656D01*
X103121344Y-120522712D01*
X103270666Y-120614814D01*
X103437203Y-120669999D01*
X103539991Y-120680500D01*
X104740008Y-120680499D01*
X104842797Y-120669999D01*
X105009334Y-120614814D01*
X105158656Y-120522712D01*
X105282712Y-120398656D01*
X105374814Y-120249334D01*
X105429999Y-120082797D01*
X105440500Y-119980009D01*
X105440499Y-118779992D01*
X105429999Y-118677203D01*
X105374814Y-118510666D01*
X105282712Y-118361344D01*
X105158656Y-118237288D01*
X105009334Y-118145186D01*
X104842797Y-118090001D01*
X104842795Y-118090000D01*
X104740010Y-118079500D01*
X103539998Y-118079500D01*
X103539981Y-118079501D01*
X103437203Y-118090000D01*
X103437200Y-118090001D01*
X103270668Y-118145185D01*
X103270663Y-118145187D01*
X103121342Y-118237289D01*
X102997289Y-118361342D01*
X102905187Y-118510663D01*
X102905185Y-118510668D01*
X102884717Y-118572438D01*
X102844944Y-118629883D01*
X102780428Y-118656706D01*
X102757283Y-118657052D01*
X102719474Y-118654076D01*
X102040000Y-119333551D01*
X102040000Y-119327339D01*
X102012741Y-119225606D01*
X101960080Y-119134394D01*
X101885606Y-119059920D01*
X101794394Y-119007259D01*
X101692661Y-118980000D01*
X101686446Y-118980000D01*
X102365922Y-118300524D01*
X102365921Y-118300523D01*
X102321359Y-118268147D01*
X102321350Y-118268141D01*
X102139031Y-118175244D01*
X101944417Y-118112009D01*
X101742317Y-118080000D01*
X101537683Y-118080000D01*
X101335582Y-118112009D01*
X101140968Y-118175244D01*
X100958644Y-118268143D01*
X100914077Y-118300523D01*
X100914077Y-118300524D01*
X101593554Y-118980000D01*
X101587339Y-118980000D01*
X101485606Y-119007259D01*
X101394394Y-119059920D01*
X101319920Y-119134394D01*
X101267259Y-119225606D01*
X101240000Y-119327339D01*
X101240000Y-119333553D01*
X100560524Y-118654077D01*
X100560523Y-118654077D01*
X100528143Y-118698644D01*
X100435244Y-118880968D01*
X100372009Y-119075582D01*
X100340000Y-119277682D01*
X88106305Y-119277682D01*
X87261279Y-118616072D01*
X87258919Y-118614177D01*
X87051586Y-118443523D01*
X86070465Y-117635972D01*
X86068152Y-117634020D01*
X84903932Y-116627108D01*
X84901668Y-116625101D01*
X83762367Y-115590076D01*
X83760152Y-115588014D01*
X82646454Y-114525496D01*
X82644289Y-114523380D01*
X81823311Y-113700934D01*
X81556808Y-113433954D01*
X81554702Y-113431792D01*
X81422772Y-113293011D01*
X82325704Y-113293011D01*
X113425121Y-113293011D01*
X113425121Y-109540402D01*
X114449500Y-109540402D01*
X114449500Y-109959597D01*
X114486035Y-110377190D01*
X114486035Y-110377194D01*
X114558824Y-110789998D01*
X114558828Y-110790015D01*
X114667316Y-111194902D01*
X114667319Y-111194912D01*
X114667320Y-111194913D01*
X114810691Y-111588822D01*
X114810694Y-111588829D01*
X114810695Y-111588831D01*
X114810698Y-111588839D01*
X114812636Y-111592994D01*
X114987848Y-111968736D01*
X115197443Y-112331764D01*
X115197447Y-112331770D01*
X115197454Y-112331781D01*
X115437879Y-112675144D01*
X115632640Y-112907249D01*
X115707329Y-112996260D01*
X116003740Y-113292671D01*
X116137255Y-113404704D01*
X116324855Y-113562120D01*
X116668218Y-113802545D01*
X116668225Y-113802549D01*
X116668236Y-113802557D01*
X117031264Y-114012152D01*
X117031273Y-114012156D01*
X117411160Y-114189301D01*
X117411164Y-114189302D01*
X117411178Y-114189309D01*
X117805087Y-114332680D01*
X117805093Y-114332681D01*
X117805097Y-114332683D01*
X117915359Y-114362227D01*
X118209992Y-114441174D01*
X118622812Y-114513965D01*
X119040404Y-114550499D01*
X119040405Y-114550500D01*
X119040406Y-114550500D01*
X119459595Y-114550500D01*
X119459595Y-114550499D01*
X119877188Y-114513965D01*
X120290008Y-114441174D01*
X120694913Y-114332680D01*
X121088822Y-114189309D01*
X121468736Y-114012152D01*
X121831764Y-113802557D01*
X122175143Y-113562121D01*
X122496260Y-113292671D01*
X122792671Y-112996260D01*
X123062121Y-112675143D01*
X123302557Y-112331764D01*
X123512152Y-111968736D01*
X123689309Y-111588822D01*
X123832680Y-111194913D01*
X123941174Y-110790008D01*
X124013965Y-110377188D01*
X124050500Y-109959594D01*
X124050500Y-109540406D01*
X124013965Y-109122812D01*
X123941174Y-108709992D01*
X123832680Y-108305087D01*
X123689309Y-107911178D01*
X123512152Y-107531264D01*
X123302557Y-107168236D01*
X123302549Y-107168225D01*
X123302545Y-107168218D01*
X123062120Y-106824855D01*
X122792668Y-106503737D01*
X122496262Y-106207331D01*
X122175144Y-105937879D01*
X121831781Y-105697454D01*
X121831770Y-105697447D01*
X121831764Y-105697443D01*
X121641854Y-105587798D01*
X121468742Y-105487851D01*
X121468726Y-105487843D01*
X121088839Y-105310698D01*
X121088831Y-105310695D01*
X121088829Y-105310694D01*
X121088822Y-105310691D01*
X120694913Y-105167320D01*
X120694912Y-105167319D01*
X120694902Y-105167316D01*
X120290015Y-105058828D01*
X120290018Y-105058828D01*
X120290008Y-105058826D01*
X120290002Y-105058824D01*
X120289998Y-105058824D01*
X119877192Y-104986035D01*
X119459597Y-104949500D01*
X119459594Y-104949500D01*
X119040406Y-104949500D01*
X119040402Y-104949500D01*
X118622809Y-104986035D01*
X118622805Y-104986035D01*
X118210001Y-105058824D01*
X118209984Y-105058828D01*
X117805097Y-105167316D01*
X117643079Y-105226286D01*
X117411178Y-105310691D01*
X117411174Y-105310692D01*
X117411168Y-105310695D01*
X117411160Y-105310698D01*
X117031273Y-105487843D01*
X117031257Y-105487851D01*
X116668244Y-105697438D01*
X116668218Y-105697454D01*
X116324855Y-105937879D01*
X116003737Y-106207331D01*
X115707331Y-106503737D01*
X115437879Y-106824855D01*
X115197454Y-107168218D01*
X115197438Y-107168244D01*
X114987851Y-107531257D01*
X114987843Y-107531273D01*
X114810698Y-107911160D01*
X114810695Y-107911168D01*
X114810692Y-107911174D01*
X114810691Y-107911178D01*
X114771098Y-108019959D01*
X114667316Y-108305097D01*
X114558828Y-108709984D01*
X114558824Y-108710001D01*
X114486035Y-109122805D01*
X114486035Y-109122809D01*
X114449500Y-109540402D01*
X113425121Y-109540402D01*
X113425121Y-107563645D01*
X82325704Y-107563645D01*
X82325704Y-113293011D01*
X81422772Y-113293011D01*
X80494197Y-112316219D01*
X80492138Y-112314000D01*
X79738223Y-111481146D01*
X79459121Y-111172819D01*
X79457127Y-111170562D01*
X79129171Y-110789998D01*
X78452285Y-110004531D01*
X78450350Y-110002229D01*
X78071609Y-109540405D01*
X77474256Y-108812012D01*
X77472376Y-108809661D01*
X76525606Y-107595959D01*
X76523841Y-107593638D01*
X75606975Y-106357197D01*
X75605205Y-106354748D01*
X75549066Y-106275048D01*
X74958232Y-105436239D01*
X74718799Y-105096315D01*
X74717086Y-105093819D01*
X73963035Y-103965787D01*
X73942144Y-103899114D01*
X73942124Y-103896707D01*
X73942163Y-103868443D01*
X73955508Y-94062135D01*
X87839500Y-94062135D01*
X87839500Y-95857870D01*
X87839501Y-95857876D01*
X87845908Y-95917483D01*
X87896202Y-96052328D01*
X87896206Y-96052335D01*
X87982452Y-96167544D01*
X87982455Y-96167547D01*
X88097664Y-96253793D01*
X88097671Y-96253797D01*
X88142618Y-96270561D01*
X88232517Y-96304091D01*
X88292127Y-96310500D01*
X88302685Y-96310499D01*
X88369723Y-96330179D01*
X88390372Y-96346818D01*
X89060591Y-97017037D01*
X88997007Y-97034075D01*
X88882993Y-97099901D01*
X88789901Y-97192993D01*
X88724075Y-97307007D01*
X88707037Y-97370591D01*
X88074728Y-96738282D01*
X88074727Y-96738282D01*
X88035380Y-96792439D01*
X87938904Y-96981782D01*
X87873242Y-97183869D01*
X87873242Y-97183872D01*
X87840000Y-97393753D01*
X87840000Y-97606246D01*
X87873242Y-97816127D01*
X87873242Y-97816130D01*
X87938904Y-98018217D01*
X88035375Y-98207550D01*
X88074728Y-98261716D01*
X88707037Y-97629408D01*
X88724075Y-97692993D01*
X88789901Y-97807007D01*
X88882993Y-97900099D01*
X88997007Y-97965925D01*
X89060590Y-97982962D01*
X88428282Y-98615269D01*
X88428282Y-98615270D01*
X88482452Y-98654626D01*
X88482451Y-98654626D01*
X88491495Y-98659234D01*
X88542292Y-98707208D01*
X88559087Y-98775029D01*
X88536550Y-98841164D01*
X88491499Y-98880202D01*
X88482182Y-98884949D01*
X88310213Y-99009890D01*
X88159890Y-99160213D01*
X88034951Y-99332179D01*
X87938444Y-99521585D01*
X87872753Y-99723760D01*
X87856110Y-99828842D01*
X87839500Y-99933713D01*
X87839500Y-100146287D01*
X87872754Y-100356243D01*
X87935872Y-100550500D01*
X87938444Y-100558414D01*
X88034951Y-100747820D01*
X88159890Y-100919786D01*
X88310213Y-101070109D01*
X88482182Y-101195050D01*
X88490946Y-101199516D01*
X88541742Y-101247491D01*
X88558536Y-101315312D01*
X88535998Y-101381447D01*
X88490946Y-101420484D01*
X88482182Y-101424949D01*
X88310213Y-101549890D01*
X88159890Y-101700213D01*
X88034951Y-101872179D01*
X87938444Y-102061585D01*
X87872753Y-102263760D01*
X87839500Y-102473713D01*
X87839500Y-102686286D01*
X87872753Y-102896239D01*
X87938444Y-103098414D01*
X88034951Y-103287820D01*
X88159890Y-103459786D01*
X88310213Y-103610109D01*
X88482182Y-103735050D01*
X88490946Y-103739516D01*
X88541742Y-103787491D01*
X88558536Y-103855312D01*
X88535998Y-103921447D01*
X88490946Y-103960484D01*
X88482182Y-103964949D01*
X88310213Y-104089890D01*
X88159890Y-104240213D01*
X88034951Y-104412179D01*
X87938444Y-104601585D01*
X87872753Y-104803760D01*
X87860084Y-104883752D01*
X87839500Y-105013713D01*
X87839500Y-105226287D01*
X87872754Y-105436243D01*
X87922393Y-105589016D01*
X87938444Y-105638414D01*
X88034951Y-105827820D01*
X88159890Y-105999786D01*
X88310213Y-106150109D01*
X88482179Y-106275048D01*
X88482181Y-106275049D01*
X88482184Y-106275051D01*
X88671588Y-106371557D01*
X88873757Y-106437246D01*
X89083713Y-106470500D01*
X89083714Y-106470500D01*
X89296286Y-106470500D01*
X89296287Y-106470500D01*
X89506243Y-106437246D01*
X89708412Y-106371557D01*
X89897816Y-106275051D01*
X89919789Y-106259086D01*
X90069786Y-106150109D01*
X90069788Y-106150106D01*
X90069792Y-106150104D01*
X90220104Y-105999792D01*
X90220106Y-105999788D01*
X90220109Y-105999786D01*
X90345048Y-105827820D01*
X90345047Y-105827820D01*
X90345051Y-105827816D01*
X90441557Y-105638412D01*
X90507246Y-105436243D01*
X90540500Y-105226287D01*
X90540500Y-105013713D01*
X90507246Y-104803757D01*
X90441557Y-104601588D01*
X90345051Y-104412184D01*
X90345049Y-104412181D01*
X90345048Y-104412179D01*
X90220109Y-104240213D01*
X90069786Y-104089890D01*
X89897820Y-103964951D01*
X89897115Y-103964591D01*
X89889054Y-103960485D01*
X89838259Y-103912512D01*
X89821463Y-103844692D01*
X89843999Y-103778556D01*
X89889054Y-103739515D01*
X89897816Y-103735051D01*
X89919789Y-103719086D01*
X90069786Y-103610109D01*
X90069788Y-103610106D01*
X90069792Y-103610104D01*
X90220104Y-103459792D01*
X90220106Y-103459788D01*
X90220109Y-103459786D01*
X90345048Y-103287820D01*
X90345047Y-103287820D01*
X90345051Y-103287816D01*
X90441557Y-103098412D01*
X90507246Y-102896243D01*
X90540500Y-102686287D01*
X90540500Y-102473713D01*
X90507246Y-102263757D01*
X90441557Y-102061588D01*
X90345051Y-101872184D01*
X90345049Y-101872181D01*
X90345048Y-101872179D01*
X90220109Y-101700213D01*
X90069786Y-101549890D01*
X89897820Y-101424951D01*
X89897115Y-101424591D01*
X89889054Y-101420485D01*
X89838259Y-101372512D01*
X89821463Y-101304692D01*
X89843999Y-101238556D01*
X89889054Y-101199515D01*
X89897816Y-101195051D01*
X89919789Y-101179086D01*
X90069786Y-101070109D01*
X90069788Y-101070106D01*
X90069792Y-101070104D01*
X90220104Y-100919792D01*
X90220106Y-100919788D01*
X90220109Y-100919786D01*
X90345048Y-100747820D01*
X90345047Y-100747820D01*
X90345051Y-100747816D01*
X90441557Y-100558412D01*
X90507246Y-100356243D01*
X90540500Y-100146287D01*
X90540500Y-99933713D01*
X90507246Y-99723757D01*
X90490154Y-99671153D01*
X124699500Y-99671153D01*
X124699500Y-99828846D01*
X124730261Y-99983489D01*
X124730264Y-99983501D01*
X124790602Y-100129172D01*
X124790609Y-100129185D01*
X124878210Y-100260288D01*
X124878213Y-100260292D01*
X124989707Y-100371786D01*
X124989711Y-100371789D01*
X125120814Y-100459390D01*
X125120827Y-100459397D01*
X125266498Y-100519735D01*
X125266503Y-100519737D01*
X125421153Y-100550499D01*
X125421156Y-100550500D01*
X125421158Y-100550500D01*
X125578844Y-100550500D01*
X125578845Y-100550499D01*
X125733497Y-100519737D01*
X125879179Y-100459394D01*
X126010289Y-100371789D01*
X133260286Y-93121790D01*
X133260289Y-93121789D01*
X133371789Y-93010289D01*
X133459394Y-92879179D01*
X133519737Y-92733497D01*
X133550500Y-92578842D01*
X133550500Y-82671158D01*
X133550500Y-82671155D01*
X133550499Y-82671153D01*
X133519738Y-82516510D01*
X133519737Y-82516503D01*
X133515486Y-82506239D01*
X133459397Y-82370827D01*
X133459390Y-82370814D01*
X133371789Y-82239711D01*
X133371786Y-82239707D01*
X133260292Y-82128213D01*
X133260288Y-82128210D01*
X133129185Y-82040609D01*
X133129172Y-82040602D01*
X132983501Y-81980264D01*
X132983489Y-81980261D01*
X132828845Y-81949500D01*
X132828842Y-81949500D01*
X132671158Y-81949500D01*
X132671155Y-81949500D01*
X132516510Y-81980261D01*
X132516498Y-81980264D01*
X132370827Y-82040602D01*
X132370814Y-82040609D01*
X132239711Y-82128210D01*
X132239707Y-82128213D01*
X132128213Y-82239707D01*
X132128210Y-82239711D01*
X132040609Y-82370814D01*
X132040602Y-82370827D01*
X131980264Y-82516498D01*
X131980261Y-82516510D01*
X131949500Y-82671153D01*
X131949500Y-92117059D01*
X131929815Y-92184098D01*
X131913181Y-92204740D01*
X124878213Y-99239707D01*
X124878210Y-99239711D01*
X124790609Y-99370814D01*
X124790602Y-99370827D01*
X124730264Y-99516498D01*
X124730261Y-99516510D01*
X124699500Y-99671153D01*
X90490154Y-99671153D01*
X90441557Y-99521588D01*
X90345051Y-99332184D01*
X90345049Y-99332181D01*
X90345048Y-99332179D01*
X90220109Y-99160213D01*
X90069786Y-99009890D01*
X89897817Y-98884949D01*
X89888504Y-98880204D01*
X89837707Y-98832230D01*
X89820912Y-98764409D01*
X89843449Y-98698274D01*
X89888507Y-98659232D01*
X89897555Y-98654622D01*
X89951716Y-98615270D01*
X89951717Y-98615270D01*
X89319408Y-97982962D01*
X89382993Y-97965925D01*
X89497007Y-97900099D01*
X89590099Y-97807007D01*
X89655925Y-97692993D01*
X89672962Y-97629408D01*
X90305270Y-98261717D01*
X90305270Y-98261716D01*
X90344622Y-98207554D01*
X90441095Y-98018217D01*
X90506757Y-97816130D01*
X90506757Y-97816127D01*
X90540000Y-97606246D01*
X90540000Y-97393753D01*
X90506757Y-97183872D01*
X90506757Y-97183869D01*
X90441095Y-96981782D01*
X90344624Y-96792449D01*
X90305270Y-96738282D01*
X90305269Y-96738282D01*
X89672962Y-97370590D01*
X89655925Y-97307007D01*
X89590099Y-97192993D01*
X89497007Y-97099901D01*
X89382993Y-97034075D01*
X89319409Y-97017037D01*
X89989627Y-96346818D01*
X90050950Y-96313333D01*
X90077307Y-96310499D01*
X90087872Y-96310499D01*
X90147483Y-96304091D01*
X90282331Y-96253796D01*
X90397546Y-96167546D01*
X90483796Y-96052331D01*
X90532722Y-95921153D01*
X105949500Y-95921153D01*
X105949500Y-96078846D01*
X105980261Y-96233489D01*
X105980264Y-96233501D01*
X106040602Y-96379172D01*
X106040609Y-96379185D01*
X106128210Y-96510288D01*
X106128213Y-96510292D01*
X106239707Y-96621786D01*
X106239711Y-96621789D01*
X106370814Y-96709390D01*
X106370827Y-96709397D01*
X106440563Y-96738282D01*
X106516503Y-96769737D01*
X106612367Y-96788805D01*
X106613535Y-96789038D01*
X106675446Y-96821422D01*
X106710020Y-96882138D01*
X106710961Y-96886463D01*
X106730261Y-96983491D01*
X106730264Y-96983501D01*
X106790602Y-97129172D01*
X106790609Y-97129185D01*
X106878210Y-97260288D01*
X106878213Y-97260292D01*
X106989707Y-97371786D01*
X106989711Y-97371789D01*
X107120814Y-97459390D01*
X107120827Y-97459397D01*
X107218853Y-97500000D01*
X107266503Y-97519737D01*
X107421153Y-97550499D01*
X107421156Y-97550500D01*
X107421158Y-97550500D01*
X107578844Y-97550500D01*
X107578845Y-97550499D01*
X107733497Y-97519737D01*
X107879179Y-97459394D01*
X108010289Y-97371789D01*
X108121789Y-97260289D01*
X108209394Y-97129179D01*
X108269737Y-96983497D01*
X108300500Y-96828842D01*
X108300638Y-96828150D01*
X108333023Y-96766239D01*
X108334517Y-96764717D01*
X110514664Y-94584571D01*
X110575985Y-94551088D01*
X110578152Y-94550637D01*
X110578841Y-94550500D01*
X110578842Y-94550500D01*
X110733497Y-94519737D01*
X110879179Y-94459394D01*
X111010289Y-94371789D01*
X111121789Y-94260289D01*
X111209394Y-94129179D01*
X111269737Y-93983497D01*
X111300500Y-93828842D01*
X111300500Y-93671158D01*
X111300500Y-93671155D01*
X111300499Y-93671153D01*
X111289510Y-93615908D01*
X111269737Y-93516503D01*
X111261352Y-93496260D01*
X111209397Y-93370827D01*
X111209390Y-93370814D01*
X111121789Y-93239711D01*
X111121786Y-93239707D01*
X111010292Y-93128213D01*
X111010288Y-93128210D01*
X110879185Y-93040609D01*
X110879179Y-93040606D01*
X110861589Y-93033320D01*
X110807186Y-92989478D01*
X110785122Y-92923184D01*
X110787425Y-92894571D01*
X110797225Y-92845304D01*
X110800500Y-92828843D01*
X110800500Y-92671155D01*
X110800499Y-92671153D01*
X110769738Y-92516510D01*
X110769738Y-92516508D01*
X110769737Y-92516503D01*
X110749954Y-92468742D01*
X110709397Y-92370827D01*
X110709390Y-92370814D01*
X110621789Y-92239711D01*
X110621786Y-92239707D01*
X110510292Y-92128213D01*
X110510288Y-92128210D01*
X110379185Y-92040609D01*
X110379172Y-92040602D01*
X110233501Y-91980264D01*
X110233489Y-91980261D01*
X110078845Y-91949500D01*
X110078842Y-91949500D01*
X109921158Y-91949500D01*
X109921155Y-91949500D01*
X109766510Y-91980261D01*
X109766498Y-91980264D01*
X109620827Y-92040602D01*
X109620814Y-92040609D01*
X109489711Y-92128210D01*
X109489707Y-92128213D01*
X109378213Y-92239707D01*
X109378210Y-92239711D01*
X109290609Y-92370814D01*
X109290602Y-92370827D01*
X109230264Y-92516498D01*
X109230261Y-92516508D01*
X109199361Y-92671850D01*
X109166976Y-92733761D01*
X109165425Y-92735339D01*
X106735339Y-95165425D01*
X106674016Y-95198910D01*
X106671850Y-95199361D01*
X106516508Y-95230261D01*
X106516498Y-95230264D01*
X106370827Y-95290602D01*
X106370814Y-95290609D01*
X106239711Y-95378210D01*
X106239707Y-95378213D01*
X106128213Y-95489707D01*
X106128210Y-95489711D01*
X106040609Y-95620814D01*
X106040602Y-95620827D01*
X105980264Y-95766498D01*
X105980261Y-95766510D01*
X105949500Y-95921153D01*
X90532722Y-95921153D01*
X90534091Y-95917483D01*
X90540500Y-95857873D01*
X90540499Y-94062128D01*
X90534091Y-94002517D01*
X90526998Y-93983501D01*
X90483797Y-93867671D01*
X90483793Y-93867664D01*
X90397547Y-93752455D01*
X90397544Y-93752452D01*
X90282335Y-93666206D01*
X90282328Y-93666202D01*
X90147482Y-93615908D01*
X90147483Y-93615908D01*
X90087883Y-93609501D01*
X90087881Y-93609500D01*
X90087873Y-93609500D01*
X90087864Y-93609500D01*
X88292129Y-93609500D01*
X88292123Y-93609501D01*
X88232516Y-93615908D01*
X88097671Y-93666202D01*
X88097664Y-93666206D01*
X87982455Y-93752452D01*
X87982452Y-93752455D01*
X87896206Y-93867664D01*
X87896202Y-93867671D01*
X87845908Y-94002517D01*
X87839875Y-94058637D01*
X87839501Y-94062123D01*
X87839500Y-94062135D01*
X73955508Y-94062135D01*
X73960981Y-90040402D01*
X114449500Y-90040402D01*
X114449500Y-90459597D01*
X114486035Y-90877190D01*
X114486035Y-90877194D01*
X114558824Y-91289998D01*
X114558828Y-91290015D01*
X114667316Y-91694902D01*
X114667319Y-91694912D01*
X114667320Y-91694913D01*
X114810691Y-92088822D01*
X114810694Y-92088829D01*
X114810695Y-92088831D01*
X114810698Y-92088839D01*
X114942186Y-92370814D01*
X114987848Y-92468736D01*
X115197443Y-92831764D01*
X115197447Y-92831770D01*
X115197454Y-92831781D01*
X115437879Y-93175144D01*
X115492058Y-93239711D01*
X115707329Y-93496260D01*
X116003740Y-93792671D01*
X116046852Y-93828846D01*
X116324855Y-94062120D01*
X116668218Y-94302545D01*
X116668225Y-94302549D01*
X116668236Y-94302557D01*
X117031264Y-94512152D01*
X117157902Y-94571204D01*
X117411160Y-94689301D01*
X117411164Y-94689302D01*
X117411178Y-94689309D01*
X117805087Y-94832680D01*
X117805093Y-94832681D01*
X117805097Y-94832683D01*
X117915359Y-94862227D01*
X118209992Y-94941174D01*
X118622812Y-95013965D01*
X119040404Y-95050499D01*
X119040405Y-95050500D01*
X119040406Y-95050500D01*
X119459595Y-95050500D01*
X119459595Y-95050499D01*
X119877188Y-95013965D01*
X120290008Y-94941174D01*
X120694913Y-94832680D01*
X121088822Y-94689309D01*
X121468736Y-94512152D01*
X121831764Y-94302557D01*
X122175143Y-94062121D01*
X122496260Y-93792671D01*
X122792671Y-93496260D01*
X123062121Y-93175143D01*
X123302557Y-92831764D01*
X123512152Y-92468736D01*
X123689309Y-92088822D01*
X123832680Y-91694913D01*
X123941174Y-91290008D01*
X124013965Y-90877188D01*
X124050500Y-90459594D01*
X124050500Y-90040406D01*
X124013965Y-89622812D01*
X123941174Y-89209992D01*
X123832680Y-88805087D01*
X123689309Y-88411178D01*
X123512152Y-88031264D01*
X123302557Y-87668236D01*
X123302549Y-87668225D01*
X123302545Y-87668218D01*
X123062120Y-87324855D01*
X122792668Y-87003737D01*
X122496262Y-86707331D01*
X122175144Y-86437879D01*
X121831781Y-86197454D01*
X121831770Y-86197447D01*
X121831764Y-86197443D01*
X121711222Y-86127848D01*
X121468742Y-85987851D01*
X121468726Y-85987843D01*
X121088839Y-85810698D01*
X121088831Y-85810695D01*
X121088829Y-85810694D01*
X121088822Y-85810691D01*
X120694913Y-85667320D01*
X120694912Y-85667319D01*
X120694902Y-85667316D01*
X120290015Y-85558828D01*
X120290018Y-85558828D01*
X120290008Y-85558826D01*
X120290002Y-85558824D01*
X120289998Y-85558824D01*
X119877192Y-85486035D01*
X119459597Y-85449500D01*
X119459594Y-85449500D01*
X119040406Y-85449500D01*
X119040402Y-85449500D01*
X118622809Y-85486035D01*
X118622805Y-85486035D01*
X118210001Y-85558824D01*
X118209984Y-85558828D01*
X117805097Y-85667316D01*
X117728509Y-85695192D01*
X117411178Y-85810691D01*
X117411174Y-85810692D01*
X117411168Y-85810695D01*
X117411160Y-85810698D01*
X117031273Y-85987843D01*
X117031257Y-85987851D01*
X116668244Y-86197438D01*
X116668218Y-86197454D01*
X116324855Y-86437879D01*
X116003737Y-86707331D01*
X115707331Y-87003737D01*
X115437879Y-87324855D01*
X115197454Y-87668218D01*
X115197438Y-87668244D01*
X114987851Y-88031257D01*
X114987843Y-88031273D01*
X114810698Y-88411160D01*
X114810695Y-88411168D01*
X114667316Y-88805097D01*
X114558828Y-89209984D01*
X114558824Y-89210001D01*
X114486035Y-89622805D01*
X114486035Y-89622809D01*
X114449500Y-90040402D01*
X73960981Y-90040402D01*
X73989091Y-69383713D01*
X93669500Y-69383713D01*
X93669500Y-69596286D01*
X93702753Y-69806239D01*
X93768444Y-70008414D01*
X93864951Y-70197820D01*
X93989890Y-70369786D01*
X94140213Y-70520109D01*
X94312182Y-70645050D01*
X94320946Y-70649516D01*
X94371742Y-70697491D01*
X94388536Y-70765312D01*
X94365998Y-70831447D01*
X94320946Y-70870484D01*
X94312182Y-70874949D01*
X94140213Y-70999890D01*
X93989890Y-71150213D01*
X93864951Y-71322179D01*
X93768444Y-71511585D01*
X93702753Y-71713760D01*
X93669500Y-71923713D01*
X93669500Y-72136286D01*
X93702753Y-72346239D01*
X93768444Y-72548414D01*
X93864951Y-72737820D01*
X93989890Y-72909786D01*
X94140213Y-73060109D01*
X94312182Y-73185050D01*
X94320946Y-73189516D01*
X94371742Y-73237491D01*
X94388536Y-73305312D01*
X94365998Y-73371447D01*
X94320946Y-73410484D01*
X94312182Y-73414949D01*
X94140213Y-73539890D01*
X93989890Y-73690213D01*
X93864951Y-73862179D01*
X93768444Y-74051585D01*
X93702753Y-74253760D01*
X93696917Y-74290609D01*
X93669500Y-74463713D01*
X93669500Y-74676287D01*
X93702754Y-74886243D01*
X93765334Y-75078844D01*
X93768444Y-75088414D01*
X93864951Y-75277820D01*
X93989890Y-75449786D01*
X94140213Y-75600109D01*
X94312182Y-75725050D01*
X94320946Y-75729516D01*
X94371742Y-75777491D01*
X94388536Y-75845312D01*
X94365998Y-75911447D01*
X94320946Y-75950484D01*
X94312182Y-75954949D01*
X94140213Y-76079890D01*
X93989890Y-76230213D01*
X93864951Y-76402179D01*
X93768444Y-76591585D01*
X93702753Y-76793760D01*
X93669500Y-77003713D01*
X93669500Y-77216286D01*
X93702753Y-77426239D01*
X93768444Y-77628414D01*
X93864951Y-77817820D01*
X93989890Y-77989786D01*
X94140213Y-78140109D01*
X94312179Y-78265048D01*
X94312181Y-78265049D01*
X94312184Y-78265051D01*
X94321493Y-78269794D01*
X94372290Y-78317766D01*
X94389087Y-78385587D01*
X94366552Y-78451722D01*
X94321505Y-78490760D01*
X94312446Y-78495376D01*
X94312440Y-78495380D01*
X94258282Y-78534727D01*
X94258282Y-78534728D01*
X94890591Y-79167037D01*
X94827007Y-79184075D01*
X94712993Y-79249901D01*
X94619901Y-79342993D01*
X94554075Y-79457007D01*
X94537037Y-79520591D01*
X93904728Y-78888282D01*
X93904727Y-78888282D01*
X93865380Y-78942439D01*
X93768904Y-79131782D01*
X93703242Y-79333869D01*
X93703242Y-79333872D01*
X93670000Y-79543753D01*
X93670000Y-79756246D01*
X93703242Y-79966127D01*
X93703242Y-79966130D01*
X93768904Y-80168217D01*
X93865375Y-80357550D01*
X93904728Y-80411716D01*
X94537037Y-79779408D01*
X94554075Y-79842993D01*
X94619901Y-79957007D01*
X94712993Y-80050099D01*
X94827007Y-80115925D01*
X94890590Y-80132962D01*
X94258282Y-80765269D01*
X94258282Y-80765270D01*
X94312452Y-80804626D01*
X94312451Y-80804626D01*
X94321495Y-80809234D01*
X94372292Y-80857208D01*
X94389087Y-80925029D01*
X94366550Y-80991164D01*
X94321499Y-81030202D01*
X94312182Y-81034949D01*
X94140213Y-81159890D01*
X93989890Y-81310213D01*
X93864951Y-81482179D01*
X93768444Y-81671585D01*
X93702753Y-81873760D01*
X93674875Y-82049776D01*
X93669500Y-82083713D01*
X93669500Y-82296287D01*
X93702754Y-82506243D01*
X93756338Y-82671158D01*
X93768444Y-82708414D01*
X93864951Y-82897820D01*
X93989890Y-83069786D01*
X94140213Y-83220109D01*
X94312182Y-83345050D01*
X94320946Y-83349516D01*
X94371742Y-83397491D01*
X94388536Y-83465312D01*
X94365998Y-83531447D01*
X94320946Y-83570484D01*
X94312182Y-83574949D01*
X94140213Y-83699890D01*
X93989890Y-83850213D01*
X93864951Y-84022179D01*
X93768444Y-84211585D01*
X93702753Y-84413760D01*
X93683697Y-84534076D01*
X93669500Y-84623713D01*
X93669500Y-84836287D01*
X93702754Y-85046243D01*
X93738757Y-85157049D01*
X93768444Y-85248414D01*
X93864951Y-85437820D01*
X93989890Y-85609786D01*
X94140213Y-85760109D01*
X94312179Y-85885048D01*
X94312181Y-85885049D01*
X94312184Y-85885051D01*
X94501588Y-85981557D01*
X94703757Y-86047246D01*
X94913713Y-86080500D01*
X94913714Y-86080500D01*
X95126286Y-86080500D01*
X95126287Y-86080500D01*
X95336243Y-86047246D01*
X95538412Y-85981557D01*
X95727816Y-85885051D01*
X95830159Y-85810695D01*
X95899786Y-85760109D01*
X95899788Y-85760106D01*
X95899792Y-85760104D01*
X96050104Y-85609792D01*
X96050106Y-85609788D01*
X96050109Y-85609786D01*
X96175048Y-85437820D01*
X96175047Y-85437820D01*
X96175051Y-85437816D01*
X96271557Y-85248412D01*
X96337246Y-85046243D01*
X96370500Y-84836287D01*
X96370500Y-84623713D01*
X96337246Y-84413757D01*
X96271557Y-84211588D01*
X96175051Y-84022184D01*
X96175049Y-84022181D01*
X96175048Y-84022179D01*
X96050109Y-83850213D01*
X95899786Y-83699890D01*
X95727820Y-83574951D01*
X95727115Y-83574591D01*
X95719054Y-83570485D01*
X95668259Y-83522512D01*
X95651463Y-83454692D01*
X95673999Y-83388556D01*
X95719054Y-83349515D01*
X95727816Y-83345051D01*
X95749789Y-83329086D01*
X95899786Y-83220109D01*
X95899788Y-83220106D01*
X95899792Y-83220104D01*
X96050104Y-83069792D01*
X96050106Y-83069788D01*
X96050109Y-83069786D01*
X96175048Y-82897820D01*
X96175047Y-82897820D01*
X96175051Y-82897816D01*
X96241089Y-82768209D01*
X103579500Y-82768209D01*
X103579500Y-83131790D01*
X103615137Y-83493630D01*
X103686064Y-83850212D01*
X103686067Y-83850223D01*
X103791614Y-84198165D01*
X103930754Y-84534078D01*
X103930756Y-84534083D01*
X104102140Y-84854720D01*
X104102151Y-84854738D01*
X104304140Y-85157035D01*
X104304150Y-85157049D01*
X104534807Y-85438106D01*
X104791893Y-85695192D01*
X104791898Y-85695196D01*
X104791899Y-85695197D01*
X105072956Y-85925854D01*
X105375268Y-86127853D01*
X105375277Y-86127858D01*
X105375279Y-86127859D01*
X105695916Y-86299243D01*
X105695918Y-86299243D01*
X105695924Y-86299247D01*
X106031836Y-86438386D01*
X106379767Y-86543930D01*
X106379773Y-86543931D01*
X106379776Y-86543932D01*
X106379787Y-86543935D01*
X106736369Y-86614862D01*
X107098206Y-86650500D01*
X107098209Y-86650500D01*
X107461791Y-86650500D01*
X107461794Y-86650500D01*
X107823631Y-86614862D01*
X107893045Y-86601054D01*
X108180212Y-86543935D01*
X108180223Y-86543932D01*
X108180223Y-86543931D01*
X108180233Y-86543930D01*
X108528164Y-86438386D01*
X108864076Y-86299247D01*
X109184732Y-86127853D01*
X109487044Y-85925854D01*
X109768101Y-85695197D01*
X110025197Y-85438101D01*
X110255854Y-85157044D01*
X110457853Y-84854732D01*
X110629247Y-84534076D01*
X110768386Y-84198164D01*
X110873930Y-83850233D01*
X110873932Y-83850223D01*
X110873935Y-83850212D01*
X110944862Y-83493630D01*
X110959496Y-83345048D01*
X110980500Y-83131794D01*
X110980500Y-82768206D01*
X110944862Y-82406369D01*
X110937790Y-82370814D01*
X110873935Y-82049787D01*
X110873932Y-82049776D01*
X110873931Y-82049773D01*
X110873930Y-82049767D01*
X110768386Y-81701836D01*
X110629247Y-81365924D01*
X110457853Y-81045268D01*
X110255854Y-80742956D01*
X110025197Y-80461899D01*
X110025196Y-80461898D01*
X110025192Y-80461893D01*
X109768106Y-80204807D01*
X109487049Y-79974150D01*
X109487048Y-79974149D01*
X109487044Y-79974146D01*
X109184732Y-79772147D01*
X109184727Y-79772144D01*
X109184720Y-79772140D01*
X108864083Y-79600756D01*
X108864078Y-79600754D01*
X108824050Y-79584174D01*
X108726466Y-79543753D01*
X108528165Y-79461614D01*
X108180223Y-79356067D01*
X108180212Y-79356064D01*
X107823630Y-79285137D01*
X107551111Y-79258296D01*
X107461794Y-79249500D01*
X107098206Y-79249500D01*
X107015679Y-79257628D01*
X106736369Y-79285137D01*
X106379787Y-79356064D01*
X106379776Y-79356067D01*
X106031834Y-79461614D01*
X105695921Y-79600754D01*
X105695916Y-79600756D01*
X105375279Y-79772140D01*
X105375261Y-79772151D01*
X105072964Y-79974140D01*
X105072950Y-79974150D01*
X104791893Y-80204807D01*
X104534807Y-80461893D01*
X104304150Y-80742950D01*
X104304140Y-80742964D01*
X104102151Y-81045261D01*
X104102140Y-81045279D01*
X103930756Y-81365916D01*
X103930754Y-81365921D01*
X103791614Y-81701834D01*
X103686067Y-82049776D01*
X103686064Y-82049787D01*
X103615137Y-82406369D01*
X103579500Y-82768209D01*
X96241089Y-82768209D01*
X96271557Y-82708412D01*
X96337246Y-82506243D01*
X96370500Y-82296287D01*
X96370500Y-82083713D01*
X96337246Y-81873757D01*
X96271557Y-81671588D01*
X96175051Y-81482184D01*
X96175049Y-81482181D01*
X96175048Y-81482179D01*
X96050109Y-81310213D01*
X95899786Y-81159890D01*
X95727817Y-81034949D01*
X95718504Y-81030204D01*
X95667707Y-80982230D01*
X95650912Y-80914409D01*
X95673449Y-80848274D01*
X95718507Y-80809232D01*
X95727555Y-80804622D01*
X95781716Y-80765270D01*
X95781717Y-80765270D01*
X95149408Y-80132962D01*
X95212993Y-80115925D01*
X95327007Y-80050099D01*
X95420099Y-79957007D01*
X95485925Y-79842993D01*
X95502962Y-79779409D01*
X96135270Y-80411717D01*
X96135270Y-80411716D01*
X96174622Y-80357554D01*
X96271095Y-80168217D01*
X96336757Y-79966130D01*
X96336757Y-79966127D01*
X96370000Y-79756246D01*
X96370000Y-79543753D01*
X96336757Y-79333872D01*
X96336757Y-79333869D01*
X96271095Y-79131782D01*
X96174624Y-78942449D01*
X96135270Y-78888282D01*
X96135269Y-78888282D01*
X95502962Y-79520590D01*
X95485925Y-79457007D01*
X95420099Y-79342993D01*
X95327007Y-79249901D01*
X95212993Y-79184075D01*
X95149409Y-79167037D01*
X95781716Y-78534728D01*
X95727547Y-78495373D01*
X95727547Y-78495372D01*
X95718500Y-78490763D01*
X95667706Y-78442788D01*
X95650912Y-78374966D01*
X95673451Y-78308832D01*
X95718508Y-78269793D01*
X95727816Y-78265051D01*
X95807007Y-78207515D01*
X95899786Y-78140109D01*
X95899788Y-78140106D01*
X95899792Y-78140104D01*
X96050104Y-77989792D01*
X96050106Y-77989788D01*
X96050109Y-77989786D01*
X96175048Y-77817820D01*
X96175047Y-77817820D01*
X96175051Y-77817816D01*
X96271557Y-77628412D01*
X96337246Y-77426243D01*
X96370500Y-77216287D01*
X96370500Y-77003713D01*
X96337246Y-76793757D01*
X96271557Y-76591588D01*
X96175051Y-76402184D01*
X96175049Y-76402181D01*
X96175048Y-76402179D01*
X96050109Y-76230213D01*
X95899786Y-76079890D01*
X95727820Y-75954951D01*
X95727115Y-75954591D01*
X95719054Y-75950485D01*
X95668259Y-75902512D01*
X95651463Y-75834692D01*
X95673999Y-75768556D01*
X95719054Y-75729515D01*
X95727816Y-75725051D01*
X95749789Y-75709086D01*
X95899786Y-75600109D01*
X95899788Y-75600106D01*
X95899792Y-75600104D01*
X96050104Y-75449792D01*
X96050106Y-75449788D01*
X96050109Y-75449786D01*
X96175048Y-75277820D01*
X96175047Y-75277820D01*
X96175051Y-75277816D01*
X96271557Y-75088412D01*
X96325903Y-74921153D01*
X99949500Y-74921153D01*
X99949500Y-75078846D01*
X99980261Y-75233489D01*
X99980264Y-75233501D01*
X100040602Y-75379172D01*
X100040609Y-75379185D01*
X100128602Y-75510874D01*
X100149480Y-75577551D01*
X100149500Y-75579765D01*
X100149500Y-78170234D01*
X100129815Y-78237273D01*
X100128602Y-78239125D01*
X100040609Y-78370814D01*
X100040602Y-78370827D01*
X99980264Y-78516498D01*
X99980261Y-78516510D01*
X99949500Y-78671153D01*
X99949500Y-78828846D01*
X99980261Y-78983489D01*
X99980264Y-78983501D01*
X100040602Y-79129172D01*
X100040609Y-79129185D01*
X100128210Y-79260288D01*
X100128213Y-79260292D01*
X100239707Y-79371786D01*
X100239711Y-79371789D01*
X100370814Y-79459390D01*
X100370827Y-79459397D01*
X100516498Y-79519735D01*
X100516503Y-79519737D01*
X100637239Y-79543753D01*
X100671153Y-79550499D01*
X100671156Y-79550500D01*
X100671158Y-79550500D01*
X100828844Y-79550500D01*
X100828845Y-79550499D01*
X100983497Y-79519737D01*
X101096166Y-79473067D01*
X101129172Y-79459397D01*
X101129172Y-79459396D01*
X101129179Y-79459394D01*
X101260289Y-79371789D01*
X101371789Y-79260289D01*
X101459394Y-79129179D01*
X101519737Y-78983497D01*
X101550500Y-78828842D01*
X101550500Y-78671158D01*
X101550500Y-78671155D01*
X101550499Y-78671153D01*
X101519738Y-78516510D01*
X101519737Y-78516503D01*
X101492904Y-78451722D01*
X101459397Y-78370827D01*
X101459390Y-78370814D01*
X101371398Y-78239125D01*
X101350520Y-78172447D01*
X101350500Y-78170234D01*
X101350500Y-75579765D01*
X101370185Y-75512726D01*
X101371398Y-75510874D01*
X101459390Y-75379185D01*
X101459390Y-75379184D01*
X101459394Y-75379179D01*
X101519737Y-75233497D01*
X101550500Y-75078842D01*
X101550500Y-74921158D01*
X101550500Y-74921155D01*
X101550499Y-74921153D01*
X101519738Y-74766510D01*
X101519737Y-74766503D01*
X101482369Y-74676287D01*
X101459397Y-74620827D01*
X101459390Y-74620814D01*
X101371789Y-74489711D01*
X101371786Y-74489707D01*
X101260292Y-74378213D01*
X101260288Y-74378210D01*
X101129185Y-74290609D01*
X101129172Y-74290602D01*
X100983501Y-74230264D01*
X100983489Y-74230261D01*
X100828845Y-74199500D01*
X100828842Y-74199500D01*
X100671158Y-74199500D01*
X100671155Y-74199500D01*
X100516510Y-74230261D01*
X100516498Y-74230264D01*
X100370827Y-74290602D01*
X100370814Y-74290609D01*
X100239711Y-74378210D01*
X100239707Y-74378213D01*
X100128213Y-74489707D01*
X100128210Y-74489711D01*
X100040609Y-74620814D01*
X100040602Y-74620827D01*
X99980264Y-74766498D01*
X99980261Y-74766510D01*
X99949500Y-74921153D01*
X96325903Y-74921153D01*
X96337246Y-74886243D01*
X96370500Y-74676287D01*
X96370500Y-74463713D01*
X96337246Y-74253757D01*
X96271557Y-74051588D01*
X96175051Y-73862184D01*
X96175049Y-73862181D01*
X96175048Y-73862179D01*
X96050109Y-73690213D01*
X95899786Y-73539890D01*
X95727820Y-73414951D01*
X95727115Y-73414591D01*
X95719054Y-73410485D01*
X95668259Y-73362512D01*
X95651463Y-73294692D01*
X95673999Y-73228556D01*
X95719054Y-73189515D01*
X95727816Y-73185051D01*
X95749789Y-73169086D01*
X95899786Y-73060109D01*
X95899788Y-73060106D01*
X95899792Y-73060104D01*
X96050104Y-72909792D01*
X96050106Y-72909788D01*
X96050109Y-72909786D01*
X96175048Y-72737820D01*
X96175047Y-72737820D01*
X96175051Y-72737816D01*
X96271557Y-72548412D01*
X96337246Y-72346243D01*
X96370500Y-72136287D01*
X96370500Y-71923713D01*
X96337246Y-71713757D01*
X96271557Y-71511588D01*
X96175051Y-71322184D01*
X96175049Y-71322181D01*
X96175048Y-71322179D01*
X96050109Y-71150213D01*
X95899786Y-70999890D01*
X95727820Y-70874951D01*
X95727115Y-70874591D01*
X95719054Y-70870485D01*
X95668259Y-70822512D01*
X95651463Y-70754692D01*
X95673999Y-70688556D01*
X95719054Y-70649515D01*
X95727816Y-70645051D01*
X95749789Y-70629086D01*
X95899786Y-70520109D01*
X95899788Y-70520106D01*
X95899792Y-70520104D01*
X96050104Y-70369792D01*
X96050106Y-70369788D01*
X96050109Y-70369786D01*
X96175048Y-70197820D01*
X96175047Y-70197820D01*
X96175051Y-70197816D01*
X96271557Y-70008412D01*
X96337246Y-69806243D01*
X96370500Y-69596287D01*
X96370500Y-69383713D01*
X96337246Y-69173757D01*
X96271557Y-68971588D01*
X96175051Y-68782184D01*
X96175049Y-68782181D01*
X96175048Y-68782179D01*
X96050109Y-68610213D01*
X95936181Y-68496285D01*
X95902696Y-68434962D01*
X95907680Y-68365270D01*
X95949552Y-68309337D01*
X95980529Y-68292422D01*
X96045452Y-68268207D01*
X103579500Y-68268207D01*
X103579500Y-68631790D01*
X103615137Y-68993630D01*
X103686064Y-69350212D01*
X103686067Y-69350223D01*
X103791614Y-69698165D01*
X103890000Y-69935690D01*
X103920123Y-70008414D01*
X103930754Y-70034078D01*
X103930756Y-70034083D01*
X104102140Y-70354720D01*
X104102151Y-70354738D01*
X104304140Y-70657035D01*
X104304150Y-70657049D01*
X104534807Y-70938106D01*
X104791893Y-71195192D01*
X104791898Y-71195196D01*
X104791899Y-71195197D01*
X105072956Y-71425854D01*
X105375268Y-71627853D01*
X105375277Y-71627858D01*
X105375279Y-71627859D01*
X105695916Y-71799243D01*
X105695918Y-71799243D01*
X105695924Y-71799247D01*
X106031836Y-71938386D01*
X106379767Y-72043930D01*
X106379773Y-72043931D01*
X106379776Y-72043932D01*
X106379787Y-72043935D01*
X106736369Y-72114862D01*
X107098206Y-72150500D01*
X107098209Y-72150500D01*
X107461791Y-72150500D01*
X107461794Y-72150500D01*
X107823631Y-72114862D01*
X107893045Y-72101054D01*
X108180212Y-72043935D01*
X108180223Y-72043932D01*
X108180223Y-72043931D01*
X108180233Y-72043930D01*
X108528164Y-71938386D01*
X108864076Y-71799247D01*
X109184732Y-71627853D01*
X109487044Y-71425854D01*
X109768101Y-71195197D01*
X110025197Y-70938101D01*
X110255854Y-70657044D01*
X110457853Y-70354732D01*
X110629247Y-70034076D01*
X110768386Y-69698164D01*
X110873930Y-69350233D01*
X110873932Y-69350223D01*
X110873935Y-69350212D01*
X110944862Y-68993630D01*
X110965688Y-68782179D01*
X110980500Y-68631794D01*
X110980500Y-68268206D01*
X110944862Y-67906369D01*
X110933221Y-67847844D01*
X110873935Y-67549787D01*
X110873932Y-67549776D01*
X110873931Y-67549773D01*
X110873930Y-67549767D01*
X110768386Y-67201836D01*
X110629247Y-66865924D01*
X110614772Y-66838844D01*
X110457859Y-66545279D01*
X110457858Y-66545277D01*
X110457853Y-66545268D01*
X110255854Y-66242956D01*
X110025197Y-65961899D01*
X110025196Y-65961898D01*
X110025192Y-65961893D01*
X109768106Y-65704807D01*
X109487049Y-65474150D01*
X109487048Y-65474149D01*
X109487044Y-65474146D01*
X109184732Y-65272147D01*
X109184727Y-65272144D01*
X109184720Y-65272140D01*
X108864083Y-65100756D01*
X108864078Y-65100754D01*
X108819608Y-65082334D01*
X108693116Y-65029939D01*
X108528165Y-64961614D01*
X108180223Y-64856067D01*
X108180212Y-64856064D01*
X107823630Y-64785137D01*
X107551111Y-64758296D01*
X107461794Y-64749500D01*
X107098206Y-64749500D01*
X107015679Y-64757628D01*
X106736369Y-64785137D01*
X106379787Y-64856064D01*
X106379776Y-64856067D01*
X106031834Y-64961614D01*
X105695921Y-65100754D01*
X105695916Y-65100756D01*
X105375279Y-65272140D01*
X105375261Y-65272151D01*
X105072964Y-65474140D01*
X105072950Y-65474150D01*
X104791893Y-65704807D01*
X104534807Y-65961893D01*
X104304150Y-66242950D01*
X104304140Y-66242964D01*
X104102151Y-66545261D01*
X104102140Y-66545279D01*
X103930756Y-66865916D01*
X103930754Y-66865921D01*
X103791614Y-67201834D01*
X103686067Y-67549776D01*
X103686064Y-67549787D01*
X103615137Y-67906369D01*
X103593193Y-68129179D01*
X103580280Y-68260292D01*
X103579500Y-68268207D01*
X96045452Y-68268207D01*
X96112086Y-68243354D01*
X96112088Y-68243353D01*
X96215559Y-68165895D01*
X96215560Y-68165894D01*
X96227189Y-68157188D01*
X96227190Y-68157187D01*
X96313350Y-68042093D01*
X96313354Y-68042086D01*
X96363596Y-67907379D01*
X96363598Y-67907372D01*
X96369999Y-67847844D01*
X96370000Y-67847827D01*
X96370000Y-67200000D01*
X95453012Y-67200000D01*
X95485925Y-67142993D01*
X95520000Y-67015826D01*
X95520000Y-66884174D01*
X95485925Y-66757007D01*
X95453012Y-66700000D01*
X96370000Y-66700000D01*
X96370000Y-66052172D01*
X96369999Y-66052155D01*
X96363598Y-65992627D01*
X96363596Y-65992620D01*
X96313354Y-65857913D01*
X96313350Y-65857906D01*
X96227190Y-65742812D01*
X96227187Y-65742809D01*
X96112093Y-65656649D01*
X96112086Y-65656645D01*
X95977379Y-65606403D01*
X95977372Y-65606401D01*
X95917844Y-65600000D01*
X95270000Y-65600000D01*
X95270000Y-66516988D01*
X95212993Y-66484075D01*
X95085826Y-66450000D01*
X94954174Y-66450000D01*
X94827007Y-66484075D01*
X94770000Y-66516988D01*
X94770000Y-65600000D01*
X94122155Y-65600000D01*
X94062627Y-65606401D01*
X94062620Y-65606403D01*
X93927913Y-65656645D01*
X93927906Y-65656649D01*
X93812812Y-65742809D01*
X93812809Y-65742812D01*
X93726649Y-65857906D01*
X93726645Y-65857913D01*
X93676403Y-65992620D01*
X93676401Y-65992627D01*
X93670000Y-66052155D01*
X93670000Y-66700000D01*
X94586988Y-66700000D01*
X94554075Y-66757007D01*
X94520000Y-66884174D01*
X94520000Y-67015826D01*
X94554075Y-67142993D01*
X94586988Y-67200000D01*
X93670000Y-67200000D01*
X93670000Y-67847844D01*
X93676401Y-67907372D01*
X93676403Y-67907379D01*
X93726645Y-68042086D01*
X93726649Y-68042093D01*
X93812809Y-68157187D01*
X93812812Y-68157190D01*
X93927906Y-68243350D01*
X93927913Y-68243354D01*
X94059470Y-68292422D01*
X94115404Y-68334293D01*
X94139821Y-68399758D01*
X94124969Y-68468031D01*
X94103819Y-68496285D01*
X93989889Y-68610215D01*
X93864951Y-68782179D01*
X93768444Y-68971585D01*
X93702753Y-69173760D01*
X93669500Y-69383713D01*
X73989091Y-69383713D01*
X73991421Y-67671153D01*
X81949500Y-67671153D01*
X81949500Y-67828846D01*
X81980261Y-67983489D01*
X81980264Y-67983501D01*
X82040602Y-68129172D01*
X82040609Y-68129185D01*
X82128210Y-68260288D01*
X82128213Y-68260292D01*
X82239707Y-68371786D01*
X82239711Y-68371789D01*
X82370814Y-68459390D01*
X82370827Y-68459397D01*
X82516498Y-68519735D01*
X82516503Y-68519737D01*
X82671153Y-68550499D01*
X82671156Y-68550500D01*
X82671158Y-68550500D01*
X82828844Y-68550500D01*
X82828845Y-68550499D01*
X82983497Y-68519737D01*
X83129179Y-68459394D01*
X83165744Y-68434962D01*
X83260875Y-68371398D01*
X83327553Y-68350520D01*
X83329766Y-68350500D01*
X88413331Y-68350500D01*
X88413347Y-68350501D01*
X88420943Y-68350501D01*
X88579054Y-68350501D01*
X88579057Y-68350501D01*
X88731785Y-68309577D01*
X88803441Y-68268206D01*
X88846494Y-68243350D01*
X88868709Y-68230524D01*
X88868708Y-68230524D01*
X88868716Y-68230520D01*
X88980520Y-68118716D01*
X88980520Y-68118714D01*
X88990724Y-68108511D01*
X88990727Y-68108506D01*
X89178080Y-67921153D01*
X90199500Y-67921153D01*
X90199500Y-68078846D01*
X90230261Y-68233489D01*
X90230264Y-68233501D01*
X90290602Y-68379172D01*
X90290609Y-68379185D01*
X90378210Y-68510288D01*
X90378213Y-68510292D01*
X90489707Y-68621786D01*
X90489711Y-68621789D01*
X90620814Y-68709390D01*
X90620827Y-68709397D01*
X90766498Y-68769735D01*
X90766503Y-68769737D01*
X90921153Y-68800499D01*
X90921156Y-68800500D01*
X90921158Y-68800500D01*
X91078844Y-68800500D01*
X91078845Y-68800499D01*
X91233497Y-68769737D01*
X91379179Y-68709394D01*
X91510289Y-68621789D01*
X91621789Y-68510289D01*
X91709394Y-68379179D01*
X91769737Y-68233497D01*
X91792569Y-68118713D01*
X91800638Y-68078150D01*
X91833023Y-68016239D01*
X91834517Y-68014717D01*
X93230520Y-66618716D01*
X93309577Y-66481784D01*
X93350501Y-66329057D01*
X93350501Y-66170942D01*
X93350501Y-66163347D01*
X93350500Y-66163329D01*
X93350500Y-64671153D01*
X96949500Y-64671153D01*
X96949500Y-64828846D01*
X96980261Y-64983489D01*
X96980263Y-64983497D01*
X96990061Y-65007151D01*
X96999500Y-65054604D01*
X96999500Y-66455396D01*
X96990062Y-66502844D01*
X96980263Y-66526503D01*
X96980262Y-66526506D01*
X96980260Y-66526511D01*
X96949500Y-66681153D01*
X96949500Y-66838846D01*
X96980261Y-66993489D01*
X96980264Y-66993501D01*
X97040602Y-67139172D01*
X97040609Y-67139185D01*
X97128210Y-67270288D01*
X97128213Y-67270292D01*
X97239707Y-67381786D01*
X97239711Y-67381789D01*
X97370814Y-67469390D01*
X97370827Y-67469397D01*
X97484541Y-67516498D01*
X97516503Y-67529737D01*
X97671153Y-67560499D01*
X97671156Y-67560500D01*
X97671158Y-67560500D01*
X97828844Y-67560500D01*
X97828845Y-67560499D01*
X97983497Y-67529737D01*
X98129179Y-67469394D01*
X98260289Y-67381789D01*
X98371789Y-67270289D01*
X98459394Y-67139179D01*
X98463938Y-67128210D01*
X98500224Y-67040606D01*
X98519737Y-66993497D01*
X98550500Y-66838842D01*
X98550500Y-66681158D01*
X98550500Y-66681155D01*
X98550499Y-66681153D01*
X98519739Y-66526511D01*
X98519738Y-66526508D01*
X98519737Y-66526503D01*
X98509937Y-66502844D01*
X98500500Y-66455396D01*
X98500500Y-65054604D01*
X98509939Y-65007151D01*
X98519737Y-64983497D01*
X98550500Y-64828842D01*
X98550500Y-64671158D01*
X98550500Y-64671155D01*
X98550499Y-64671153D01*
X98519737Y-64516503D01*
X98492874Y-64451649D01*
X98459397Y-64370827D01*
X98459390Y-64370814D01*
X98371789Y-64239711D01*
X98371786Y-64239707D01*
X98260292Y-64128213D01*
X98260288Y-64128210D01*
X98129185Y-64040609D01*
X98129172Y-64040602D01*
X97983501Y-63980264D01*
X97983489Y-63980261D01*
X97828845Y-63949500D01*
X97828842Y-63949500D01*
X97671158Y-63949500D01*
X97671155Y-63949500D01*
X97516510Y-63980261D01*
X97516498Y-63980264D01*
X97370827Y-64040602D01*
X97370814Y-64040609D01*
X97239711Y-64128210D01*
X97239707Y-64128213D01*
X97128213Y-64239707D01*
X97128210Y-64239711D01*
X97040609Y-64370814D01*
X97040602Y-64370827D01*
X96980264Y-64516498D01*
X96980261Y-64516510D01*
X96949500Y-64671153D01*
X93350500Y-64671153D01*
X93350500Y-64579765D01*
X93370185Y-64512726D01*
X93371398Y-64510874D01*
X93459390Y-64379185D01*
X93459390Y-64379184D01*
X93459394Y-64379179D01*
X93462854Y-64370827D01*
X93493431Y-64297006D01*
X93519737Y-64233497D01*
X93550500Y-64078842D01*
X93550500Y-63921158D01*
X93550500Y-63921155D01*
X93550499Y-63921153D01*
X93525362Y-63794781D01*
X93519737Y-63766503D01*
X93485146Y-63682992D01*
X93459397Y-63620827D01*
X93459390Y-63620814D01*
X93371789Y-63489711D01*
X93371786Y-63489707D01*
X93260292Y-63378213D01*
X93260288Y-63378210D01*
X93129185Y-63290609D01*
X93129172Y-63290602D01*
X92983501Y-63230264D01*
X92983489Y-63230261D01*
X92828845Y-63199500D01*
X92828842Y-63199500D01*
X92671158Y-63199500D01*
X92671155Y-63199500D01*
X92516510Y-63230261D01*
X92516498Y-63230264D01*
X92370827Y-63290602D01*
X92370814Y-63290609D01*
X92239711Y-63378210D01*
X92239707Y-63378213D01*
X92128213Y-63489707D01*
X92128210Y-63489711D01*
X92040609Y-63620814D01*
X92040602Y-63620827D01*
X91980264Y-63766498D01*
X91980261Y-63766510D01*
X91949500Y-63921153D01*
X91949500Y-64078846D01*
X91980261Y-64233489D01*
X91980264Y-64233501D01*
X92040602Y-64379172D01*
X92040609Y-64379185D01*
X92128602Y-64510874D01*
X92149480Y-64577551D01*
X92149500Y-64579765D01*
X92149500Y-65949902D01*
X92129815Y-66016941D01*
X92113181Y-66037583D01*
X90985339Y-67165425D01*
X90924016Y-67198910D01*
X90921850Y-67199361D01*
X90766508Y-67230261D01*
X90766498Y-67230264D01*
X90620827Y-67290602D01*
X90620814Y-67290609D01*
X90489711Y-67378210D01*
X90489707Y-67378213D01*
X90378213Y-67489707D01*
X90378210Y-67489711D01*
X90290609Y-67620814D01*
X90290602Y-67620827D01*
X90230264Y-67766498D01*
X90230261Y-67766510D01*
X90199500Y-67921153D01*
X89178080Y-67921153D01*
X90730520Y-66368716D01*
X90809577Y-66231784D01*
X90850501Y-66079057D01*
X90850501Y-65920942D01*
X90850501Y-65913347D01*
X90850500Y-65913329D01*
X90850500Y-63079765D01*
X90870185Y-63012726D01*
X90871398Y-63010874D01*
X90959390Y-62879185D01*
X90959390Y-62879184D01*
X90959394Y-62879179D01*
X90961239Y-62874726D01*
X90977715Y-62834948D01*
X91019737Y-62733497D01*
X91050500Y-62578842D01*
X91050500Y-62421158D01*
X91050500Y-62421155D01*
X91050499Y-62421153D01*
X91019738Y-62266510D01*
X91019737Y-62266503D01*
X90981428Y-62174016D01*
X90959397Y-62120827D01*
X90959390Y-62120814D01*
X90871789Y-61989711D01*
X90871786Y-61989707D01*
X90779727Y-61897648D01*
X93699500Y-61897648D01*
X93699500Y-62102351D01*
X93731522Y-62304534D01*
X93794781Y-62499223D01*
X93835350Y-62578842D01*
X93883200Y-62672753D01*
X93887715Y-62681613D01*
X94008028Y-62847213D01*
X94152786Y-62991971D01*
X94305179Y-63102689D01*
X94318390Y-63112287D01*
X94431124Y-63169728D01*
X94500776Y-63205218D01*
X94500778Y-63205218D01*
X94500781Y-63205220D01*
X94605137Y-63239127D01*
X94695465Y-63268477D01*
X94781969Y-63282178D01*
X94897648Y-63300500D01*
X94897649Y-63300500D01*
X95102351Y-63300500D01*
X95102352Y-63300500D01*
X95304534Y-63268477D01*
X95499219Y-63205220D01*
X95681610Y-63112287D01*
X95791408Y-63032515D01*
X95847213Y-62991971D01*
X95847215Y-62991968D01*
X95847219Y-62991966D01*
X95991966Y-62847219D01*
X95991968Y-62847215D01*
X95991971Y-62847213D01*
X96055124Y-62760289D01*
X96112287Y-62681610D01*
X96205220Y-62499219D01*
X96268477Y-62304534D01*
X96289603Y-62171153D01*
X108449500Y-62171153D01*
X108449500Y-62328846D01*
X108480261Y-62483489D01*
X108480264Y-62483501D01*
X108540602Y-62629172D01*
X108540609Y-62629185D01*
X108628210Y-62760288D01*
X108628213Y-62760292D01*
X108739707Y-62871786D01*
X108739711Y-62871789D01*
X108870814Y-62959390D01*
X108870827Y-62959397D01*
X108999577Y-63012726D01*
X109016503Y-63019737D01*
X109076031Y-63031578D01*
X109171849Y-63050638D01*
X109233760Y-63083023D01*
X109235339Y-63084574D01*
X111363181Y-65212416D01*
X111396666Y-65273739D01*
X111399500Y-65300097D01*
X111399500Y-72670234D01*
X111379815Y-72737273D01*
X111378602Y-72739125D01*
X111290609Y-72870814D01*
X111290602Y-72870827D01*
X111230264Y-73016498D01*
X111230261Y-73016510D01*
X111199500Y-73171153D01*
X111199500Y-73328846D01*
X111230261Y-73483489D01*
X111230264Y-73483501D01*
X111290602Y-73629172D01*
X111290609Y-73629185D01*
X111378210Y-73760288D01*
X111378213Y-73760292D01*
X111489707Y-73871786D01*
X111489711Y-73871789D01*
X111620814Y-73959390D01*
X111620827Y-73959397D01*
X111766498Y-74019735D01*
X111766503Y-74019737D01*
X111921153Y-74050499D01*
X111921156Y-74050500D01*
X111921158Y-74050500D01*
X112078844Y-74050500D01*
X112078845Y-74050499D01*
X112233497Y-74019737D01*
X112379179Y-73959394D01*
X112510289Y-73871789D01*
X112621789Y-73760289D01*
X112709394Y-73629179D01*
X112769737Y-73483497D01*
X112800500Y-73328842D01*
X112800500Y-73171158D01*
X112800500Y-73171155D01*
X112800499Y-73171153D01*
X112769738Y-73016510D01*
X112769737Y-73016503D01*
X112769735Y-73016498D01*
X112709397Y-72870827D01*
X112709390Y-72870814D01*
X112621398Y-72739125D01*
X112600520Y-72672447D01*
X112600500Y-72670234D01*
X112600500Y-65366384D01*
X112620185Y-65299345D01*
X112672989Y-65253590D01*
X112742147Y-65243646D01*
X112762809Y-65248451D01*
X112943758Y-65307245D01*
X113153714Y-65340499D01*
X113153715Y-65340499D01*
X113366287Y-65340499D01*
X113366288Y-65340499D01*
X113576244Y-65307245D01*
X113778413Y-65241556D01*
X113967817Y-65145050D01*
X114054139Y-65082334D01*
X114139787Y-65020108D01*
X114139789Y-65020105D01*
X114139793Y-65020103D01*
X114290105Y-64869791D01*
X114290107Y-64869787D01*
X114290110Y-64869785D01*
X114415049Y-64697819D01*
X114415048Y-64697819D01*
X114415052Y-64697815D01*
X114419515Y-64689053D01*
X114467489Y-64638258D01*
X114535309Y-64621462D01*
X114601445Y-64643998D01*
X114640487Y-64689055D01*
X114644952Y-64697819D01*
X114769891Y-64869785D01*
X114920214Y-65020108D01*
X115092180Y-65145047D01*
X115092182Y-65145048D01*
X115092185Y-65145050D01*
X115281589Y-65241556D01*
X115483758Y-65307245D01*
X115693714Y-65340499D01*
X115693715Y-65340499D01*
X115906287Y-65340499D01*
X115906288Y-65340499D01*
X116116244Y-65307245D01*
X116318413Y-65241556D01*
X116507817Y-65145050D01*
X116594139Y-65082334D01*
X116679787Y-65020108D01*
X116679789Y-65020105D01*
X116679793Y-65020103D01*
X116830105Y-64869791D01*
X116830107Y-64869787D01*
X116830110Y-64869785D01*
X116955049Y-64697819D01*
X116955048Y-64697819D01*
X116955052Y-64697815D01*
X116959515Y-64689053D01*
X117007489Y-64638258D01*
X117075309Y-64621462D01*
X117141445Y-64643998D01*
X117180487Y-64689055D01*
X117184952Y-64697819D01*
X117309891Y-64869785D01*
X117460214Y-65020108D01*
X117632180Y-65145047D01*
X117632182Y-65145048D01*
X117632185Y-65145050D01*
X117821589Y-65241556D01*
X118023758Y-65307245D01*
X118233714Y-65340499D01*
X118233715Y-65340499D01*
X118446287Y-65340499D01*
X118446288Y-65340499D01*
X118656244Y-65307245D01*
X118858413Y-65241556D01*
X119047817Y-65145050D01*
X119134139Y-65082334D01*
X119219787Y-65020108D01*
X119219789Y-65020105D01*
X119219793Y-65020103D01*
X119370105Y-64869791D01*
X119370107Y-64869787D01*
X119370110Y-64869785D01*
X119495049Y-64697819D01*
X119495048Y-64697819D01*
X119495052Y-64697815D01*
X119499515Y-64689053D01*
X119547489Y-64638258D01*
X119615309Y-64621462D01*
X119681445Y-64643998D01*
X119720487Y-64689055D01*
X119724952Y-64697819D01*
X119849891Y-64869785D01*
X120000214Y-65020108D01*
X120172180Y-65145047D01*
X120172182Y-65145048D01*
X120172185Y-65145050D01*
X120361589Y-65241556D01*
X120563758Y-65307245D01*
X120773714Y-65340499D01*
X120773715Y-65340499D01*
X120986287Y-65340499D01*
X120986288Y-65340499D01*
X121196244Y-65307245D01*
X121398413Y-65241556D01*
X121587817Y-65145050D01*
X121674139Y-65082334D01*
X121759787Y-65020108D01*
X121759789Y-65020105D01*
X121759793Y-65020103D01*
X121910105Y-64869791D01*
X121910107Y-64869787D01*
X121910110Y-64869785D01*
X122035049Y-64697819D01*
X122035048Y-64697819D01*
X122035052Y-64697815D01*
X122039515Y-64689053D01*
X122087489Y-64638258D01*
X122155309Y-64621462D01*
X122221445Y-64643998D01*
X122260487Y-64689055D01*
X122264952Y-64697819D01*
X122389891Y-64869785D01*
X122540214Y-65020108D01*
X122712180Y-65145047D01*
X122712182Y-65145048D01*
X122712185Y-65145050D01*
X122901589Y-65241556D01*
X123103758Y-65307245D01*
X123313714Y-65340499D01*
X123313715Y-65340499D01*
X123526287Y-65340499D01*
X123526288Y-65340499D01*
X123736244Y-65307245D01*
X123938413Y-65241556D01*
X124127817Y-65145050D01*
X124214139Y-65082334D01*
X124299787Y-65020108D01*
X124299789Y-65020105D01*
X124299793Y-65020103D01*
X124450105Y-64869791D01*
X124450107Y-64869787D01*
X124450110Y-64869785D01*
X124575049Y-64697819D01*
X124575048Y-64697819D01*
X124575052Y-64697815D01*
X124579515Y-64689053D01*
X124627489Y-64638258D01*
X124695309Y-64621462D01*
X124761445Y-64643998D01*
X124800487Y-64689055D01*
X124804952Y-64697819D01*
X124929891Y-64869785D01*
X125080214Y-65020108D01*
X125252180Y-65145047D01*
X125252182Y-65145048D01*
X125252185Y-65145050D01*
X125441589Y-65241556D01*
X125643758Y-65307245D01*
X125853714Y-65340499D01*
X125853715Y-65340499D01*
X126066287Y-65340499D01*
X126066288Y-65340499D01*
X126276244Y-65307245D01*
X126478413Y-65241556D01*
X126667817Y-65145050D01*
X126754139Y-65082334D01*
X126839787Y-65020108D01*
X126839789Y-65020105D01*
X126839793Y-65020103D01*
X126990105Y-64869791D01*
X126990107Y-64869787D01*
X126990110Y-64869785D01*
X127058636Y-64775465D01*
X127115052Y-64697815D01*
X127119794Y-64688507D01*
X127167764Y-64637710D01*
X127235584Y-64620910D01*
X127301720Y-64643444D01*
X127340764Y-64688499D01*
X127345374Y-64697546D01*
X127384729Y-64751715D01*
X128017038Y-64119407D01*
X128034076Y-64182992D01*
X128099902Y-64297006D01*
X128192994Y-64390098D01*
X128307008Y-64455924D01*
X128370591Y-64472961D01*
X127738283Y-65105268D01*
X127738283Y-65105269D01*
X127792450Y-65144623D01*
X127981783Y-65241094D01*
X128183871Y-65306756D01*
X128393755Y-65339999D01*
X128606247Y-65339999D01*
X128816128Y-65306756D01*
X128816131Y-65306756D01*
X129018218Y-65241094D01*
X129207555Y-65144621D01*
X129261717Y-65105269D01*
X129261718Y-65105269D01*
X128629409Y-64472961D01*
X128692994Y-64455924D01*
X128807008Y-64390098D01*
X128900100Y-64297006D01*
X128965926Y-64182992D01*
X128982963Y-64119408D01*
X129653182Y-64789627D01*
X129686667Y-64850950D01*
X129689501Y-64877299D01*
X129689501Y-64887864D01*
X129689502Y-64887875D01*
X129695909Y-64947482D01*
X129746203Y-65082327D01*
X129746207Y-65082334D01*
X129832453Y-65197543D01*
X129832456Y-65197546D01*
X129947665Y-65283792D01*
X129947672Y-65283796D01*
X130082518Y-65334090D01*
X130082517Y-65334090D01*
X130089445Y-65334834D01*
X130142128Y-65340499D01*
X131937873Y-65340498D01*
X131997484Y-65334090D01*
X132132332Y-65283795D01*
X132247547Y-65197545D01*
X132333797Y-65082330D01*
X132384092Y-64947482D01*
X132390501Y-64887872D01*
X132390500Y-63092127D01*
X132384092Y-63032516D01*
X132383742Y-63031578D01*
X132333798Y-62897670D01*
X132333794Y-62897663D01*
X132247548Y-62782454D01*
X132247545Y-62782451D01*
X132132336Y-62696205D01*
X132132329Y-62696201D01*
X131997483Y-62645907D01*
X131997484Y-62645907D01*
X131937884Y-62639500D01*
X131937882Y-62639499D01*
X131937874Y-62639499D01*
X131937865Y-62639499D01*
X130142130Y-62639499D01*
X130142124Y-62639500D01*
X130082517Y-62645907D01*
X129947672Y-62696201D01*
X129947665Y-62696205D01*
X129832456Y-62782451D01*
X129832453Y-62782454D01*
X129746207Y-62897663D01*
X129746203Y-62897670D01*
X129695909Y-63032516D01*
X129690313Y-63084574D01*
X129689502Y-63092122D01*
X129689501Y-63092134D01*
X129689501Y-63102689D01*
X129669816Y-63169728D01*
X129653182Y-63190370D01*
X128982963Y-63860589D01*
X128965926Y-63797006D01*
X128900100Y-63682992D01*
X128807008Y-63589900D01*
X128692994Y-63524074D01*
X128629410Y-63507036D01*
X129261717Y-62874727D01*
X129207551Y-62835374D01*
X129018218Y-62738903D01*
X128816130Y-62673241D01*
X128606247Y-62639999D01*
X128393755Y-62639999D01*
X128183873Y-62673241D01*
X128183870Y-62673241D01*
X127981783Y-62738903D01*
X127792440Y-62835379D01*
X127738283Y-62874726D01*
X127738283Y-62874727D01*
X128370592Y-63507036D01*
X128307008Y-63524074D01*
X128192994Y-63589900D01*
X128099902Y-63682992D01*
X128034076Y-63797006D01*
X128017038Y-63860590D01*
X127384729Y-63228281D01*
X127384728Y-63228281D01*
X127345381Y-63282439D01*
X127345377Y-63282445D01*
X127340761Y-63291504D01*
X127292782Y-63342296D01*
X127224960Y-63359086D01*
X127158827Y-63336542D01*
X127119795Y-63291492D01*
X127115052Y-63282183D01*
X127115050Y-63282180D01*
X127115049Y-63282178D01*
X126990110Y-63110212D01*
X126839787Y-62959889D01*
X126667821Y-62834950D01*
X126478415Y-62738443D01*
X126478414Y-62738442D01*
X126478413Y-62738442D01*
X126276244Y-62672753D01*
X126276242Y-62672752D01*
X126276241Y-62672752D01*
X126114958Y-62647207D01*
X126066288Y-62639499D01*
X125853714Y-62639499D01*
X125805043Y-62647207D01*
X125643761Y-62672752D01*
X125441586Y-62738443D01*
X125252180Y-62834950D01*
X125080214Y-62959889D01*
X124929891Y-63110212D01*
X124804950Y-63282181D01*
X124800485Y-63290945D01*
X124752510Y-63341741D01*
X124684689Y-63358535D01*
X124618554Y-63335997D01*
X124579517Y-63290945D01*
X124575051Y-63282181D01*
X124450110Y-63110212D01*
X124299787Y-62959889D01*
X124127821Y-62834950D01*
X123938415Y-62738443D01*
X123938414Y-62738442D01*
X123938413Y-62738442D01*
X123736244Y-62672753D01*
X123736242Y-62672752D01*
X123736241Y-62672752D01*
X123574958Y-62647207D01*
X123526288Y-62639499D01*
X123313714Y-62639499D01*
X123265043Y-62647207D01*
X123103761Y-62672752D01*
X122901586Y-62738443D01*
X122712180Y-62834950D01*
X122540214Y-62959889D01*
X122389891Y-63110212D01*
X122264950Y-63282181D01*
X122260485Y-63290945D01*
X122212510Y-63341741D01*
X122144689Y-63358535D01*
X122078554Y-63335997D01*
X122039517Y-63290945D01*
X122035051Y-63282181D01*
X121910110Y-63110212D01*
X121759787Y-62959889D01*
X121587821Y-62834950D01*
X121398415Y-62738443D01*
X121398414Y-62738442D01*
X121398413Y-62738442D01*
X121196244Y-62672753D01*
X121196242Y-62672752D01*
X121196241Y-62672752D01*
X121034958Y-62647207D01*
X120986288Y-62639499D01*
X120773714Y-62639499D01*
X120725043Y-62647207D01*
X120563761Y-62672752D01*
X120361586Y-62738443D01*
X120172180Y-62834950D01*
X120000214Y-62959889D01*
X119849891Y-63110212D01*
X119724950Y-63282181D01*
X119720485Y-63290945D01*
X119672510Y-63341741D01*
X119604689Y-63358535D01*
X119538554Y-63335997D01*
X119499517Y-63290945D01*
X119495051Y-63282181D01*
X119370110Y-63110212D01*
X119219787Y-62959889D01*
X119047821Y-62834950D01*
X118858415Y-62738443D01*
X118858414Y-62738442D01*
X118858413Y-62738442D01*
X118656244Y-62672753D01*
X118656242Y-62672752D01*
X118656241Y-62672752D01*
X118494958Y-62647207D01*
X118446288Y-62639499D01*
X118233714Y-62639499D01*
X118185043Y-62647207D01*
X118023761Y-62672752D01*
X117821586Y-62738443D01*
X117632180Y-62834950D01*
X117460214Y-62959889D01*
X117309891Y-63110212D01*
X117184950Y-63282181D01*
X117180485Y-63290945D01*
X117132510Y-63341741D01*
X117064689Y-63358535D01*
X116998554Y-63335997D01*
X116959517Y-63290945D01*
X116955051Y-63282181D01*
X116830110Y-63110212D01*
X116679787Y-62959889D01*
X116507821Y-62834950D01*
X116318415Y-62738443D01*
X116318414Y-62738442D01*
X116318413Y-62738442D01*
X116116244Y-62672753D01*
X116116242Y-62672752D01*
X116116241Y-62672752D01*
X115954958Y-62647207D01*
X115906288Y-62639499D01*
X115693714Y-62639499D01*
X115645043Y-62647207D01*
X115483761Y-62672752D01*
X115281586Y-62738443D01*
X115092180Y-62834950D01*
X114920214Y-62959889D01*
X114769891Y-63110212D01*
X114644950Y-63282181D01*
X114640485Y-63290945D01*
X114592510Y-63341741D01*
X114524689Y-63358535D01*
X114458554Y-63335997D01*
X114419517Y-63290945D01*
X114415051Y-63282181D01*
X114290110Y-63110212D01*
X114139787Y-62959889D01*
X113967821Y-62834950D01*
X113778415Y-62738443D01*
X113778414Y-62738442D01*
X113778413Y-62738442D01*
X113576244Y-62672753D01*
X113576242Y-62672752D01*
X113576241Y-62672752D01*
X113414958Y-62647207D01*
X113366288Y-62639499D01*
X113153714Y-62639499D01*
X113105043Y-62647207D01*
X112943761Y-62672752D01*
X112741586Y-62738443D01*
X112552180Y-62834950D01*
X112380214Y-62959889D01*
X112229891Y-63110212D01*
X112104952Y-63282178D01*
X112008445Y-63471584D01*
X111942754Y-63673759D01*
X111923431Y-63795759D01*
X111893502Y-63858894D01*
X111834190Y-63895825D01*
X111764327Y-63894827D01*
X111713277Y-63864042D01*
X110084574Y-62235339D01*
X110051089Y-62174016D01*
X110050638Y-62171849D01*
X110019738Y-62016510D01*
X110019737Y-62016503D01*
X110019735Y-62016498D01*
X109959397Y-61870827D01*
X109959390Y-61870814D01*
X109871789Y-61739711D01*
X109871786Y-61739707D01*
X109760292Y-61628213D01*
X109760288Y-61628210D01*
X109629185Y-61540609D01*
X109629172Y-61540602D01*
X109483501Y-61480264D01*
X109483489Y-61480261D01*
X109328845Y-61449500D01*
X109328842Y-61449500D01*
X109171158Y-61449500D01*
X109171155Y-61449500D01*
X109016510Y-61480261D01*
X109016498Y-61480264D01*
X108870827Y-61540602D01*
X108870814Y-61540609D01*
X108739711Y-61628210D01*
X108739707Y-61628213D01*
X108628213Y-61739707D01*
X108628210Y-61739711D01*
X108540609Y-61870814D01*
X108540602Y-61870827D01*
X108480264Y-62016498D01*
X108480261Y-62016510D01*
X108449500Y-62171153D01*
X96289603Y-62171153D01*
X96300500Y-62102352D01*
X96300500Y-61897648D01*
X96273989Y-61730264D01*
X96268477Y-61695465D01*
X96218160Y-61540606D01*
X96205220Y-61500781D01*
X96205218Y-61500778D01*
X96205218Y-61500776D01*
X96171503Y-61434607D01*
X96112287Y-61318390D01*
X96104556Y-61307749D01*
X95991971Y-61152786D01*
X95847213Y-61008028D01*
X95681613Y-60887715D01*
X95681612Y-60887714D01*
X95681610Y-60887713D01*
X95624653Y-60858691D01*
X95499223Y-60794781D01*
X95304534Y-60731522D01*
X95129995Y-60703878D01*
X95102352Y-60699500D01*
X94897648Y-60699500D01*
X94873329Y-60703351D01*
X94695465Y-60731522D01*
X94500776Y-60794781D01*
X94318386Y-60887715D01*
X94152786Y-61008028D01*
X94008028Y-61152786D01*
X93887715Y-61318386D01*
X93794781Y-61500776D01*
X93731522Y-61695465D01*
X93699500Y-61897648D01*
X90779727Y-61897648D01*
X90760292Y-61878213D01*
X90760288Y-61878210D01*
X90629185Y-61790609D01*
X90629172Y-61790602D01*
X90483501Y-61730264D01*
X90483489Y-61730261D01*
X90328845Y-61699500D01*
X90328842Y-61699500D01*
X90171158Y-61699500D01*
X90171155Y-61699500D01*
X90016510Y-61730261D01*
X90016498Y-61730264D01*
X89870827Y-61790602D01*
X89870814Y-61790609D01*
X89739711Y-61878210D01*
X89739707Y-61878213D01*
X89628213Y-61989707D01*
X89628210Y-61989711D01*
X89540609Y-62120814D01*
X89540602Y-62120827D01*
X89480264Y-62266498D01*
X89480261Y-62266510D01*
X89449500Y-62421153D01*
X89449500Y-62578846D01*
X89480261Y-62733489D01*
X89480264Y-62733501D01*
X89540602Y-62879172D01*
X89540609Y-62879185D01*
X89628602Y-63010874D01*
X89649480Y-63077551D01*
X89649500Y-63079765D01*
X89649500Y-65699902D01*
X89629815Y-65766941D01*
X89613181Y-65787583D01*
X88287584Y-67113181D01*
X88226261Y-67146666D01*
X88199903Y-67149500D01*
X83329766Y-67149500D01*
X83262727Y-67129815D01*
X83260875Y-67128602D01*
X83129185Y-67040609D01*
X83129172Y-67040602D01*
X82983501Y-66980264D01*
X82983489Y-66980261D01*
X82828845Y-66949500D01*
X82828842Y-66949500D01*
X82671158Y-66949500D01*
X82671155Y-66949500D01*
X82516510Y-66980261D01*
X82516498Y-66980264D01*
X82370827Y-67040602D01*
X82370814Y-67040609D01*
X82239711Y-67128210D01*
X82239707Y-67128213D01*
X82128213Y-67239707D01*
X82128210Y-67239711D01*
X82040609Y-67370814D01*
X82040602Y-67370827D01*
X81980264Y-67516498D01*
X81980261Y-67516510D01*
X81949500Y-67671153D01*
X73991421Y-67671153D01*
X73995195Y-64897648D01*
X75449500Y-64897648D01*
X75449500Y-65102351D01*
X75481522Y-65304534D01*
X75544781Y-65499223D01*
X75637715Y-65681613D01*
X75758028Y-65847213D01*
X75902786Y-65991971D01*
X76057749Y-66104556D01*
X76068390Y-66112287D01*
X76168601Y-66163347D01*
X76250776Y-66205218D01*
X76250778Y-66205218D01*
X76250781Y-66205220D01*
X76332537Y-66231784D01*
X76445465Y-66268477D01*
X76546557Y-66284488D01*
X76647648Y-66300500D01*
X76647649Y-66300500D01*
X76852351Y-66300500D01*
X76852352Y-66300500D01*
X77054534Y-66268477D01*
X77249219Y-66205220D01*
X77431610Y-66112287D01*
X77562844Y-66016941D01*
X77597213Y-65991971D01*
X77597215Y-65991968D01*
X77597219Y-65991966D01*
X77741966Y-65847219D01*
X77741968Y-65847215D01*
X77741971Y-65847213D01*
X77811681Y-65751264D01*
X77862287Y-65681610D01*
X77955220Y-65499219D01*
X78018477Y-65304534D01*
X78050500Y-65102352D01*
X78050500Y-64977648D01*
X80199500Y-64977648D01*
X80199500Y-65182351D01*
X80231522Y-65384534D01*
X80294781Y-65579223D01*
X80346951Y-65681610D01*
X80382441Y-65751264D01*
X80387715Y-65761613D01*
X80508028Y-65927213D01*
X80652786Y-66071971D01*
X80778532Y-66163329D01*
X80818390Y-66192287D01*
X80917849Y-66242964D01*
X81000776Y-66285218D01*
X81000778Y-66285218D01*
X81000781Y-66285220D01*
X81105137Y-66319127D01*
X81195465Y-66348477D01*
X81296557Y-66364488D01*
X81397648Y-66380500D01*
X81397649Y-66380500D01*
X81602351Y-66380500D01*
X81602352Y-66380500D01*
X81804534Y-66348477D01*
X81999219Y-66285220D01*
X82181610Y-66192287D01*
X82274590Y-66124732D01*
X82347213Y-66071971D01*
X82347215Y-66071968D01*
X82347219Y-66071966D01*
X82491966Y-65927219D01*
X82491968Y-65927215D01*
X82491971Y-65927213D01*
X82550093Y-65847213D01*
X82612287Y-65761610D01*
X82705220Y-65579219D01*
X82768477Y-65384534D01*
X82800500Y-65182352D01*
X82800500Y-65147648D01*
X84949500Y-65147648D01*
X84949500Y-65352352D01*
X84953878Y-65379995D01*
X84981522Y-65554534D01*
X85044781Y-65749223D01*
X85100159Y-65857906D01*
X85132277Y-65920942D01*
X85137715Y-65931613D01*
X85258028Y-66097213D01*
X85402786Y-66241971D01*
X85522652Y-66329057D01*
X85568390Y-66362287D01*
X85684607Y-66421503D01*
X85750776Y-66455218D01*
X85750778Y-66455218D01*
X85750781Y-66455220D01*
X85827231Y-66480060D01*
X85945465Y-66518477D01*
X86046557Y-66534488D01*
X86147648Y-66550500D01*
X86147649Y-66550500D01*
X86352351Y-66550500D01*
X86352352Y-66550500D01*
X86554534Y-66518477D01*
X86749219Y-66455220D01*
X86931610Y-66362287D01*
X87024590Y-66294732D01*
X87097213Y-66241971D01*
X87097215Y-66241968D01*
X87097219Y-66241966D01*
X87241966Y-66097219D01*
X87241968Y-66097215D01*
X87241971Y-66097213D01*
X87317961Y-65992620D01*
X87362287Y-65931610D01*
X87455220Y-65749219D01*
X87518477Y-65554534D01*
X87550500Y-65352352D01*
X87550500Y-65147648D01*
X87540155Y-65082334D01*
X87518477Y-64945465D01*
X87480584Y-64828844D01*
X87455220Y-64750781D01*
X87455218Y-64750778D01*
X87455218Y-64750776D01*
X87400529Y-64643444D01*
X87362287Y-64568390D01*
X87335542Y-64531578D01*
X87241971Y-64402786D01*
X87097213Y-64258028D01*
X86931613Y-64137715D01*
X86931612Y-64137714D01*
X86931610Y-64137713D01*
X86834110Y-64088034D01*
X86749223Y-64044781D01*
X86554534Y-63981522D01*
X86379995Y-63953878D01*
X86352352Y-63949500D01*
X86147648Y-63949500D01*
X86123329Y-63953351D01*
X85945465Y-63981522D01*
X85750776Y-64044781D01*
X85568386Y-64137715D01*
X85402786Y-64258028D01*
X85258028Y-64402786D01*
X85137715Y-64568386D01*
X85044781Y-64750776D01*
X84981522Y-64945465D01*
X84956927Y-65100754D01*
X84949500Y-65147648D01*
X82800500Y-65147648D01*
X82800500Y-64977648D01*
X82786281Y-64887872D01*
X82768477Y-64775465D01*
X82718438Y-64621462D01*
X82705220Y-64580781D01*
X82705218Y-64580778D01*
X82705218Y-64580776D01*
X82641602Y-64455924D01*
X82612287Y-64398390D01*
X82598324Y-64379172D01*
X82491971Y-64232786D01*
X82347213Y-64088028D01*
X82181613Y-63967715D01*
X82181612Y-63967714D01*
X82181610Y-63967713D01*
X82124653Y-63938691D01*
X81999223Y-63874781D01*
X81804534Y-63811522D01*
X81629995Y-63783878D01*
X81602352Y-63779500D01*
X81397648Y-63779500D01*
X81373329Y-63783351D01*
X81195465Y-63811522D01*
X81000776Y-63874781D01*
X80818386Y-63967715D01*
X80652786Y-64088028D01*
X80508028Y-64232786D01*
X80387715Y-64398386D01*
X80294781Y-64580776D01*
X80231522Y-64775465D01*
X80199500Y-64977648D01*
X78050500Y-64977648D01*
X78050500Y-64897648D01*
X78046088Y-64869791D01*
X78018477Y-64695465D01*
X77989127Y-64605137D01*
X77955220Y-64500781D01*
X77955218Y-64500778D01*
X77955218Y-64500776D01*
X77898824Y-64390098D01*
X77862287Y-64318390D01*
X77846751Y-64297006D01*
X77741971Y-64152786D01*
X77597213Y-64008028D01*
X77431613Y-63887715D01*
X77431612Y-63887714D01*
X77431610Y-63887713D01*
X77374653Y-63858691D01*
X77249223Y-63794781D01*
X77054534Y-63731522D01*
X76879995Y-63703878D01*
X76852352Y-63699500D01*
X76647648Y-63699500D01*
X76623329Y-63703351D01*
X76445465Y-63731522D01*
X76250776Y-63794781D01*
X76068386Y-63887715D01*
X75902786Y-64008028D01*
X75758028Y-64152786D01*
X75637715Y-64318386D01*
X75544781Y-64500776D01*
X75481522Y-64695465D01*
X75449500Y-64897648D01*
X73995195Y-64897648D01*
X74002308Y-59671153D01*
X104699500Y-59671153D01*
X104699500Y-59828846D01*
X104730261Y-59983489D01*
X104730264Y-59983501D01*
X104790602Y-60129172D01*
X104790609Y-60129185D01*
X104878210Y-60260288D01*
X104878213Y-60260292D01*
X104989707Y-60371786D01*
X104989711Y-60371789D01*
X105120814Y-60459390D01*
X105120827Y-60459397D01*
X105194013Y-60489711D01*
X105266503Y-60519737D01*
X105421153Y-60550499D01*
X105421156Y-60550500D01*
X105421158Y-60550500D01*
X105578844Y-60550500D01*
X105578845Y-60550499D01*
X105655152Y-60535320D01*
X105733488Y-60519739D01*
X105733489Y-60519738D01*
X105733497Y-60519737D01*
X105757155Y-60509937D01*
X105804604Y-60500500D01*
X105926082Y-60500500D01*
X110695396Y-60500500D01*
X110742844Y-60509937D01*
X110766503Y-60519737D01*
X110766508Y-60519738D01*
X110766511Y-60519739D01*
X110921153Y-60550499D01*
X110921156Y-60550500D01*
X110921158Y-60550500D01*
X111078844Y-60550500D01*
X111078845Y-60550499D01*
X111233497Y-60519737D01*
X111379179Y-60459394D01*
X111510289Y-60371789D01*
X111621789Y-60260289D01*
X111709394Y-60129179D01*
X111769737Y-59983497D01*
X111800500Y-59828842D01*
X111800500Y-59671158D01*
X111800500Y-59671155D01*
X111800499Y-59671153D01*
X111769738Y-59516510D01*
X111769737Y-59516503D01*
X111769732Y-59516492D01*
X111767969Y-59510676D01*
X111770720Y-59509841D01*
X111764497Y-59452641D01*
X111795691Y-59390122D01*
X111855734Y-59354392D01*
X111886555Y-59350500D01*
X113949903Y-59350500D01*
X114016942Y-59370185D01*
X114037584Y-59386819D01*
X115665425Y-61014660D01*
X115698910Y-61075983D01*
X115699361Y-61078149D01*
X115730261Y-61233491D01*
X115730264Y-61233501D01*
X115790602Y-61379172D01*
X115790609Y-61379185D01*
X115878210Y-61510288D01*
X115878213Y-61510292D01*
X115989707Y-61621786D01*
X115989711Y-61621789D01*
X116120814Y-61709390D01*
X116120827Y-61709397D01*
X116194013Y-61739711D01*
X116266503Y-61769737D01*
X116421153Y-61800499D01*
X116421156Y-61800500D01*
X116421158Y-61800500D01*
X116578844Y-61800500D01*
X116578845Y-61800499D01*
X116733497Y-61769737D01*
X116879179Y-61709394D01*
X117010289Y-61621789D01*
X117121789Y-61510289D01*
X117209394Y-61379179D01*
X117269737Y-61233497D01*
X117300500Y-61078842D01*
X117300500Y-60921158D01*
X117300500Y-60921155D01*
X117300499Y-60921153D01*
X117275362Y-60794781D01*
X117269737Y-60766503D01*
X117241984Y-60699500D01*
X117209397Y-60620827D01*
X117209390Y-60620814D01*
X117121789Y-60489711D01*
X117121786Y-60489707D01*
X117010292Y-60378213D01*
X117010288Y-60378210D01*
X116879185Y-60290609D01*
X116879172Y-60290602D01*
X116733501Y-60230264D01*
X116733491Y-60230261D01*
X116578151Y-60199362D01*
X116516241Y-60166977D01*
X116514662Y-60165426D01*
X114737590Y-58388355D01*
X114737588Y-58388352D01*
X114618717Y-58269481D01*
X114618716Y-58269480D01*
X114531904Y-58219360D01*
X114531904Y-58219359D01*
X114531900Y-58219358D01*
X114481785Y-58190423D01*
X114329057Y-58149499D01*
X114170943Y-58149499D01*
X114163347Y-58149499D01*
X114163331Y-58149500D01*
X111050097Y-58149500D01*
X110983058Y-58129815D01*
X110962416Y-58113181D01*
X108861416Y-56012181D01*
X108827931Y-55950858D01*
X108832915Y-55881166D01*
X108874787Y-55825233D01*
X108940251Y-55800816D01*
X108949097Y-55800500D01*
X109078844Y-55800500D01*
X109078845Y-55800499D01*
X109233497Y-55769737D01*
X109379179Y-55709394D01*
X109510289Y-55621789D01*
X109621789Y-55510289D01*
X109709394Y-55379179D01*
X109721937Y-55348896D01*
X109765776Y-55294494D01*
X109832070Y-55272428D01*
X109899769Y-55289706D01*
X109947381Y-55340842D01*
X109958115Y-55372157D01*
X109980261Y-55483491D01*
X109980264Y-55483501D01*
X110040602Y-55629172D01*
X110040609Y-55629185D01*
X110128210Y-55760288D01*
X110128213Y-55760292D01*
X110239707Y-55871786D01*
X110239711Y-55871789D01*
X110370814Y-55959390D01*
X110370827Y-55959397D01*
X110444013Y-55989711D01*
X110516503Y-56019737D01*
X110644604Y-56045218D01*
X110671153Y-56050499D01*
X110671156Y-56050500D01*
X110671158Y-56050500D01*
X115328844Y-56050500D01*
X115328845Y-56050499D01*
X115483497Y-56019737D01*
X115629179Y-55959394D01*
X115760289Y-55871789D01*
X115871789Y-55760289D01*
X115959394Y-55629179D01*
X116019737Y-55483497D01*
X116050500Y-55328842D01*
X116050500Y-55171158D01*
X116050500Y-55171155D01*
X116050499Y-55171153D01*
X116045204Y-55144534D01*
X116019737Y-55016503D01*
X115989023Y-54942352D01*
X115959397Y-54870827D01*
X115959390Y-54870814D01*
X115871789Y-54739711D01*
X115871786Y-54739707D01*
X115760292Y-54628213D01*
X115760288Y-54628210D01*
X115629185Y-54540609D01*
X115629172Y-54540602D01*
X115483501Y-54480264D01*
X115483489Y-54480261D01*
X115328845Y-54449500D01*
X115328842Y-54449500D01*
X112477350Y-54449500D01*
X112410311Y-54429815D01*
X112364556Y-54377011D01*
X112354612Y-54307853D01*
X112374248Y-54256609D01*
X112459390Y-54129185D01*
X112459390Y-54129184D01*
X112459394Y-54129179D01*
X112519737Y-53983497D01*
X112550500Y-53828842D01*
X112550500Y-53671158D01*
X112550500Y-53671155D01*
X112550499Y-53671153D01*
X112543264Y-53634780D01*
X112519737Y-53516503D01*
X112463728Y-53381284D01*
X112459397Y-53370827D01*
X112459390Y-53370814D01*
X112371789Y-53239711D01*
X112371786Y-53239707D01*
X112260292Y-53128213D01*
X112260288Y-53128210D01*
X112129185Y-53040609D01*
X112129172Y-53040602D01*
X111983501Y-52980264D01*
X111983489Y-52980261D01*
X111828845Y-52949500D01*
X111828842Y-52949500D01*
X111671158Y-52949500D01*
X111671155Y-52949500D01*
X111516510Y-52980261D01*
X111516498Y-52980264D01*
X111370827Y-53040602D01*
X111370814Y-53040609D01*
X111239125Y-53128602D01*
X111172447Y-53149480D01*
X111170234Y-53149500D01*
X110336669Y-53149500D01*
X110336653Y-53149499D01*
X110329057Y-53149499D01*
X110170943Y-53149499D01*
X110063587Y-53178265D01*
X110018210Y-53190424D01*
X110018209Y-53190425D01*
X109968096Y-53219359D01*
X109968095Y-53219360D01*
X109932853Y-53239707D01*
X109881285Y-53269479D01*
X109881282Y-53269481D01*
X108985339Y-54165425D01*
X108924016Y-54198910D01*
X108921850Y-54199361D01*
X108766508Y-54230261D01*
X108766498Y-54230264D01*
X108620827Y-54290602D01*
X108620814Y-54290609D01*
X108489711Y-54378210D01*
X108489707Y-54378213D01*
X108378213Y-54489707D01*
X108378210Y-54489711D01*
X108290609Y-54620814D01*
X108290602Y-54620827D01*
X108230264Y-54766498D01*
X108230261Y-54766510D01*
X108199500Y-54921153D01*
X108199500Y-55050903D01*
X108179815Y-55117942D01*
X108127011Y-55163697D01*
X108057853Y-55173641D01*
X107994297Y-55144616D01*
X107987819Y-55138584D01*
X106584574Y-53735339D01*
X106551089Y-53674016D01*
X106550638Y-53671849D01*
X106519738Y-53516510D01*
X106519737Y-53516503D01*
X106463728Y-53381284D01*
X106459397Y-53370827D01*
X106459390Y-53370814D01*
X106371789Y-53239711D01*
X106371786Y-53239707D01*
X106260292Y-53128213D01*
X106260288Y-53128210D01*
X106129185Y-53040609D01*
X106129172Y-53040602D01*
X105983501Y-52980264D01*
X105983489Y-52980261D01*
X105828845Y-52949500D01*
X105828842Y-52949500D01*
X105671158Y-52949500D01*
X105671155Y-52949500D01*
X105516510Y-52980261D01*
X105516498Y-52980264D01*
X105370827Y-53040602D01*
X105370814Y-53040609D01*
X105239711Y-53128210D01*
X105239707Y-53128213D01*
X105128213Y-53239707D01*
X105128210Y-53239711D01*
X105040609Y-53370814D01*
X105040602Y-53370827D01*
X104980264Y-53516498D01*
X104980261Y-53516510D01*
X104949500Y-53671153D01*
X104949500Y-53828846D01*
X104980261Y-53983489D01*
X104980264Y-53983501D01*
X105040602Y-54129172D01*
X105040609Y-54129185D01*
X105128210Y-54260288D01*
X105128213Y-54260292D01*
X105239707Y-54371786D01*
X105239711Y-54371789D01*
X105370814Y-54459390D01*
X105370827Y-54459397D01*
X105444013Y-54489711D01*
X105516503Y-54519737D01*
X105581147Y-54532595D01*
X105671849Y-54550638D01*
X105733760Y-54583023D01*
X105735339Y-54584574D01*
X109938584Y-58787819D01*
X109972069Y-58849142D01*
X109967085Y-58918834D01*
X109925213Y-58974767D01*
X109859749Y-58999184D01*
X109850903Y-58999500D01*
X105804604Y-58999500D01*
X105757155Y-58990062D01*
X105733497Y-58980263D01*
X105733493Y-58980262D01*
X105733488Y-58980260D01*
X105578845Y-58949500D01*
X105578842Y-58949500D01*
X105421158Y-58949500D01*
X105421155Y-58949500D01*
X105266510Y-58980261D01*
X105266498Y-58980264D01*
X105120827Y-59040602D01*
X105120814Y-59040609D01*
X104989711Y-59128210D01*
X104989707Y-59128213D01*
X104878213Y-59239707D01*
X104878210Y-59239711D01*
X104790609Y-59370814D01*
X104790602Y-59370827D01*
X104730264Y-59516498D01*
X104730261Y-59516510D01*
X104699500Y-59671153D01*
X74002308Y-59671153D01*
X74006082Y-56897682D01*
X93700000Y-56897682D01*
X93700000Y-57102317D01*
X93732009Y-57304417D01*
X93795244Y-57499031D01*
X93888141Y-57681350D01*
X93888147Y-57681359D01*
X93920523Y-57725921D01*
X93920524Y-57725922D01*
X94600000Y-57046446D01*
X94600000Y-57052661D01*
X94627259Y-57154394D01*
X94679920Y-57245606D01*
X94754394Y-57320080D01*
X94845606Y-57372741D01*
X94947339Y-57400000D01*
X94953553Y-57400000D01*
X94274076Y-58079474D01*
X94318650Y-58111859D01*
X94500968Y-58204755D01*
X94695582Y-58267990D01*
X94897683Y-58300000D01*
X95102317Y-58300000D01*
X95304417Y-58267990D01*
X95499031Y-58204755D01*
X95681349Y-58111859D01*
X95725921Y-58079474D01*
X95046447Y-57400000D01*
X95052661Y-57400000D01*
X95154394Y-57372741D01*
X95245606Y-57320080D01*
X95320080Y-57245606D01*
X95372741Y-57154394D01*
X95400000Y-57052661D01*
X95400000Y-57046447D01*
X96079474Y-57725921D01*
X96111859Y-57681349D01*
X96204755Y-57499031D01*
X96267990Y-57304417D01*
X96300000Y-57102317D01*
X96300000Y-56897682D01*
X96267990Y-56695582D01*
X96204755Y-56500968D01*
X96111859Y-56318650D01*
X96079474Y-56274077D01*
X96079474Y-56274076D01*
X95400000Y-56953551D01*
X95400000Y-56947339D01*
X95372741Y-56845606D01*
X95320080Y-56754394D01*
X95245606Y-56679920D01*
X95154394Y-56627259D01*
X95052661Y-56600000D01*
X95046446Y-56600000D01*
X95725922Y-55920524D01*
X95725921Y-55920523D01*
X95681359Y-55888147D01*
X95681350Y-55888141D01*
X95499031Y-55795244D01*
X95304417Y-55732009D01*
X95102317Y-55700000D01*
X94897683Y-55700000D01*
X94695582Y-55732009D01*
X94500968Y-55795244D01*
X94318644Y-55888143D01*
X94274077Y-55920523D01*
X94274077Y-55920524D01*
X94953554Y-56600000D01*
X94947339Y-56600000D01*
X94845606Y-56627259D01*
X94754394Y-56679920D01*
X94679920Y-56754394D01*
X94627259Y-56845606D01*
X94600000Y-56947339D01*
X94600000Y-56953553D01*
X93920524Y-56274077D01*
X93920523Y-56274077D01*
X93888143Y-56318644D01*
X93795244Y-56500968D01*
X93732009Y-56695582D01*
X93700000Y-56897682D01*
X74006082Y-56897682D01*
X74009021Y-54737648D01*
X75449500Y-54737648D01*
X75449500Y-54942351D01*
X75481522Y-55144534D01*
X75544781Y-55339223D01*
X75572964Y-55394534D01*
X75631946Y-55510292D01*
X75637715Y-55521613D01*
X75758028Y-55687213D01*
X75902786Y-55831971D01*
X76057749Y-55944556D01*
X76068390Y-55952287D01*
X76141831Y-55989707D01*
X76250776Y-56045218D01*
X76250778Y-56045218D01*
X76250781Y-56045220D01*
X76355137Y-56079127D01*
X76445465Y-56108477D01*
X76546557Y-56124488D01*
X76647648Y-56140500D01*
X76647649Y-56140500D01*
X76852351Y-56140500D01*
X76852352Y-56140500D01*
X77054534Y-56108477D01*
X77249219Y-56045220D01*
X77431610Y-55952287D01*
X77524590Y-55884732D01*
X77597213Y-55831971D01*
X77597215Y-55831968D01*
X77597219Y-55831966D01*
X77741966Y-55687219D01*
X77741968Y-55687215D01*
X77741971Y-55687213D01*
X77804164Y-55601610D01*
X77862287Y-55521610D01*
X77955220Y-55339219D01*
X78018477Y-55144534D01*
X78050500Y-54942352D01*
X78050500Y-54817648D01*
X80199500Y-54817648D01*
X80199500Y-55022351D01*
X80231522Y-55224534D01*
X80294781Y-55419223D01*
X80341184Y-55510292D01*
X80381401Y-55589223D01*
X80387715Y-55601613D01*
X80508028Y-55767213D01*
X80652786Y-55911971D01*
X80801116Y-56019737D01*
X80818390Y-56032287D01*
X80915900Y-56081971D01*
X81000776Y-56125218D01*
X81000778Y-56125218D01*
X81000781Y-56125220D01*
X81105137Y-56159127D01*
X81195465Y-56188477D01*
X81296557Y-56204488D01*
X81397648Y-56220500D01*
X81397649Y-56220500D01*
X81602351Y-56220500D01*
X81602352Y-56220500D01*
X81804534Y-56188477D01*
X81999219Y-56125220D01*
X82181610Y-56032287D01*
X82281935Y-55959397D01*
X82347213Y-55911971D01*
X82347215Y-55911968D01*
X82347219Y-55911966D01*
X82491966Y-55767219D01*
X82491968Y-55767215D01*
X82491971Y-55767213D01*
X82550093Y-55687213D01*
X82612287Y-55601610D01*
X82705220Y-55419219D01*
X82768477Y-55224534D01*
X82800500Y-55022352D01*
X82800500Y-54987648D01*
X84949500Y-54987648D01*
X84949500Y-55192351D01*
X84981522Y-55394534D01*
X85044781Y-55589223D01*
X85100971Y-55699500D01*
X85137712Y-55771609D01*
X85137715Y-55771613D01*
X85258028Y-55937213D01*
X85402786Y-56081971D01*
X85549382Y-56188477D01*
X85568390Y-56202287D01*
X85684607Y-56261503D01*
X85750776Y-56295218D01*
X85750778Y-56295218D01*
X85750781Y-56295220D01*
X85822873Y-56318644D01*
X85945465Y-56358477D01*
X86046557Y-56374488D01*
X86147648Y-56390500D01*
X86147649Y-56390500D01*
X86352351Y-56390500D01*
X86352352Y-56390500D01*
X86554534Y-56358477D01*
X86749219Y-56295220D01*
X86931610Y-56202287D01*
X87024590Y-56134732D01*
X87097213Y-56081971D01*
X87097215Y-56081968D01*
X87097219Y-56081966D01*
X87241966Y-55937219D01*
X87260313Y-55911966D01*
X87272712Y-55894901D01*
X87272714Y-55894898D01*
X87295757Y-55863181D01*
X87362287Y-55771610D01*
X87455220Y-55589219D01*
X87518477Y-55394534D01*
X87550500Y-55192352D01*
X87550500Y-54987648D01*
X87518477Y-54785466D01*
X87455220Y-54590781D01*
X87455218Y-54590778D01*
X87455218Y-54590776D01*
X87403720Y-54489707D01*
X87362287Y-54408390D01*
X87313163Y-54340776D01*
X87241971Y-54242786D01*
X87097213Y-54098028D01*
X86931613Y-53977715D01*
X86931612Y-53977714D01*
X86931610Y-53977713D01*
X86834110Y-53928034D01*
X86749223Y-53884781D01*
X86554534Y-53821522D01*
X86379995Y-53793878D01*
X86352352Y-53789500D01*
X86147648Y-53789500D01*
X86123329Y-53793351D01*
X85945465Y-53821522D01*
X85750776Y-53884781D01*
X85568386Y-53977715D01*
X85402786Y-54098028D01*
X85258028Y-54242786D01*
X85137715Y-54408386D01*
X85044781Y-54590776D01*
X84981522Y-54785465D01*
X84949500Y-54987648D01*
X82800500Y-54987648D01*
X82800500Y-54817648D01*
X82770496Y-54628211D01*
X82768477Y-54615465D01*
X82705218Y-54420776D01*
X82647680Y-54307853D01*
X82612287Y-54238390D01*
X82583931Y-54199361D01*
X82491971Y-54072786D01*
X82347213Y-53928028D01*
X82181613Y-53807715D01*
X82181612Y-53807714D01*
X82181610Y-53807713D01*
X82124653Y-53778691D01*
X81999223Y-53714781D01*
X81804534Y-53651522D01*
X81629995Y-53623878D01*
X81602352Y-53619500D01*
X81397648Y-53619500D01*
X81373329Y-53623351D01*
X81195465Y-53651522D01*
X81000776Y-53714781D01*
X80818386Y-53807715D01*
X80652786Y-53928028D01*
X80508028Y-54072786D01*
X80387715Y-54238386D01*
X80294781Y-54420776D01*
X80231522Y-54615465D01*
X80199500Y-54817648D01*
X78050500Y-54817648D01*
X78050500Y-54737648D01*
X78033167Y-54628211D01*
X78018477Y-54535465D01*
X77984149Y-54429815D01*
X77955220Y-54340781D01*
X77955218Y-54340778D01*
X77955218Y-54340776D01*
X77903047Y-54238386D01*
X77862287Y-54158390D01*
X77854556Y-54147749D01*
X77741971Y-53992786D01*
X77597213Y-53848028D01*
X77431613Y-53727715D01*
X77431612Y-53727714D01*
X77431610Y-53727713D01*
X77374653Y-53698691D01*
X77249223Y-53634781D01*
X77054534Y-53571522D01*
X76879995Y-53543878D01*
X76852352Y-53539500D01*
X76647648Y-53539500D01*
X76623329Y-53543351D01*
X76445465Y-53571522D01*
X76250776Y-53634781D01*
X76068386Y-53727715D01*
X75902786Y-53848028D01*
X75758028Y-53992786D01*
X75637715Y-54158386D01*
X75544781Y-54340776D01*
X75481522Y-54535465D01*
X75449500Y-54737648D01*
X74009021Y-54737648D01*
X74014598Y-50639778D01*
X78349500Y-50639778D01*
X78349500Y-50860221D01*
X78383985Y-51077952D01*
X78452103Y-51287603D01*
X78452104Y-51287606D01*
X78520122Y-51421096D01*
X78546961Y-51473770D01*
X78552187Y-51484025D01*
X78681752Y-51662358D01*
X78681756Y-51662363D01*
X78837636Y-51818243D01*
X78837641Y-51818247D01*
X78993192Y-51931260D01*
X79015978Y-51947815D01*
X79144375Y-52013237D01*
X79212393Y-52047895D01*
X79212396Y-52047896D01*
X79317221Y-52081955D01*
X79422049Y-52116015D01*
X79639778Y-52150500D01*
X79639779Y-52150500D01*
X79860221Y-52150500D01*
X79860222Y-52150500D01*
X80077951Y-52116015D01*
X80287606Y-52047895D01*
X80484022Y-51947815D01*
X80662365Y-51818242D01*
X80818242Y-51662365D01*
X80947815Y-51484022D01*
X81047895Y-51287606D01*
X81116015Y-51077951D01*
X81150500Y-50860222D01*
X81150500Y-50639778D01*
X86349500Y-50639778D01*
X86349500Y-50860221D01*
X86383985Y-51077952D01*
X86452103Y-51287603D01*
X86452104Y-51287606D01*
X86520122Y-51421096D01*
X86546961Y-51473770D01*
X86552187Y-51484025D01*
X86681752Y-51662358D01*
X86681756Y-51662363D01*
X86837636Y-51818243D01*
X86837641Y-51818247D01*
X86993192Y-51931260D01*
X87015978Y-51947815D01*
X87144375Y-52013237D01*
X87212393Y-52047895D01*
X87212396Y-52047896D01*
X87317221Y-52081955D01*
X87422049Y-52116015D01*
X87639778Y-52150500D01*
X87639779Y-52150500D01*
X87860221Y-52150500D01*
X87860222Y-52150500D01*
X88077951Y-52116015D01*
X88287606Y-52047895D01*
X88484022Y-51947815D01*
X88662365Y-51818242D01*
X88818242Y-51662365D01*
X88947815Y-51484022D01*
X89047895Y-51287606D01*
X89116015Y-51077951D01*
X89150500Y-50860222D01*
X89150500Y-50639778D01*
X94349500Y-50639778D01*
X94349500Y-50860221D01*
X94383985Y-51077952D01*
X94452103Y-51287603D01*
X94452104Y-51287606D01*
X94520122Y-51421096D01*
X94546961Y-51473770D01*
X94552187Y-51484025D01*
X94681752Y-51662358D01*
X94681756Y-51662363D01*
X94837636Y-51818243D01*
X94837641Y-51818247D01*
X94993192Y-51931260D01*
X95015978Y-51947815D01*
X95144375Y-52013237D01*
X95212393Y-52047895D01*
X95212396Y-52047896D01*
X95317221Y-52081955D01*
X95422049Y-52116015D01*
X95639778Y-52150500D01*
X95639779Y-52150500D01*
X95860221Y-52150500D01*
X95860222Y-52150500D01*
X96077951Y-52116015D01*
X96287606Y-52047895D01*
X96484022Y-51947815D01*
X96662365Y-51818242D01*
X96818242Y-51662365D01*
X96947815Y-51484022D01*
X97047895Y-51287606D01*
X97116015Y-51077951D01*
X97150500Y-50860222D01*
X97150500Y-50639778D01*
X97116015Y-50422049D01*
X97047895Y-50212394D01*
X97047895Y-50212393D01*
X97000911Y-50120184D01*
X96947815Y-50015978D01*
X96905362Y-49957546D01*
X96883935Y-49928053D01*
X96883927Y-49928044D01*
X96830928Y-49855096D01*
X103199500Y-49855096D01*
X103199500Y-51055114D01*
X103199501Y-51055131D01*
X103210000Y-51157909D01*
X103210001Y-51157912D01*
X103252977Y-51287603D01*
X103265186Y-51324447D01*
X103357288Y-51473769D01*
X103481344Y-51597825D01*
X103630666Y-51689927D01*
X103797203Y-51745112D01*
X103899991Y-51755613D01*
X105100008Y-51755612D01*
X105202797Y-51745112D01*
X105369334Y-51689927D01*
X105518656Y-51597825D01*
X105642712Y-51473769D01*
X105734814Y-51324447D01*
X105789999Y-51157910D01*
X105800500Y-51055122D01*
X105800499Y-49855105D01*
X105799194Y-49842334D01*
X105789999Y-49752316D01*
X105789998Y-49752313D01*
X105779238Y-49719842D01*
X105734814Y-49585779D01*
X105642712Y-49436457D01*
X105518656Y-49312401D01*
X105369334Y-49220299D01*
X105307558Y-49199828D01*
X105250115Y-49160056D01*
X105223292Y-49095540D01*
X105222946Y-49072393D01*
X105225921Y-49034586D01*
X104546447Y-48355113D01*
X104552661Y-48355113D01*
X104654394Y-48327854D01*
X104745606Y-48275193D01*
X104820080Y-48200719D01*
X104872741Y-48109507D01*
X104900000Y-48007774D01*
X104900000Y-48001561D01*
X105579474Y-48681035D01*
X105579474Y-48681034D01*
X105606591Y-48643712D01*
X111909501Y-48643712D01*
X111909501Y-48856286D01*
X111942755Y-49066242D01*
X111992811Y-49220299D01*
X112008445Y-49268413D01*
X112104952Y-49457819D01*
X112229891Y-49629785D01*
X112380214Y-49780108D01*
X112552180Y-49905047D01*
X112552182Y-49905048D01*
X112552185Y-49905050D01*
X112741589Y-50001556D01*
X112943758Y-50067245D01*
X113153714Y-50100499D01*
X113153715Y-50100499D01*
X113366287Y-50100499D01*
X113366288Y-50100499D01*
X113576244Y-50067245D01*
X113778413Y-50001556D01*
X113967817Y-49905050D01*
X114036561Y-49855105D01*
X114139787Y-49780108D01*
X114139789Y-49780105D01*
X114139793Y-49780103D01*
X114290105Y-49629791D01*
X114290107Y-49629787D01*
X114290110Y-49629785D01*
X114415049Y-49457819D01*
X114415048Y-49457819D01*
X114415052Y-49457815D01*
X114419515Y-49449053D01*
X114467489Y-49398258D01*
X114535309Y-49381462D01*
X114601445Y-49403998D01*
X114640487Y-49449055D01*
X114644952Y-49457819D01*
X114769891Y-49629785D01*
X114920214Y-49780108D01*
X115092180Y-49905047D01*
X115092182Y-49905048D01*
X115092185Y-49905050D01*
X115281589Y-50001556D01*
X115483758Y-50067245D01*
X115693714Y-50100499D01*
X115693715Y-50100499D01*
X115906287Y-50100499D01*
X115906288Y-50100499D01*
X116116244Y-50067245D01*
X116318413Y-50001556D01*
X116507817Y-49905050D01*
X116576561Y-49855105D01*
X116679787Y-49780108D01*
X116679789Y-49780105D01*
X116679793Y-49780103D01*
X116830105Y-49629791D01*
X116830107Y-49629787D01*
X116830110Y-49629785D01*
X116955049Y-49457819D01*
X116955048Y-49457819D01*
X116955052Y-49457815D01*
X116959515Y-49449053D01*
X117007489Y-49398258D01*
X117075309Y-49381462D01*
X117141445Y-49403998D01*
X117180487Y-49449055D01*
X117184952Y-49457819D01*
X117309891Y-49629785D01*
X117460214Y-49780108D01*
X117632180Y-49905047D01*
X117632182Y-49905048D01*
X117632185Y-49905050D01*
X117821589Y-50001556D01*
X118023758Y-50067245D01*
X118233714Y-50100499D01*
X118233715Y-50100499D01*
X118446287Y-50100499D01*
X118446288Y-50100499D01*
X118656244Y-50067245D01*
X118858413Y-50001556D01*
X119047817Y-49905050D01*
X119116561Y-49855105D01*
X119219787Y-49780108D01*
X119219789Y-49780105D01*
X119219793Y-49780103D01*
X119370105Y-49629791D01*
X119370107Y-49629787D01*
X119370110Y-49629785D01*
X119495049Y-49457819D01*
X119495048Y-49457819D01*
X119495052Y-49457815D01*
X119499515Y-49449053D01*
X119547489Y-49398258D01*
X119615309Y-49381462D01*
X119681445Y-49403998D01*
X119720487Y-49449055D01*
X119724952Y-49457819D01*
X119849891Y-49629785D01*
X120000214Y-49780108D01*
X120172180Y-49905047D01*
X120172182Y-49905048D01*
X120172185Y-49905050D01*
X120361589Y-50001556D01*
X120563758Y-50067245D01*
X120773714Y-50100499D01*
X120773715Y-50100499D01*
X120986287Y-50100499D01*
X120986288Y-50100499D01*
X121196244Y-50067245D01*
X121398413Y-50001556D01*
X121587817Y-49905050D01*
X121656561Y-49855105D01*
X121759787Y-49780108D01*
X121759789Y-49780105D01*
X121759793Y-49780103D01*
X121910105Y-49629791D01*
X121910107Y-49629787D01*
X121910110Y-49629785D01*
X122035049Y-49457819D01*
X122035048Y-49457819D01*
X122035052Y-49457815D01*
X122039515Y-49449053D01*
X122087489Y-49398258D01*
X122155309Y-49381462D01*
X122221445Y-49403998D01*
X122260487Y-49449055D01*
X122264952Y-49457819D01*
X122389891Y-49629785D01*
X122540214Y-49780108D01*
X122712180Y-49905047D01*
X122712182Y-49905048D01*
X122712185Y-49905050D01*
X122901589Y-50001556D01*
X123103758Y-50067245D01*
X123313714Y-50100499D01*
X123313715Y-50100499D01*
X123526287Y-50100499D01*
X123526288Y-50100499D01*
X123736244Y-50067245D01*
X123938413Y-50001556D01*
X124127817Y-49905050D01*
X124196561Y-49855105D01*
X124299787Y-49780108D01*
X124299789Y-49780105D01*
X124299793Y-49780103D01*
X124450105Y-49629791D01*
X124450107Y-49629787D01*
X124450110Y-49629785D01*
X124575049Y-49457819D01*
X124575048Y-49457819D01*
X124575052Y-49457815D01*
X124579515Y-49449053D01*
X124627489Y-49398258D01*
X124695309Y-49381462D01*
X124761445Y-49403998D01*
X124800487Y-49449055D01*
X124804952Y-49457819D01*
X124929891Y-49629785D01*
X125080214Y-49780108D01*
X125252180Y-49905047D01*
X125252182Y-49905048D01*
X125252185Y-49905050D01*
X125441589Y-50001556D01*
X125643758Y-50067245D01*
X125853714Y-50100499D01*
X125853715Y-50100499D01*
X126066287Y-50100499D01*
X126066288Y-50100499D01*
X126276244Y-50067245D01*
X126478413Y-50001556D01*
X126667817Y-49905050D01*
X126736561Y-49855105D01*
X126839787Y-49780108D01*
X126839789Y-49780105D01*
X126839793Y-49780103D01*
X126990105Y-49629791D01*
X126990107Y-49629787D01*
X126990110Y-49629785D01*
X127115049Y-49457819D01*
X127115048Y-49457819D01*
X127115052Y-49457815D01*
X127119515Y-49449053D01*
X127167489Y-49398258D01*
X127235309Y-49381462D01*
X127301445Y-49403998D01*
X127340487Y-49449055D01*
X127344952Y-49457819D01*
X127469891Y-49629785D01*
X127620214Y-49780108D01*
X127792180Y-49905047D01*
X127792182Y-49905048D01*
X127792185Y-49905050D01*
X127981589Y-50001556D01*
X128183758Y-50067245D01*
X128393714Y-50100499D01*
X128393715Y-50100499D01*
X128540902Y-50100499D01*
X128607941Y-50120184D01*
X128653696Y-50172988D01*
X128663640Y-50242146D01*
X128634615Y-50305702D01*
X128628583Y-50312180D01*
X123077584Y-55863181D01*
X123016261Y-55896666D01*
X122989903Y-55899500D01*
X120579766Y-55899500D01*
X120512727Y-55879815D01*
X120510875Y-55878602D01*
X120379185Y-55790609D01*
X120379172Y-55790602D01*
X120233501Y-55730264D01*
X120233489Y-55730261D01*
X120078845Y-55699500D01*
X120078842Y-55699500D01*
X119921158Y-55699500D01*
X119921155Y-55699500D01*
X119766510Y-55730261D01*
X119766498Y-55730264D01*
X119620827Y-55790602D01*
X119620814Y-55790609D01*
X119489711Y-55878210D01*
X119489707Y-55878213D01*
X119378213Y-55989707D01*
X119378210Y-55989711D01*
X119290609Y-56120814D01*
X119290602Y-56120827D01*
X119230264Y-56266498D01*
X119230261Y-56266510D01*
X119199500Y-56421153D01*
X119199500Y-56578846D01*
X119230261Y-56733489D01*
X119230264Y-56733501D01*
X119290602Y-56879172D01*
X119290609Y-56879185D01*
X119378210Y-57010288D01*
X119378213Y-57010292D01*
X119489707Y-57121786D01*
X119489711Y-57121789D01*
X119620814Y-57209390D01*
X119620827Y-57209397D01*
X119708245Y-57245606D01*
X119766503Y-57269737D01*
X119921153Y-57300499D01*
X119921156Y-57300500D01*
X119921158Y-57300500D01*
X120078844Y-57300500D01*
X120078845Y-57300499D01*
X120233497Y-57269737D01*
X120379179Y-57209394D01*
X120379185Y-57209390D01*
X120510875Y-57121398D01*
X120577553Y-57100520D01*
X120579766Y-57100500D01*
X123203331Y-57100500D01*
X123203347Y-57100501D01*
X123210943Y-57100501D01*
X123369054Y-57100501D01*
X123369057Y-57100501D01*
X123521785Y-57059577D01*
X123571904Y-57030639D01*
X123658716Y-56980520D01*
X123770520Y-56868716D01*
X123770520Y-56868714D01*
X123780728Y-56858507D01*
X123780729Y-56858504D01*
X130502418Y-50136817D01*
X130563741Y-50103332D01*
X130590099Y-50100498D01*
X131937872Y-50100498D01*
X131937873Y-50100498D01*
X131997484Y-50094090D01*
X132132332Y-50043795D01*
X132247547Y-49957545D01*
X132333797Y-49842330D01*
X132384092Y-49707482D01*
X132390501Y-49647872D01*
X132390500Y-47852127D01*
X132384092Y-47792516D01*
X132383402Y-47790667D01*
X132333798Y-47657670D01*
X132333794Y-47657663D01*
X132247548Y-47542454D01*
X132247545Y-47542451D01*
X132132336Y-47456205D01*
X132132329Y-47456201D01*
X131997483Y-47405907D01*
X131997484Y-47405907D01*
X131937884Y-47399500D01*
X131937882Y-47399499D01*
X131937874Y-47399499D01*
X131937865Y-47399499D01*
X130142130Y-47399499D01*
X130142124Y-47399500D01*
X130082517Y-47405907D01*
X129947672Y-47456201D01*
X129947665Y-47456205D01*
X129832456Y-47542451D01*
X129832453Y-47542454D01*
X129746207Y-47657663D01*
X129746204Y-47657668D01*
X129697190Y-47789082D01*
X129655318Y-47845015D01*
X129589854Y-47869432D01*
X129521581Y-47854580D01*
X129493327Y-47833429D01*
X129379787Y-47719889D01*
X129207821Y-47594950D01*
X129018415Y-47498443D01*
X129018414Y-47498442D01*
X129018413Y-47498442D01*
X128816244Y-47432753D01*
X128816242Y-47432752D01*
X128816241Y-47432752D01*
X128654958Y-47407207D01*
X128606288Y-47399499D01*
X128393714Y-47399499D01*
X128345043Y-47407207D01*
X128183761Y-47432752D01*
X127981586Y-47498443D01*
X127792180Y-47594950D01*
X127620214Y-47719889D01*
X127469891Y-47870212D01*
X127344950Y-48042181D01*
X127340485Y-48050945D01*
X127292510Y-48101741D01*
X127224689Y-48118535D01*
X127158554Y-48095997D01*
X127119517Y-48050945D01*
X127115051Y-48042181D01*
X126990110Y-47870212D01*
X126839787Y-47719889D01*
X126667821Y-47594950D01*
X126478415Y-47498443D01*
X126478414Y-47498442D01*
X126478413Y-47498442D01*
X126276244Y-47432753D01*
X126276242Y-47432752D01*
X126276241Y-47432752D01*
X126114958Y-47407207D01*
X126066288Y-47399499D01*
X125853714Y-47399499D01*
X125805043Y-47407207D01*
X125643761Y-47432752D01*
X125441586Y-47498443D01*
X125252180Y-47594950D01*
X125080214Y-47719889D01*
X124929891Y-47870212D01*
X124804950Y-48042181D01*
X124800485Y-48050945D01*
X124752510Y-48101741D01*
X124684689Y-48118535D01*
X124618554Y-48095997D01*
X124579517Y-48050945D01*
X124575051Y-48042181D01*
X124450110Y-47870212D01*
X124299787Y-47719889D01*
X124127821Y-47594950D01*
X123938415Y-47498443D01*
X123938414Y-47498442D01*
X123938413Y-47498442D01*
X123736244Y-47432753D01*
X123736242Y-47432752D01*
X123736241Y-47432752D01*
X123574958Y-47407207D01*
X123526288Y-47399499D01*
X123313714Y-47399499D01*
X123265043Y-47407207D01*
X123103761Y-47432752D01*
X122901586Y-47498443D01*
X122712180Y-47594950D01*
X122540214Y-47719889D01*
X122389891Y-47870212D01*
X122264950Y-48042181D01*
X122260485Y-48050945D01*
X122212510Y-48101741D01*
X122144689Y-48118535D01*
X122078554Y-48095997D01*
X122039517Y-48050945D01*
X122035051Y-48042181D01*
X121910110Y-47870212D01*
X121759787Y-47719889D01*
X121587821Y-47594950D01*
X121398415Y-47498443D01*
X121398414Y-47498442D01*
X121398413Y-47498442D01*
X121196244Y-47432753D01*
X121196242Y-47432752D01*
X121196241Y-47432752D01*
X121034958Y-47407207D01*
X120986288Y-47399499D01*
X120773714Y-47399499D01*
X120725043Y-47407207D01*
X120563761Y-47432752D01*
X120361586Y-47498443D01*
X120172180Y-47594950D01*
X120000214Y-47719889D01*
X119849891Y-47870212D01*
X119724950Y-48042181D01*
X119720485Y-48050945D01*
X119672510Y-48101741D01*
X119604689Y-48118535D01*
X119538554Y-48095997D01*
X119499517Y-48050945D01*
X119495051Y-48042181D01*
X119370110Y-47870212D01*
X119219787Y-47719889D01*
X119047821Y-47594950D01*
X118858415Y-47498443D01*
X118858414Y-47498442D01*
X118858413Y-47498442D01*
X118656244Y-47432753D01*
X118656242Y-47432752D01*
X118656241Y-47432752D01*
X118494958Y-47407207D01*
X118446288Y-47399499D01*
X118233714Y-47399499D01*
X118185043Y-47407207D01*
X118023761Y-47432752D01*
X117821586Y-47498443D01*
X117632180Y-47594950D01*
X117460214Y-47719889D01*
X117309891Y-47870212D01*
X117184950Y-48042181D01*
X117180485Y-48050945D01*
X117132510Y-48101741D01*
X117064689Y-48118535D01*
X116998554Y-48095997D01*
X116959517Y-48050945D01*
X116955051Y-48042181D01*
X116830110Y-47870212D01*
X116679787Y-47719889D01*
X116507821Y-47594950D01*
X116318415Y-47498443D01*
X116318414Y-47498442D01*
X116318413Y-47498442D01*
X116116244Y-47432753D01*
X116116242Y-47432752D01*
X116116241Y-47432752D01*
X115954958Y-47407207D01*
X115906288Y-47399499D01*
X115693714Y-47399499D01*
X115645043Y-47407207D01*
X115483761Y-47432752D01*
X115281586Y-47498443D01*
X115092180Y-47594950D01*
X114920214Y-47719889D01*
X114769891Y-47870212D01*
X114644950Y-48042181D01*
X114640485Y-48050945D01*
X114592510Y-48101741D01*
X114524689Y-48118535D01*
X114458554Y-48095997D01*
X114419517Y-48050945D01*
X114415051Y-48042181D01*
X114290110Y-47870212D01*
X114139787Y-47719889D01*
X113967821Y-47594950D01*
X113778415Y-47498443D01*
X113778414Y-47498442D01*
X113778413Y-47498442D01*
X113576244Y-47432753D01*
X113576242Y-47432752D01*
X113576241Y-47432752D01*
X113414958Y-47407207D01*
X113366288Y-47399499D01*
X113153714Y-47399499D01*
X113105043Y-47407207D01*
X112943761Y-47432752D01*
X112741586Y-47498443D01*
X112552180Y-47594950D01*
X112380214Y-47719889D01*
X112229891Y-47870212D01*
X112104952Y-48042178D01*
X112008445Y-48231584D01*
X111942754Y-48433759D01*
X111919189Y-48582545D01*
X111909501Y-48643712D01*
X105606591Y-48643712D01*
X105611859Y-48636462D01*
X105639332Y-48582545D01*
X105704755Y-48454144D01*
X105767990Y-48259530D01*
X105800000Y-48057430D01*
X105800000Y-47852795D01*
X105767990Y-47650695D01*
X105704755Y-47456081D01*
X105611859Y-47273763D01*
X105579474Y-47229190D01*
X105579474Y-47229189D01*
X104900000Y-47908664D01*
X104900000Y-47902452D01*
X104872741Y-47800719D01*
X104820080Y-47709507D01*
X104745606Y-47635033D01*
X104654394Y-47582372D01*
X104552661Y-47555113D01*
X104546446Y-47555113D01*
X105225922Y-46875637D01*
X105225921Y-46875636D01*
X105181359Y-46843260D01*
X105181350Y-46843254D01*
X104999031Y-46750357D01*
X104804417Y-46687122D01*
X104602317Y-46655113D01*
X104397683Y-46655113D01*
X104195582Y-46687122D01*
X104000968Y-46750357D01*
X103818644Y-46843256D01*
X103774077Y-46875636D01*
X103774077Y-46875637D01*
X104453554Y-47555113D01*
X104447339Y-47555113D01*
X104345606Y-47582372D01*
X104254394Y-47635033D01*
X104179920Y-47709507D01*
X104127259Y-47800719D01*
X104100000Y-47902452D01*
X104100000Y-47908666D01*
X103420524Y-47229190D01*
X103420523Y-47229190D01*
X103388143Y-47273757D01*
X103295244Y-47456081D01*
X103232009Y-47650695D01*
X103200000Y-47852795D01*
X103200000Y-48057430D01*
X103232009Y-48259530D01*
X103295244Y-48454144D01*
X103388141Y-48636463D01*
X103388147Y-48636472D01*
X103420523Y-48681034D01*
X103420524Y-48681035D01*
X104100000Y-48001559D01*
X104100000Y-48007774D01*
X104127259Y-48109507D01*
X104179920Y-48200719D01*
X104254394Y-48275193D01*
X104345606Y-48327854D01*
X104447339Y-48355113D01*
X104453553Y-48355113D01*
X103774076Y-49034587D01*
X103777052Y-49072395D01*
X103762687Y-49140772D01*
X103713636Y-49190528D01*
X103692440Y-49199828D01*
X103630672Y-49220297D01*
X103630663Y-49220300D01*
X103481342Y-49312402D01*
X103357289Y-49436455D01*
X103265187Y-49585776D01*
X103265185Y-49585781D01*
X103250604Y-49629785D01*
X103210001Y-49752316D01*
X103210001Y-49752317D01*
X103210000Y-49752317D01*
X103199500Y-49855096D01*
X96830928Y-49855096D01*
X96818242Y-49837635D01*
X96763606Y-49782999D01*
X96759927Y-49778564D01*
X96748289Y-49751558D01*
X96734198Y-49725753D01*
X96734620Y-49719842D01*
X96732275Y-49714399D01*
X96737084Y-49685390D01*
X96739182Y-49656061D01*
X96742733Y-49651316D01*
X96743703Y-49645471D01*
X96763431Y-49623667D01*
X96781054Y-49600128D01*
X96788324Y-49596157D01*
X96790583Y-49593662D01*
X96795163Y-49592423D01*
X96812031Y-49583213D01*
X96892086Y-49553354D01*
X96892093Y-49553350D01*
X97007187Y-49467190D01*
X97007190Y-49467187D01*
X97093350Y-49352093D01*
X97093354Y-49352086D01*
X97143596Y-49217379D01*
X97143598Y-49217372D01*
X97149999Y-49157844D01*
X97150000Y-49157827D01*
X97150000Y-48460000D01*
X96125278Y-48460000D01*
X96169333Y-48383694D01*
X96200000Y-48269244D01*
X96200000Y-48150756D01*
X96169333Y-48036306D01*
X96125278Y-47960000D01*
X97150000Y-47960000D01*
X97150000Y-47262172D01*
X97149999Y-47262155D01*
X97143598Y-47202627D01*
X97143596Y-47202620D01*
X97093354Y-47067913D01*
X97093352Y-47067910D01*
X97040424Y-46997208D01*
X97040423Y-46997207D01*
X97007186Y-46952808D01*
X96892093Y-46866649D01*
X96892086Y-46866645D01*
X96757379Y-46816403D01*
X96757372Y-46816401D01*
X96697844Y-46810000D01*
X96000000Y-46810000D01*
X96000000Y-47834722D01*
X95923694Y-47790667D01*
X95809244Y-47760000D01*
X95690756Y-47760000D01*
X95576306Y-47790667D01*
X95500000Y-47834722D01*
X95500000Y-46810000D01*
X94802155Y-46810000D01*
X94742627Y-46816401D01*
X94742620Y-46816403D01*
X94607913Y-46866645D01*
X94607906Y-46866649D01*
X94492812Y-46952809D01*
X94492809Y-46952812D01*
X94406649Y-47067906D01*
X94406645Y-47067913D01*
X94356403Y-47202620D01*
X94356401Y-47202627D01*
X94350000Y-47262155D01*
X94350000Y-47960000D01*
X95374722Y-47960000D01*
X95330667Y-48036306D01*
X95300000Y-48150756D01*
X95300000Y-48269244D01*
X95330667Y-48383694D01*
X95374722Y-48460000D01*
X94350000Y-48460000D01*
X94350000Y-49157844D01*
X94356401Y-49217372D01*
X94356403Y-49217379D01*
X94406645Y-49352086D01*
X94406649Y-49352093D01*
X94492809Y-49467187D01*
X94492812Y-49467190D01*
X94607906Y-49553350D01*
X94607913Y-49553354D01*
X94687968Y-49583213D01*
X94743902Y-49625084D01*
X94768319Y-49690549D01*
X94753467Y-49758822D01*
X94732317Y-49787075D01*
X94681756Y-49837636D01*
X94681752Y-49837641D01*
X94552187Y-50015974D01*
X94452104Y-50212393D01*
X94452103Y-50212396D01*
X94383985Y-50422047D01*
X94349500Y-50639778D01*
X89150500Y-50639778D01*
X89116015Y-50422049D01*
X89047895Y-50212394D01*
X89047895Y-50212393D01*
X89000911Y-50120184D01*
X88947815Y-50015978D01*
X88867222Y-49905050D01*
X88818247Y-49837641D01*
X88818243Y-49837636D01*
X88767683Y-49787076D01*
X88734198Y-49725753D01*
X88739182Y-49656061D01*
X88781054Y-49600128D01*
X88812031Y-49583213D01*
X88892086Y-49553354D01*
X88892093Y-49553350D01*
X89007187Y-49467190D01*
X89007190Y-49467187D01*
X89093350Y-49352093D01*
X89093354Y-49352086D01*
X89143596Y-49217379D01*
X89143598Y-49217372D01*
X89149999Y-49157844D01*
X89150000Y-49157827D01*
X89150000Y-48460000D01*
X88125278Y-48460000D01*
X88169333Y-48383694D01*
X88200000Y-48269244D01*
X88200000Y-48150756D01*
X88169333Y-48036306D01*
X88125278Y-47960000D01*
X89150000Y-47960000D01*
X89150000Y-47262172D01*
X89149999Y-47262155D01*
X89143598Y-47202627D01*
X89143596Y-47202620D01*
X89093354Y-47067913D01*
X89093350Y-47067906D01*
X89007190Y-46952812D01*
X89007187Y-46952809D01*
X88892093Y-46866649D01*
X88892086Y-46866645D01*
X88757379Y-46816403D01*
X88757372Y-46816401D01*
X88697844Y-46810000D01*
X88000000Y-46810000D01*
X88000000Y-47834722D01*
X87923694Y-47790667D01*
X87809244Y-47760000D01*
X87690756Y-47760000D01*
X87576306Y-47790667D01*
X87500000Y-47834722D01*
X87500000Y-46810000D01*
X86802155Y-46810000D01*
X86742627Y-46816401D01*
X86742620Y-46816403D01*
X86607913Y-46866645D01*
X86607906Y-46866649D01*
X86492812Y-46952809D01*
X86492809Y-46952812D01*
X86406649Y-47067906D01*
X86406645Y-47067913D01*
X86356403Y-47202620D01*
X86356401Y-47202627D01*
X86350000Y-47262155D01*
X86350000Y-47960000D01*
X87374722Y-47960000D01*
X87330667Y-48036306D01*
X87300000Y-48150756D01*
X87300000Y-48269244D01*
X87330667Y-48383694D01*
X87374722Y-48460000D01*
X86350000Y-48460000D01*
X86350000Y-49157844D01*
X86356401Y-49217372D01*
X86356403Y-49217379D01*
X86406645Y-49352086D01*
X86406649Y-49352093D01*
X86492809Y-49467187D01*
X86492812Y-49467190D01*
X86607906Y-49553350D01*
X86607913Y-49553354D01*
X86687968Y-49583213D01*
X86743902Y-49625084D01*
X86768319Y-49690549D01*
X86753467Y-49758822D01*
X86732317Y-49787075D01*
X86681756Y-49837636D01*
X86681752Y-49837641D01*
X86552187Y-50015974D01*
X86452104Y-50212393D01*
X86452103Y-50212396D01*
X86383985Y-50422047D01*
X86349500Y-50639778D01*
X81150500Y-50639778D01*
X81116015Y-50422049D01*
X81047895Y-50212394D01*
X81047895Y-50212393D01*
X81000911Y-50120184D01*
X80947815Y-50015978D01*
X80867222Y-49905050D01*
X80818247Y-49837641D01*
X80818243Y-49837636D01*
X80767683Y-49787076D01*
X80734198Y-49725753D01*
X80739182Y-49656061D01*
X80781054Y-49600128D01*
X80812031Y-49583213D01*
X80892086Y-49553354D01*
X80892093Y-49553350D01*
X81007187Y-49467190D01*
X81007190Y-49467187D01*
X81093350Y-49352093D01*
X81093354Y-49352086D01*
X81143596Y-49217379D01*
X81143598Y-49217372D01*
X81149999Y-49157844D01*
X81150000Y-49157827D01*
X81150000Y-48460000D01*
X80125278Y-48460000D01*
X80169333Y-48383694D01*
X80200000Y-48269244D01*
X80200000Y-48150756D01*
X80169333Y-48036306D01*
X80125278Y-47960000D01*
X81150000Y-47960000D01*
X81150000Y-47262172D01*
X81149999Y-47262155D01*
X81143598Y-47202627D01*
X81143596Y-47202620D01*
X81093354Y-47067913D01*
X81093350Y-47067906D01*
X81007190Y-46952812D01*
X81007187Y-46952809D01*
X80892093Y-46866649D01*
X80892086Y-46866645D01*
X80757379Y-46816403D01*
X80757372Y-46816401D01*
X80697844Y-46810000D01*
X80000000Y-46810000D01*
X80000000Y-47834722D01*
X79923694Y-47790667D01*
X79809244Y-47760000D01*
X79690756Y-47760000D01*
X79576306Y-47790667D01*
X79500000Y-47834722D01*
X79500000Y-46810000D01*
X78802155Y-46810000D01*
X78742627Y-46816401D01*
X78742620Y-46816403D01*
X78607913Y-46866645D01*
X78607906Y-46866649D01*
X78492812Y-46952809D01*
X78492809Y-46952812D01*
X78406649Y-47067906D01*
X78406645Y-47067913D01*
X78356403Y-47202620D01*
X78356401Y-47202627D01*
X78350000Y-47262155D01*
X78350000Y-47960000D01*
X79374722Y-47960000D01*
X79330667Y-48036306D01*
X79300000Y-48150756D01*
X79300000Y-48269244D01*
X79330667Y-48383694D01*
X79374722Y-48460000D01*
X78350000Y-48460000D01*
X78350000Y-49157844D01*
X78356401Y-49217372D01*
X78356403Y-49217379D01*
X78406645Y-49352086D01*
X78406649Y-49352093D01*
X78492809Y-49467187D01*
X78492812Y-49467190D01*
X78607906Y-49553350D01*
X78607913Y-49553354D01*
X78687968Y-49583213D01*
X78743902Y-49625084D01*
X78768319Y-49690549D01*
X78753467Y-49758822D01*
X78732317Y-49787075D01*
X78681756Y-49837636D01*
X78681752Y-49837641D01*
X78552187Y-50015974D01*
X78452104Y-50212393D01*
X78452103Y-50212396D01*
X78383985Y-50422047D01*
X78349500Y-50639778D01*
X74014598Y-50639778D01*
X74021843Y-45315689D01*
X74041619Y-45248680D01*
X74094485Y-45202997D01*
X74124290Y-45193749D01*
X104089230Y-39905813D01*
X104132320Y-39905813D01*
X134147050Y-45202535D01*
G37*
%TD.AperFunction*%
%TD*%
M02*
