%TF.GenerationSoftware,KiCad,Pcbnew,10.0.5-1.fc44*%
%TF.CreationDate,2026-08-14T22:09:26+02:00*%
%TF.ProjectId,QuakeGuard_PCB,5175616b-6547-4756-9172-645f5043422e,rev?*%
%TF.SameCoordinates,Original*%
%TF.FileFunction,Copper,L1,Top*%
%TF.FilePolarity,Positive*%
%FSLAX46Y46*%
G04 Gerber Fmt 4.6, Leading zero omitted, Abs format (unit mm)*
G04 Created by KiCad (PCBNEW 10.0.5-1.fc44) date 2026-08-14 22:09:26*
%MOMM*%
%LPD*%
G01*
G04 APERTURE LIST*
G04 Aperture macros list*
%AMRoundRect*
0 Rectangle with rounded corners*
0 $1 Rounding radius*
0 $2 $3 $4 $5 $6 $7 $8 $9 X,Y pos of 4 corners*
0 Add a 4 corners polygon primitive as box body*
4,1,4,$2,$3,$4,$5,$6,$7,$8,$9,$2,$3,0*
0 Add four circle primitives for the rounded corners*
1,1,$1+$1,$2,$3*
1,1,$1+$1,$4,$5*
1,1,$1+$1,$6,$7*
1,1,$1+$1,$8,$9*
0 Add four rect primitives between the rounded corners*
20,1,$1+$1,$2,$3,$4,$5,0*
20,1,$1+$1,$4,$5,$6,$7,0*
20,1,$1+$1,$6,$7,$8,$9,0*
20,1,$1+$1,$8,$9,$2,$3,0*%
G04 Aperture macros list end*
%TA.AperFunction,ComponentPad*%
%ADD10R,1.700000X1.700000*%
%TD*%
%TA.AperFunction,ComponentPad*%
%ADD11C,1.700000*%
%TD*%
%TA.AperFunction,ComponentPad*%
%ADD12C,6.400000*%
%TD*%
%TA.AperFunction,ComponentPad*%
%ADD13RoundRect,0.250000X0.550000X-0.550000X0.550000X0.550000X-0.550000X0.550000X-0.550000X-0.550000X0*%
%TD*%
%TA.AperFunction,ComponentPad*%
%ADD14C,1.600000*%
%TD*%
%TA.AperFunction,ComponentPad*%
%ADD15R,1.800000X1.800000*%
%TD*%
%TA.AperFunction,ComponentPad*%
%ADD16C,1.800000*%
%TD*%
%TA.AperFunction,ComponentPad*%
%ADD17C,8.600000*%
%TD*%
%TA.AperFunction,ComponentPad*%
%ADD18RoundRect,0.250000X0.550000X0.550000X-0.550000X0.550000X-0.550000X-0.550000X0.550000X-0.550000X0*%
%TD*%
%TA.AperFunction,ViaPad*%
%ADD19C,0.600000*%
%TD*%
%TA.AperFunction,Conductor*%
%ADD20C,0.200000*%
%TD*%
%TA.AperFunction,Conductor*%
%ADD21C,0.600000*%
%TD*%
%TA.AperFunction,Conductor*%
%ADD22C,0.500000*%
%TD*%
G04 APERTURE END LIST*
D10*
%TO.P,J4,1,Pin_1_1*%
%TO.N,5V_USB*%
X89190000Y-94960000D03*
D11*
%TO.P,J4,2,Pin_2_2*%
%TO.N,GND*%
X89190000Y-97500000D03*
%TO.P,J4,3,Pin_3_3*%
%TO.N,GPIO_5*%
X89190000Y-100040000D03*
%TO.P,J4,4,Pin_4_4*%
%TO.N,GPIO_4*%
X89190000Y-102580000D03*
%TO.P,J4,5,Pin_5_5*%
%TO.N,GPIO_2*%
X89190000Y-105120000D03*
%TD*%
D12*
%TO.P,REF\u002A\u002A,1*%
%TO.N,N/C*%
X107280000Y-68450000D03*
%TD*%
D13*
%TO.P,C1,1*%
%TO.N,5V_USB*%
X104500000Y-50455113D03*
D14*
%TO.P,C1,2*%
%TO.N,GND*%
X104500000Y-47955113D03*
%TD*%
D10*
%TO.P,J1,1,Pin_1_1*%
%TO.N,GPIO_5*%
X131040001Y-48749999D03*
D11*
%TO.P,J1,2,Pin_2_2*%
%TO.N,unconnected-(J1-Pin_2-Pad2)*%
X128500001Y-48749999D03*
%TO.P,J1,3,Pin_3_3*%
%TO.N,GPIO_7*%
X125960001Y-48749999D03*
%TO.P,J1,4,Pin_4_4*%
%TO.N,GPIO_8*%
X123420001Y-48749999D03*
%TO.P,J1,5,Pin_5_5*%
%TO.N,unconnected-(J1-Pin_5-Pad5)*%
X120880001Y-48749999D03*
%TO.P,J1,6,Pin_6_6*%
%TO.N,GPIO_10*%
X118340001Y-48749999D03*
%TO.P,J1,7,Pin_7_7*%
%TO.N,unconnected-(J1-Pin_7-Pad7)*%
X115800001Y-48749999D03*
%TO.P,J1,8,Pin_8_8*%
%TO.N,unconnected-(J1-Pin_8-Pad8)*%
X113260001Y-48749999D03*
%TD*%
D15*
%TO.P,D1,1,K_1*%
%TO.N,GND*%
X95750000Y-48210000D03*
D16*
%TO.P,D1,2,A_2*%
%TO.N,Net-(D1-A)*%
X95750000Y-50750000D03*
%TD*%
D14*
%TO.P,R3,1*%
%TO.N,GPIO_3*%
X76750000Y-65000000D03*
%TO.P,R3,2*%
%TO.N,Net-(D3-A)*%
X76750000Y-54840000D03*
%TD*%
%TO.P,R2,1*%
%TO.N,GPIO_10*%
X81500000Y-65080000D03*
%TO.P,R2,2*%
%TO.N,Net-(D2-A)*%
X81500000Y-54920000D03*
%TD*%
%TO.P,R1,1*%
%TO.N,3.3V*%
X86250000Y-65250000D03*
%TO.P,R1,2*%
%TO.N,Net-(D1-A)*%
X86250000Y-55090000D03*
%TD*%
D15*
%TO.P,D3,1,K_1*%
%TO.N,GND*%
X79750000Y-48210000D03*
D16*
%TO.P,D3,2,A_2*%
%TO.N,Net-(D3-A)*%
X79750000Y-50750000D03*
%TD*%
D17*
%TO.P,REF\u002A\u002A,1*%
%TO.N,N/C*%
X119250000Y-90250000D03*
%TD*%
D10*
%TO.P,J2,1,Pin_1_1*%
%TO.N,5V_USB*%
X131040001Y-63989999D03*
D11*
%TO.P,J2,2,Pin_2_2*%
%TO.N,GND*%
X128500001Y-63989999D03*
%TO.P,J2,3,Pin_3_3*%
%TO.N,3.3V*%
X125960001Y-63989999D03*
%TO.P,J2,4,Pin_4_4*%
%TO.N,GPIO_4*%
X123420001Y-63989999D03*
%TO.P,J2,5,Pin_5_5*%
%TO.N,GPIO_3*%
X120880001Y-63989999D03*
%TO.P,J2,6,Pin_6_6*%
%TO.N,GPIO_2*%
X118340001Y-63989999D03*
%TO.P,J2,7,Pin_7_7*%
%TO.N,unconnected-(J2-Pin_7-Pad7)*%
X115800001Y-63989999D03*
%TO.P,J2,8,Pin_8_8*%
%TO.N,unconnected-(J2-Pin_8-Pad8)*%
X113260001Y-63989999D03*
%TD*%
D12*
%TO.P,REF\u002A\u002A,1*%
%TO.N,N/C*%
X107280000Y-82950000D03*
%TD*%
D10*
%TO.P,J3,1,Pin_1_1*%
%TO.N,GND*%
X95020000Y-66950000D03*
D11*
%TO.P,J3,2,Pin_2_2*%
%TO.N,3.3V*%
X95020000Y-69490000D03*
%TO.P,J3,3,Pin_3_3*%
X95020000Y-72030000D03*
%TO.P,J3,4,Pin_4_4*%
%TO.N,unconnected-(J3-Pin_4-Pad4)*%
X95020000Y-74570000D03*
%TO.P,J3,5,Pin_5_5*%
%TO.N,unconnected-(J3-Pin_5-Pad5)*%
X95020000Y-77110000D03*
%TO.P,J3,6,Pin_6_6*%
%TO.N,GND*%
X95020000Y-79650000D03*
%TO.P,J3,7,Pin_7_7*%
%TO.N,GPIO_7*%
X95020000Y-82190000D03*
%TO.P,J3,8,Pin_8_8*%
%TO.N,GPIO_8*%
X95020000Y-84730000D03*
%TD*%
D15*
%TO.P,D2,1,K_1*%
%TO.N,GND*%
X87750000Y-48210000D03*
D16*
%TO.P,D2,2,A_2*%
%TO.N,Net-(D2-A)*%
X87750000Y-50750000D03*
%TD*%
D18*
%TO.P,C3,1*%
%TO.N,3.3V*%
X104140000Y-119380000D03*
D14*
%TO.P,C3,2*%
%TO.N,GND*%
X101640000Y-119380000D03*
%TD*%
%TO.P,C2,1*%
%TO.N,3.3V*%
X95000000Y-62000000D03*
%TO.P,C2,2*%
%TO.N,GND*%
X95000000Y-57000000D03*
%TD*%
D17*
%TO.P,REF\u002A\u002A,1*%
%TO.N,N/C*%
X119250000Y-109750000D03*
%TD*%
D19*
%TO.N,GND*%
X94250000Y-119250000D03*
X130250000Y-56250000D03*
X101250000Y-92000000D03*
X111250000Y-100750000D03*
X80000000Y-108000000D03*
X80000000Y-99000000D03*
X80250000Y-90750000D03*
%TO.N,5V_USB*%
X115250000Y-55250000D03*
X125500000Y-99750000D03*
X110750000Y-55250000D03*
X132750000Y-82750000D03*
%TO.N,GPIO_5*%
X106750000Y-96000000D03*
X120000000Y-56500000D03*
X110000000Y-92750000D03*
X109250000Y-62250000D03*
X112000000Y-73250000D03*
%TO.N,GPIO_4*%
X107500000Y-96750000D03*
X110500000Y-93750000D03*
%TO.N,GPIO_8*%
X100750000Y-78750000D03*
X100750000Y-75000000D03*
%TO.N,GPIO_10*%
X111750000Y-53750000D03*
X109000000Y-55000000D03*
X92750000Y-64000000D03*
X91000000Y-68000000D03*
%TO.N,GPIO_3*%
X105750000Y-53750000D03*
X90250000Y-62500000D03*
X82750000Y-67750000D03*
X116500000Y-61000000D03*
%TO.N,3.3V*%
X105500000Y-59750000D03*
X97750000Y-66760000D03*
X97750000Y-64750000D03*
X111000000Y-59750000D03*
%TD*%
%TO.N,GPIO_4*%
D20*
X123420001Y-63989999D02*
X116910000Y-70500000D01*
X116910000Y-70500000D02*
X116000000Y-70500000D01*
X116000000Y-70500000D02*
X112500000Y-74000000D01*
X112500000Y-74000000D02*
X112500000Y-91750000D01*
X112500000Y-91750000D02*
X110500000Y-93750000D01*
%TO.N,GPIO_2*%
X101750000Y-79250000D02*
X103000000Y-78000000D01*
X101750000Y-82440000D02*
X101750000Y-79250000D01*
X87000000Y-93000000D02*
X91190000Y-93000000D01*
X91190000Y-93000000D02*
X101750000Y-82440000D01*
X87000000Y-102930000D02*
X87000000Y-93000000D01*
X89190000Y-105120000D02*
X87000000Y-102930000D01*
X103000000Y-78000000D02*
X104330000Y-78000000D01*
X104330000Y-78000000D02*
X118340001Y-63989999D01*
%TO.N,5V_USB*%
D21*
X110750000Y-55250000D02*
X105955113Y-50455113D01*
X125500000Y-99750000D02*
X122630000Y-102620000D01*
X122300002Y-55250000D02*
X115250000Y-55250000D01*
X131040001Y-63989999D02*
X122300002Y-55250000D01*
X122630000Y-102620000D02*
X114970000Y-94960000D01*
X114970000Y-94960000D02*
X89190000Y-94960000D01*
X105955113Y-50455113D02*
X104500000Y-50455113D01*
X132750000Y-65699998D02*
X132750000Y-82750000D01*
X131040001Y-63989999D02*
X132750000Y-65699998D01*
%TO.N,GPIO_5*%
D20*
X102710000Y-100040000D02*
X89190000Y-100040000D01*
X112000000Y-90750000D02*
X110000000Y-92750000D01*
X113401471Y-56500000D02*
X120000000Y-56500000D01*
X109250000Y-60651471D02*
X113401471Y-56500000D01*
X109250000Y-62250000D02*
X109250000Y-60651471D01*
X106750000Y-96000000D02*
X102710000Y-100040000D01*
X112000000Y-73250000D02*
X112000000Y-90750000D01*
%TO.N,GPIO_4*%
X101670000Y-102580000D02*
X89190000Y-102580000D01*
X107500000Y-96750000D02*
X101670000Y-102580000D01*
%TO.N,GPIO_7*%
X116000000Y-52750000D02*
X121960000Y-52750000D01*
X102250000Y-66500000D02*
X116000000Y-52750000D01*
X121960000Y-52750000D02*
X125960001Y-48749999D01*
X102250000Y-74960000D02*
X102250000Y-66500000D01*
X95020000Y-82190000D02*
X102250000Y-74960000D01*
%TO.N,GPIO_8*%
X100750000Y-75000000D02*
X100750000Y-67250000D01*
X95020000Y-84730000D02*
X100750000Y-79000000D01*
X100750000Y-79000000D02*
X100750000Y-78750000D01*
X100750000Y-67250000D02*
X116000000Y-52000000D01*
X116000000Y-52000000D02*
X120170000Y-52000000D01*
X120170000Y-52000000D02*
X123420001Y-48749999D01*
%TO.N,GPIO_10*%
X92750000Y-62500000D02*
X91000000Y-60750000D01*
X93500000Y-55000000D02*
X109000000Y-55000000D01*
X111750000Y-53750000D02*
X113340000Y-53750000D01*
X113340000Y-53750000D02*
X118340001Y-48749999D01*
X91000000Y-57500000D02*
X93500000Y-55000000D01*
X84420000Y-68000000D02*
X91000000Y-68000000D01*
X91000000Y-60750000D02*
X91000000Y-57500000D01*
X81500000Y-65080000D02*
X84420000Y-68000000D01*
X92750000Y-64000000D02*
X92750000Y-62500000D01*
%TO.N,Net-(D1-A)*%
X86250000Y-55090000D02*
X91410000Y-55090000D01*
X91410000Y-55090000D02*
X95750000Y-50750000D01*
%TO.N,GPIO_3*%
X90250000Y-57500000D02*
X94000000Y-53750000D01*
X94000000Y-53750000D02*
X105750000Y-53750000D01*
X117890002Y-61000000D02*
X120880001Y-63989999D01*
X76750000Y-65000000D02*
X76750000Y-66500000D01*
X76750000Y-66500000D02*
X78000000Y-67750000D01*
X116500000Y-61000000D02*
X117890002Y-61000000D01*
X90250000Y-62500000D02*
X90250000Y-57500000D01*
X78000000Y-67750000D02*
X82750000Y-67750000D01*
%TO.N,Net-(D3-A)*%
X79750000Y-51840000D02*
X79750000Y-50750000D01*
X76750000Y-54840000D02*
X79750000Y-51840000D01*
%TO.N,Net-(D2-A)*%
X81500000Y-54920000D02*
X83580000Y-54920000D01*
X83580000Y-54920000D02*
X87750000Y-50750000D01*
%TO.N,3.3V*%
D22*
X88500000Y-64250000D02*
X87250000Y-64250000D01*
X97750000Y-69300000D02*
X95020000Y-72030000D01*
X94250000Y-64250000D02*
X93250000Y-65250000D01*
X125960001Y-63989999D02*
X128970002Y-67000000D01*
X100000000Y-62000000D02*
X97750000Y-64250000D01*
X93250000Y-65250000D02*
X89250000Y-65250000D01*
X125960001Y-63989999D02*
X121720002Y-59750000D01*
X100000000Y-62000000D02*
X95000000Y-62000000D01*
X87250000Y-64250000D02*
X86250000Y-65250000D01*
X88750000Y-64500000D02*
X88500000Y-64250000D01*
X89250000Y-65250000D02*
X88750000Y-64750000D01*
X117370000Y-119380000D02*
X104140000Y-119380000D01*
X103250000Y-62000000D02*
X100000000Y-62000000D01*
X121720002Y-59750000D02*
X111000000Y-59750000D01*
X97750000Y-64250000D02*
X97750000Y-64750000D01*
X128970002Y-67000000D02*
X131750000Y-67000000D01*
X105500000Y-59750000D02*
X103250000Y-62000000D01*
X97750000Y-66760000D02*
X97750000Y-69300000D01*
X131750000Y-105000000D02*
X117370000Y-119380000D01*
X131750000Y-67000000D02*
X131750000Y-105000000D01*
X97750000Y-66760000D02*
X95020000Y-69490000D01*
X97750000Y-64250000D02*
X94250000Y-64250000D01*
X88750000Y-64750000D02*
X88750000Y-64500000D01*
%TD*%
%TA.AperFunction,Conductor*%
%TO.N,GND*%
G36*
X87805703Y-97575956D02*
G01*
X87843477Y-97634734D01*
X87846973Y-97650271D01*
X87873242Y-97816127D01*
X87873242Y-97816130D01*
X87938904Y-98018217D01*
X88035375Y-98207550D01*
X88074728Y-98261716D01*
X88707037Y-97629408D01*
X88724075Y-97692993D01*
X88789901Y-97807007D01*
X88882993Y-97900099D01*
X88997007Y-97965925D01*
X89060590Y-97982962D01*
X88428282Y-98615269D01*
X88428282Y-98615270D01*
X88482452Y-98654626D01*
X88482451Y-98654626D01*
X88491495Y-98659234D01*
X88542292Y-98707208D01*
X88559087Y-98775029D01*
X88536550Y-98841164D01*
X88491499Y-98880202D01*
X88482182Y-98884949D01*
X88310213Y-99009890D01*
X88159890Y-99160213D01*
X88034951Y-99332179D01*
X87938444Y-99521585D01*
X87872753Y-99723760D01*
X87846973Y-99886531D01*
X87817044Y-99949666D01*
X87757732Y-99986597D01*
X87687870Y-99985599D01*
X87629637Y-99946989D01*
X87601523Y-99883026D01*
X87600500Y-99867133D01*
X87600500Y-97669669D01*
X87620185Y-97602630D01*
X87672989Y-97556875D01*
X87742147Y-97546931D01*
X87805703Y-97575956D01*
G37*
%TD.AperFunction*%
%TA.AperFunction,Conductor*%
G36*
X105897401Y-95780185D02*
G01*
X105943156Y-95832989D01*
X105953100Y-95902147D01*
X105951979Y-95908692D01*
X105949362Y-95921848D01*
X105916977Y-95983759D01*
X105915426Y-95985337D01*
X102497584Y-99403181D01*
X102436261Y-99436666D01*
X102409903Y-99439500D01*
X90475719Y-99439500D01*
X90408680Y-99419815D01*
X90365235Y-99371795D01*
X90345052Y-99332185D01*
X90345051Y-99332184D01*
X90220109Y-99160213D01*
X90069786Y-99009890D01*
X89897817Y-98884949D01*
X89888504Y-98880204D01*
X89837707Y-98832230D01*
X89820912Y-98764409D01*
X89843449Y-98698274D01*
X89888507Y-98659232D01*
X89897555Y-98654622D01*
X89951716Y-98615270D01*
X89951717Y-98615270D01*
X89319408Y-97982962D01*
X89382993Y-97965925D01*
X89497007Y-97900099D01*
X89590099Y-97807007D01*
X89655925Y-97692993D01*
X89672962Y-97629408D01*
X90305270Y-98261717D01*
X90305270Y-98261716D01*
X90344622Y-98207554D01*
X90441095Y-98018217D01*
X90506757Y-97816130D01*
X90506757Y-97816127D01*
X90540000Y-97606246D01*
X90540000Y-97393753D01*
X90506757Y-97183872D01*
X90506757Y-97183869D01*
X90441095Y-96981782D01*
X90344624Y-96792449D01*
X90305270Y-96738282D01*
X90305269Y-96738282D01*
X89672962Y-97370590D01*
X89655925Y-97307007D01*
X89590099Y-97192993D01*
X89497007Y-97099901D01*
X89382993Y-97034075D01*
X89319409Y-97017037D01*
X89989627Y-96346818D01*
X90050950Y-96313333D01*
X90077307Y-96310499D01*
X90087872Y-96310499D01*
X90147483Y-96304091D01*
X90282331Y-96253796D01*
X90397546Y-96167546D01*
X90483796Y-96052331D01*
X90534091Y-95917483D01*
X90539062Y-95871242D01*
X90565799Y-95806694D01*
X90623191Y-95766846D01*
X90662351Y-95760500D01*
X105830362Y-95760500D01*
X105897401Y-95780185D01*
G37*
%TD.AperFunction*%
%TA.AperFunction,Conductor*%
G36*
X87805703Y-95849187D02*
G01*
X87843477Y-95907965D01*
X87845177Y-95914385D01*
X87845909Y-95917484D01*
X87896202Y-96052328D01*
X87896206Y-96052335D01*
X87982452Y-96167544D01*
X87982455Y-96167547D01*
X88097664Y-96253793D01*
X88097671Y-96253797D01*
X88142618Y-96270561D01*
X88232517Y-96304091D01*
X88292127Y-96310500D01*
X88302685Y-96310499D01*
X88369723Y-96330179D01*
X88390372Y-96346818D01*
X89060591Y-97017037D01*
X88997007Y-97034075D01*
X88882993Y-97099901D01*
X88789901Y-97192993D01*
X88724075Y-97307007D01*
X88707037Y-97370591D01*
X88074728Y-96738282D01*
X88074727Y-96738282D01*
X88035380Y-96792439D01*
X87938904Y-96981782D01*
X87873242Y-97183869D01*
X87873242Y-97183872D01*
X87846973Y-97349728D01*
X87817044Y-97412863D01*
X87757732Y-97449794D01*
X87687870Y-97448796D01*
X87629637Y-97410186D01*
X87601523Y-97346222D01*
X87600500Y-97330330D01*
X87600500Y-95942900D01*
X87620185Y-95875861D01*
X87672989Y-95830106D01*
X87742147Y-95820162D01*
X87805703Y-95849187D01*
G37*
%TD.AperFunction*%
%TA.AperFunction,Conductor*%
G36*
X119681445Y-64643998D02*
G01*
X119720487Y-64689055D01*
X119724952Y-64697819D01*
X119849891Y-64869785D01*
X120000214Y-65020108D01*
X120172180Y-65145047D01*
X120172182Y-65145048D01*
X120172185Y-65145050D01*
X120361589Y-65241556D01*
X120563758Y-65307245D01*
X120773714Y-65340499D01*
X120773715Y-65340499D01*
X120920902Y-65340499D01*
X120987941Y-65360184D01*
X121033696Y-65412988D01*
X121043640Y-65482146D01*
X121014615Y-65545702D01*
X121008583Y-65552180D01*
X116697584Y-69863181D01*
X116636261Y-69896666D01*
X116609903Y-69899500D01*
X115920940Y-69899500D01*
X115880019Y-69910464D01*
X115880019Y-69910465D01*
X115842751Y-69920451D01*
X115768214Y-69940423D01*
X115768209Y-69940426D01*
X115631290Y-70019475D01*
X115631282Y-70019481D01*
X115519478Y-70131286D01*
X112844491Y-72806272D01*
X112783168Y-72839757D01*
X112713476Y-72834773D01*
X112657543Y-72792901D01*
X112653723Y-72787504D01*
X112621789Y-72739711D01*
X112621787Y-72739708D01*
X112510292Y-72628213D01*
X112510288Y-72628210D01*
X112379185Y-72540609D01*
X112379172Y-72540602D01*
X112233501Y-72480264D01*
X112233489Y-72480261D01*
X112078845Y-72449500D01*
X112078842Y-72449500D01*
X111921158Y-72449500D01*
X111921155Y-72449500D01*
X111766510Y-72480261D01*
X111766498Y-72480264D01*
X111620827Y-72540602D01*
X111620814Y-72540609D01*
X111489711Y-72628210D01*
X111489707Y-72628213D01*
X111378213Y-72739707D01*
X111378210Y-72739711D01*
X111290609Y-72870814D01*
X111290602Y-72870827D01*
X111230264Y-73016498D01*
X111230261Y-73016510D01*
X111199500Y-73171153D01*
X111199500Y-73328846D01*
X111230261Y-73483489D01*
X111230264Y-73483501D01*
X111290602Y-73629172D01*
X111290609Y-73629185D01*
X111378602Y-73760874D01*
X111399480Y-73827551D01*
X111399500Y-73829765D01*
X111399500Y-90449903D01*
X111379815Y-90516942D01*
X111363181Y-90537584D01*
X109985339Y-91915425D01*
X109924016Y-91948910D01*
X109921850Y-91949361D01*
X109766508Y-91980261D01*
X109766498Y-91980264D01*
X109620827Y-92040602D01*
X109620814Y-92040609D01*
X109489711Y-92128210D01*
X109489707Y-92128213D01*
X109378213Y-92239707D01*
X109378210Y-92239711D01*
X109290609Y-92370814D01*
X109290602Y-92370827D01*
X109230264Y-92516498D01*
X109230261Y-92516510D01*
X109199500Y-92671153D01*
X109199500Y-92828846D01*
X109230261Y-92983489D01*
X109230264Y-92983501D01*
X109290602Y-93129172D01*
X109290609Y-93129185D01*
X109378210Y-93260288D01*
X109378213Y-93260292D01*
X109489707Y-93371786D01*
X109489711Y-93371789D01*
X109620817Y-93459392D01*
X109620819Y-93459393D01*
X109620821Y-93459394D01*
X109638409Y-93466679D01*
X109692812Y-93510520D01*
X109714877Y-93576814D01*
X109712573Y-93605431D01*
X109699500Y-93671153D01*
X109699500Y-93828846D01*
X109730261Y-93983489D01*
X109730263Y-93983497D01*
X109732148Y-93988048D01*
X109739617Y-94057515D01*
X109708343Y-94119995D01*
X109648254Y-94155648D01*
X109617587Y-94159500D01*
X90662351Y-94159500D01*
X90595312Y-94139815D01*
X90549557Y-94087011D01*
X90539061Y-94048752D01*
X90534091Y-94002516D01*
X90483797Y-93867671D01*
X90483795Y-93867668D01*
X90454212Y-93828150D01*
X90432248Y-93798810D01*
X90407831Y-93733348D01*
X90422682Y-93665075D01*
X90472087Y-93615669D01*
X90531515Y-93600500D01*
X91103331Y-93600500D01*
X91103347Y-93600501D01*
X91110943Y-93600501D01*
X91269054Y-93600501D01*
X91269057Y-93600501D01*
X91421785Y-93559577D01*
X91471904Y-93530639D01*
X91558716Y-93480520D01*
X91670520Y-93368716D01*
X91670520Y-93368714D01*
X91680728Y-93358507D01*
X91680730Y-93358504D01*
X102108506Y-82930728D01*
X102108511Y-82930724D01*
X102118714Y-82920520D01*
X102118716Y-82920520D01*
X102230520Y-82808716D01*
X102253907Y-82768209D01*
X103579500Y-82768209D01*
X103579500Y-83131790D01*
X103615137Y-83493630D01*
X103686064Y-83850212D01*
X103686067Y-83850223D01*
X103791614Y-84198165D01*
X103930754Y-84534078D01*
X103930756Y-84534083D01*
X104102140Y-84854720D01*
X104102151Y-84854738D01*
X104304140Y-85157035D01*
X104304150Y-85157049D01*
X104534807Y-85438106D01*
X104791893Y-85695192D01*
X104791898Y-85695196D01*
X104791899Y-85695197D01*
X105072956Y-85925854D01*
X105375268Y-86127853D01*
X105375277Y-86127858D01*
X105375279Y-86127859D01*
X105695916Y-86299243D01*
X105695918Y-86299243D01*
X105695924Y-86299247D01*
X106031836Y-86438386D01*
X106379767Y-86543930D01*
X106379773Y-86543931D01*
X106379776Y-86543932D01*
X106379787Y-86543935D01*
X106736369Y-86614862D01*
X107098206Y-86650500D01*
X107098209Y-86650500D01*
X107461791Y-86650500D01*
X107461794Y-86650500D01*
X107823631Y-86614862D01*
X107893045Y-86601054D01*
X108180212Y-86543935D01*
X108180223Y-86543932D01*
X108180223Y-86543931D01*
X108180233Y-86543930D01*
X108528164Y-86438386D01*
X108864076Y-86299247D01*
X109184732Y-86127853D01*
X109487044Y-85925854D01*
X109768101Y-85695197D01*
X110025197Y-85438101D01*
X110255854Y-85157044D01*
X110457853Y-84854732D01*
X110629247Y-84534076D01*
X110768386Y-84198164D01*
X110873930Y-83850233D01*
X110873932Y-83850223D01*
X110873935Y-83850212D01*
X110944862Y-83493630D01*
X110967844Y-83260288D01*
X110980500Y-83131794D01*
X110980500Y-82768206D01*
X110944862Y-82406369D01*
X110934061Y-82352067D01*
X110873935Y-82049787D01*
X110873932Y-82049776D01*
X110873931Y-82049773D01*
X110873930Y-82049767D01*
X110768386Y-81701836D01*
X110629247Y-81365924D01*
X110457853Y-81045268D01*
X110255854Y-80742956D01*
X110025197Y-80461899D01*
X110025196Y-80461898D01*
X110025192Y-80461893D01*
X109768106Y-80204807D01*
X109487049Y-79974150D01*
X109487048Y-79974149D01*
X109487044Y-79974146D01*
X109184732Y-79772147D01*
X109184727Y-79772144D01*
X109184720Y-79772140D01*
X108864083Y-79600756D01*
X108864078Y-79600754D01*
X108824050Y-79584174D01*
X108726466Y-79543753D01*
X108528165Y-79461614D01*
X108180223Y-79356067D01*
X108180212Y-79356064D01*
X107823630Y-79285137D01*
X107551111Y-79258296D01*
X107461794Y-79249500D01*
X107098206Y-79249500D01*
X107015679Y-79257628D01*
X106736369Y-79285137D01*
X106379787Y-79356064D01*
X106379776Y-79356067D01*
X106031834Y-79461614D01*
X105695921Y-79600754D01*
X105695916Y-79600756D01*
X105375279Y-79772140D01*
X105375261Y-79772151D01*
X105072964Y-79974140D01*
X105072950Y-79974150D01*
X104791893Y-80204807D01*
X104534807Y-80461893D01*
X104304150Y-80742950D01*
X104304140Y-80742964D01*
X104102151Y-81045261D01*
X104102140Y-81045279D01*
X103930756Y-81365916D01*
X103930754Y-81365921D01*
X103791614Y-81701834D01*
X103686067Y-82049776D01*
X103686064Y-82049787D01*
X103615137Y-82406369D01*
X103579500Y-82768209D01*
X102253907Y-82768209D01*
X102288430Y-82708412D01*
X102289661Y-82706278D01*
X102291479Y-82703133D01*
X102309575Y-82671788D01*
X102309577Y-82671785D01*
X102350500Y-82519058D01*
X102350500Y-82360943D01*
X102350500Y-79550097D01*
X102370185Y-79483058D01*
X102386819Y-79462416D01*
X103212416Y-78636819D01*
X103273739Y-78603334D01*
X103300097Y-78600500D01*
X104243331Y-78600500D01*
X104243347Y-78600501D01*
X104250943Y-78600501D01*
X104409054Y-78600501D01*
X104409057Y-78600501D01*
X104561785Y-78559577D01*
X104611904Y-78530639D01*
X104698716Y-78480520D01*
X104810520Y-78368716D01*
X104810520Y-78368714D01*
X104820728Y-78358507D01*
X104820730Y-78358504D01*
X117855479Y-65323754D01*
X117916800Y-65290271D01*
X117981474Y-65293505D01*
X118023758Y-65307245D01*
X118233714Y-65340499D01*
X118233715Y-65340499D01*
X118446287Y-65340499D01*
X118446288Y-65340499D01*
X118656244Y-65307245D01*
X118858413Y-65241556D01*
X119047817Y-65145050D01*
X119134139Y-65082334D01*
X119219787Y-65020108D01*
X119219789Y-65020105D01*
X119219793Y-65020103D01*
X119370105Y-64869791D01*
X119370107Y-64869787D01*
X119370110Y-64869785D01*
X119495049Y-64697819D01*
X119495048Y-64697819D01*
X119495052Y-64697815D01*
X119499515Y-64689053D01*
X119547489Y-64638258D01*
X119615309Y-64621462D01*
X119681445Y-64643998D01*
G37*
%TD.AperFunction*%
%TA.AperFunction,Conductor*%
G36*
X109826518Y-55458847D02*
G01*
X109831337Y-55463415D01*
X110128211Y-55760289D01*
X110194933Y-55827011D01*
X110239712Y-55871790D01*
X110370817Y-55959392D01*
X110370819Y-55959392D01*
X110370821Y-55959394D01*
X110515854Y-56019468D01*
X110515888Y-56019495D01*
X110515893Y-56019484D01*
X110516503Y-56019737D01*
X110555166Y-56027427D01*
X110671154Y-56050500D01*
X110800903Y-56050500D01*
X110867942Y-56070185D01*
X110913697Y-56122989D01*
X110923641Y-56192147D01*
X110894616Y-56255703D01*
X110888586Y-56262178D01*
X105550264Y-61600500D01*
X100381286Y-66769478D01*
X100269481Y-66881282D01*
X100269479Y-66881284D01*
X100258423Y-66900435D01*
X100230096Y-66949500D01*
X100190423Y-67018215D01*
X100149499Y-67170943D01*
X100149499Y-67170945D01*
X100149499Y-67339046D01*
X100149500Y-67339059D01*
X100149500Y-74420234D01*
X100129815Y-74487273D01*
X100128602Y-74489125D01*
X100040609Y-74620814D01*
X100040602Y-74620827D01*
X99980264Y-74766498D01*
X99980261Y-74766510D01*
X99949500Y-74921153D01*
X99949500Y-75078846D01*
X99980261Y-75233489D01*
X99980264Y-75233501D01*
X100040602Y-75379172D01*
X100040609Y-75379185D01*
X100128210Y-75510288D01*
X100128213Y-75510292D01*
X100239707Y-75621786D01*
X100239711Y-75621789D01*
X100370814Y-75709390D01*
X100370818Y-75709392D01*
X100370821Y-75709394D01*
X100381233Y-75713706D01*
X100397746Y-75720547D01*
X100452149Y-75764388D01*
X100474214Y-75830682D01*
X100456935Y-75898382D01*
X100437974Y-75922789D01*
X96581681Y-79779082D01*
X96520358Y-79812567D01*
X96450666Y-79807583D01*
X96394733Y-79765711D01*
X96370316Y-79700247D01*
X96370000Y-79691401D01*
X96370000Y-79543753D01*
X96336757Y-79333872D01*
X96336757Y-79333869D01*
X96271095Y-79131782D01*
X96174624Y-78942449D01*
X96135270Y-78888282D01*
X96135269Y-78888282D01*
X95502962Y-79520590D01*
X95485925Y-79457007D01*
X95420099Y-79342993D01*
X95327007Y-79249901D01*
X95212993Y-79184075D01*
X95149409Y-79167037D01*
X95781716Y-78534728D01*
X95727547Y-78495373D01*
X95727547Y-78495372D01*
X95718500Y-78490763D01*
X95667706Y-78442788D01*
X95650912Y-78374966D01*
X95673451Y-78308832D01*
X95718508Y-78269793D01*
X95727816Y-78265051D01*
X95817806Y-78199670D01*
X95899786Y-78140109D01*
X95899788Y-78140106D01*
X95899792Y-78140104D01*
X96050104Y-77989792D01*
X96050106Y-77989788D01*
X96050109Y-77989786D01*
X96175048Y-77817820D01*
X96175047Y-77817820D01*
X96175051Y-77817816D01*
X96271557Y-77628412D01*
X96337246Y-77426243D01*
X96370500Y-77216287D01*
X96370500Y-77003713D01*
X96337246Y-76793757D01*
X96271557Y-76591588D01*
X96175051Y-76402184D01*
X96175049Y-76402181D01*
X96175048Y-76402179D01*
X96050109Y-76230213D01*
X95899786Y-76079890D01*
X95727820Y-75954951D01*
X95727115Y-75954591D01*
X95719054Y-75950485D01*
X95668259Y-75902512D01*
X95651463Y-75834692D01*
X95673999Y-75768556D01*
X95719054Y-75729515D01*
X95727816Y-75725051D01*
X95749789Y-75709086D01*
X95899786Y-75600109D01*
X95899788Y-75600106D01*
X95899792Y-75600104D01*
X96050104Y-75449792D01*
X96050106Y-75449788D01*
X96050109Y-75449786D01*
X96175048Y-75277820D01*
X96175047Y-75277820D01*
X96175051Y-75277816D01*
X96271557Y-75088412D01*
X96337246Y-74886243D01*
X96370500Y-74676287D01*
X96370500Y-74463713D01*
X96337246Y-74253757D01*
X96271557Y-74051588D01*
X96175051Y-73862184D01*
X96175049Y-73862181D01*
X96175048Y-73862179D01*
X96050109Y-73690213D01*
X95899786Y-73539890D01*
X95727820Y-73414951D01*
X95727115Y-73414591D01*
X95719054Y-73410485D01*
X95668259Y-73362512D01*
X95651463Y-73294692D01*
X95673999Y-73228556D01*
X95719054Y-73189515D01*
X95727816Y-73185051D01*
X95749789Y-73169086D01*
X95899786Y-73060109D01*
X95899788Y-73060106D01*
X95899792Y-73060104D01*
X96050104Y-72909792D01*
X96050106Y-72909788D01*
X96050109Y-72909786D01*
X96175048Y-72737820D01*
X96175047Y-72737820D01*
X96175051Y-72737816D01*
X96271557Y-72548412D01*
X96337246Y-72346243D01*
X96370500Y-72136287D01*
X96370500Y-71923713D01*
X96355382Y-71828268D01*
X96364336Y-71758979D01*
X96390171Y-71721195D01*
X98332952Y-69778416D01*
X98382186Y-69704729D01*
X98415084Y-69655495D01*
X98471658Y-69518913D01*
X98485867Y-69447481D01*
X98500500Y-69373920D01*
X98500500Y-67064604D01*
X98509939Y-67017151D01*
X98510488Y-67015826D01*
X98519737Y-66993497D01*
X98550500Y-66838842D01*
X98550500Y-66681158D01*
X98550500Y-66681155D01*
X98550499Y-66681153D01*
X98542908Y-66642993D01*
X98519737Y-66526503D01*
X98485855Y-66444703D01*
X98459397Y-66380827D01*
X98459390Y-66380814D01*
X98371789Y-66249711D01*
X98371786Y-66249707D01*
X98260292Y-66138213D01*
X98260288Y-66138210D01*
X98129185Y-66050609D01*
X98129172Y-66050602D01*
X97983501Y-65990264D01*
X97983489Y-65990261D01*
X97828845Y-65959500D01*
X97828842Y-65959500D01*
X97671158Y-65959500D01*
X97671155Y-65959500D01*
X97516510Y-65990261D01*
X97516498Y-65990264D01*
X97370827Y-66050602D01*
X97370814Y-66050609D01*
X97239711Y-66138210D01*
X97239707Y-66138213D01*
X97128213Y-66249707D01*
X97128207Y-66249715D01*
X97040607Y-66380818D01*
X97040606Y-66380819D01*
X97030805Y-66404480D01*
X97003927Y-66444703D01*
X96581681Y-66866950D01*
X96520358Y-66900435D01*
X96450667Y-66895451D01*
X96394733Y-66853580D01*
X96370316Y-66788115D01*
X96370000Y-66779269D01*
X96370000Y-66052172D01*
X96369999Y-66052155D01*
X96363598Y-65992627D01*
X96363596Y-65992620D01*
X96313354Y-65857913D01*
X96313350Y-65857906D01*
X96227190Y-65742812D01*
X96227187Y-65742809D01*
X96112093Y-65656649D01*
X96112086Y-65656645D01*
X95977379Y-65606403D01*
X95977372Y-65606401D01*
X95917844Y-65600000D01*
X95270000Y-65600000D01*
X95270000Y-66516988D01*
X95212993Y-66484075D01*
X95085826Y-66450000D01*
X94954174Y-66450000D01*
X94827007Y-66484075D01*
X94770000Y-66516988D01*
X94770000Y-65600000D01*
X94260729Y-65600000D01*
X94193690Y-65580315D01*
X94147935Y-65527511D01*
X94137991Y-65458353D01*
X94167016Y-65394797D01*
X94173048Y-65388319D01*
X94524548Y-65036819D01*
X94585871Y-65003334D01*
X94612229Y-65000500D01*
X96904452Y-65000500D01*
X96971491Y-65020185D01*
X97017246Y-65072989D01*
X97019010Y-65077041D01*
X97021201Y-65082330D01*
X97040606Y-65129179D01*
X97040607Y-65129182D01*
X97128210Y-65260288D01*
X97128213Y-65260292D01*
X97239707Y-65371786D01*
X97239711Y-65371789D01*
X97370814Y-65459390D01*
X97370827Y-65459397D01*
X97466977Y-65499223D01*
X97516503Y-65519737D01*
X97639471Y-65544197D01*
X97671153Y-65550499D01*
X97671156Y-65550500D01*
X97671158Y-65550500D01*
X97828844Y-65550500D01*
X97828845Y-65550499D01*
X97983497Y-65519737D01*
X98112021Y-65466501D01*
X98129172Y-65459397D01*
X98129172Y-65459396D01*
X98129179Y-65459394D01*
X98260289Y-65371789D01*
X98371789Y-65260289D01*
X98459394Y-65129179D01*
X98519737Y-64983497D01*
X98550500Y-64828842D01*
X98550500Y-64671158D01*
X98536836Y-64602465D01*
X98543063Y-64532876D01*
X98570770Y-64490596D01*
X100274548Y-62786819D01*
X100335871Y-62753334D01*
X100362229Y-62750500D01*
X103323920Y-62750500D01*
X103421462Y-62731096D01*
X103468913Y-62721658D01*
X103605495Y-62665084D01*
X103674890Y-62618716D01*
X103728416Y-62582952D01*
X105815295Y-60496070D01*
X105855519Y-60469193D01*
X105879179Y-60459394D01*
X106010289Y-60371789D01*
X106121789Y-60260289D01*
X106209394Y-60129179D01*
X106269737Y-59983497D01*
X106300500Y-59828842D01*
X106300500Y-59671158D01*
X106300500Y-59671155D01*
X106300499Y-59671153D01*
X106269738Y-59516510D01*
X106269737Y-59516503D01*
X106235855Y-59434704D01*
X106209397Y-59370827D01*
X106209390Y-59370814D01*
X106121789Y-59239711D01*
X106121786Y-59239707D01*
X106010292Y-59128213D01*
X106010288Y-59128210D01*
X105879185Y-59040609D01*
X105879172Y-59040602D01*
X105733501Y-58980264D01*
X105733489Y-58980261D01*
X105578845Y-58949500D01*
X105578842Y-58949500D01*
X105421158Y-58949500D01*
X105421155Y-58949500D01*
X105266510Y-58980261D01*
X105266498Y-58980264D01*
X105120827Y-59040602D01*
X105120814Y-59040609D01*
X104989711Y-59128210D01*
X104989707Y-59128213D01*
X104878213Y-59239707D01*
X104878207Y-59239715D01*
X104790607Y-59370818D01*
X104790605Y-59370822D01*
X104780805Y-59394480D01*
X104753927Y-59434704D01*
X102975451Y-61213181D01*
X102914128Y-61246666D01*
X102887770Y-61249500D01*
X96125418Y-61249500D01*
X96058379Y-61229815D01*
X96025100Y-61198385D01*
X95991971Y-61152787D01*
X95991967Y-61152782D01*
X95847213Y-61008028D01*
X95681613Y-60887715D01*
X95681612Y-60887714D01*
X95681610Y-60887713D01*
X95624653Y-60858691D01*
X95499223Y-60794781D01*
X95304534Y-60731522D01*
X95129995Y-60703878D01*
X95102352Y-60699500D01*
X94897648Y-60699500D01*
X94873329Y-60703351D01*
X94695465Y-60731522D01*
X94500776Y-60794781D01*
X94318386Y-60887715D01*
X94152786Y-61008028D01*
X94008028Y-61152786D01*
X93887715Y-61318386D01*
X93794781Y-61500776D01*
X93731522Y-61695465D01*
X93699500Y-61897648D01*
X93699500Y-62102351D01*
X93731522Y-62304534D01*
X93794781Y-62499223D01*
X93840556Y-62589060D01*
X93883200Y-62672753D01*
X93887715Y-62681613D01*
X94008028Y-62847213D01*
X94152786Y-62991971D01*
X94290635Y-63092122D01*
X94318390Y-63112287D01*
X94434607Y-63171503D01*
X94500776Y-63205218D01*
X94500778Y-63205218D01*
X94500781Y-63205220D01*
X94604881Y-63239044D01*
X94661894Y-63257569D01*
X94719569Y-63297007D01*
X94746767Y-63361366D01*
X94734852Y-63430212D01*
X94687608Y-63481688D01*
X94623575Y-63499500D01*
X94176076Y-63499500D01*
X94147242Y-63505234D01*
X94147243Y-63505235D01*
X94031093Y-63528339D01*
X94031083Y-63528342D01*
X93951081Y-63561479D01*
X93951082Y-63561480D01*
X93894506Y-63584915D01*
X93840078Y-63621283D01*
X93771586Y-63667047D01*
X93771581Y-63667051D01*
X93695594Y-63743037D01*
X93634271Y-63776522D01*
X93564579Y-63771536D01*
X93508646Y-63729664D01*
X93493355Y-63702812D01*
X93459394Y-63620821D01*
X93459390Y-63620814D01*
X93371398Y-63489125D01*
X93350520Y-63422447D01*
X93350500Y-63420234D01*
X93350500Y-62589060D01*
X93350501Y-62589047D01*
X93350501Y-62420944D01*
X93325823Y-62328846D01*
X93309577Y-62268216D01*
X93253541Y-62171158D01*
X93230524Y-62131290D01*
X93230518Y-62131282D01*
X91636819Y-60537583D01*
X91603334Y-60476260D01*
X91600500Y-60449902D01*
X91600500Y-57800097D01*
X91620185Y-57733058D01*
X91636819Y-57712416D01*
X93712416Y-55636819D01*
X93773739Y-55603334D01*
X93800097Y-55600500D01*
X94366680Y-55600500D01*
X94433719Y-55620185D01*
X94479474Y-55672989D01*
X94489418Y-55742147D01*
X94460393Y-55805703D01*
X94422975Y-55834985D01*
X94318644Y-55888143D01*
X94274077Y-55920523D01*
X94274077Y-55920524D01*
X94953554Y-56600000D01*
X94947339Y-56600000D01*
X94845606Y-56627259D01*
X94754394Y-56679920D01*
X94679920Y-56754394D01*
X94627259Y-56845606D01*
X94600000Y-56947339D01*
X94600000Y-56953553D01*
X93920524Y-56274077D01*
X93920523Y-56274077D01*
X93888143Y-56318644D01*
X93795244Y-56500968D01*
X93732009Y-56695582D01*
X93700000Y-56897682D01*
X93700000Y-57102317D01*
X93732009Y-57304417D01*
X93795244Y-57499031D01*
X93888141Y-57681350D01*
X93888147Y-57681359D01*
X93920523Y-57725921D01*
X93920524Y-57725922D01*
X94600000Y-57046446D01*
X94600000Y-57052661D01*
X94627259Y-57154394D01*
X94679920Y-57245606D01*
X94754394Y-57320080D01*
X94845606Y-57372741D01*
X94947339Y-57400000D01*
X94953553Y-57400000D01*
X94274076Y-58079474D01*
X94318650Y-58111859D01*
X94500968Y-58204755D01*
X94695582Y-58267990D01*
X94897683Y-58300000D01*
X95102317Y-58300000D01*
X95304417Y-58267990D01*
X95499031Y-58204755D01*
X95681349Y-58111859D01*
X95725921Y-58079474D01*
X95046447Y-57400000D01*
X95052661Y-57400000D01*
X95154394Y-57372741D01*
X95245606Y-57320080D01*
X95320080Y-57245606D01*
X95372741Y-57154394D01*
X95400000Y-57052661D01*
X95400000Y-57046447D01*
X96079474Y-57725921D01*
X96111859Y-57681349D01*
X96204755Y-57499031D01*
X96267990Y-57304417D01*
X96300000Y-57102317D01*
X96300000Y-56897682D01*
X96267990Y-56695582D01*
X96204755Y-56500968D01*
X96111859Y-56318650D01*
X96079474Y-56274077D01*
X96079474Y-56274076D01*
X95400000Y-56953551D01*
X95400000Y-56947339D01*
X95372741Y-56845606D01*
X95320080Y-56754394D01*
X95245606Y-56679920D01*
X95154394Y-56627259D01*
X95052661Y-56600000D01*
X95046446Y-56600000D01*
X95725922Y-55920524D01*
X95725921Y-55920523D01*
X95681359Y-55888147D01*
X95681350Y-55888141D01*
X95577025Y-55834985D01*
X95526229Y-55787011D01*
X95509434Y-55719190D01*
X95531971Y-55653055D01*
X95586686Y-55609603D01*
X95633320Y-55600500D01*
X108420234Y-55600500D01*
X108487273Y-55620185D01*
X108489125Y-55621398D01*
X108620814Y-55709390D01*
X108620827Y-55709397D01*
X108760409Y-55767213D01*
X108766503Y-55769737D01*
X108921153Y-55800499D01*
X108921156Y-55800500D01*
X108921158Y-55800500D01*
X109078844Y-55800500D01*
X109078845Y-55800499D01*
X109233497Y-55769737D01*
X109355529Y-55719190D01*
X109379172Y-55709397D01*
X109379172Y-55709396D01*
X109379179Y-55709394D01*
X109510289Y-55621789D01*
X109621789Y-55510289D01*
X109640554Y-55482205D01*
X109694165Y-55437401D01*
X109763490Y-55428692D01*
X109826518Y-55458847D01*
G37*
%TD.AperFunction*%
%TA.AperFunction,Conductor*%
G36*
X129653182Y-64789627D02*
G01*
X129686667Y-64850950D01*
X129689501Y-64877299D01*
X129689501Y-64887864D01*
X129689502Y-64887875D01*
X129695909Y-64947482D01*
X129746203Y-65082327D01*
X129746207Y-65082334D01*
X129832453Y-65197543D01*
X129832456Y-65197546D01*
X129947665Y-65283792D01*
X129947672Y-65283796D01*
X130082518Y-65334090D01*
X130082517Y-65334090D01*
X130089445Y-65334834D01*
X130142128Y-65340499D01*
X131207060Y-65340498D01*
X131274099Y-65360182D01*
X131294741Y-65376817D01*
X131913181Y-65995257D01*
X131946666Y-66056580D01*
X131949500Y-66082938D01*
X131949500Y-66125500D01*
X131929815Y-66192539D01*
X131877011Y-66238294D01*
X131825500Y-66249500D01*
X129332231Y-66249500D01*
X129265192Y-66229815D01*
X129244550Y-66213181D01*
X128575566Y-65544197D01*
X128542081Y-65482874D01*
X128547065Y-65413182D01*
X128588937Y-65357249D01*
X128643849Y-65334043D01*
X128816128Y-65306756D01*
X128816131Y-65306756D01*
X129018218Y-65241094D01*
X129207555Y-65144621D01*
X129261717Y-65105269D01*
X129261718Y-65105269D01*
X128629409Y-64472961D01*
X128692994Y-64455924D01*
X128807008Y-64390098D01*
X128900100Y-64297006D01*
X128965926Y-64182992D01*
X128982963Y-64119407D01*
X129653182Y-64789627D01*
G37*
%TD.AperFunction*%
%TA.AperFunction,Conductor*%
G36*
X121984101Y-56070185D02*
G01*
X122004743Y-56086819D01*
X128363392Y-62445468D01*
X128396877Y-62506791D01*
X128391893Y-62576483D01*
X128350021Y-62632416D01*
X128295110Y-62655622D01*
X128183871Y-62673241D01*
X128183870Y-62673241D01*
X127981783Y-62738903D01*
X127792440Y-62835379D01*
X127738283Y-62874726D01*
X127738283Y-62874727D01*
X128370592Y-63507036D01*
X128307008Y-63524074D01*
X128192994Y-63589900D01*
X128099902Y-63682992D01*
X128034076Y-63797006D01*
X128017038Y-63860590D01*
X127384729Y-63228281D01*
X127384728Y-63228281D01*
X127345381Y-63282439D01*
X127345377Y-63282445D01*
X127340761Y-63291504D01*
X127292782Y-63342296D01*
X127224960Y-63359086D01*
X127158827Y-63336542D01*
X127119795Y-63291492D01*
X127115052Y-63282183D01*
X127115050Y-63282180D01*
X127115049Y-63282178D01*
X126990110Y-63110212D01*
X126839787Y-62959889D01*
X126667821Y-62834950D01*
X126478415Y-62738443D01*
X126478414Y-62738442D01*
X126478413Y-62738442D01*
X126276244Y-62672753D01*
X126276242Y-62672752D01*
X126276241Y-62672752D01*
X126114958Y-62647207D01*
X126066288Y-62639499D01*
X125853714Y-62639499D01*
X125853709Y-62639499D01*
X125758271Y-62654615D01*
X125688978Y-62645661D01*
X125651192Y-62619823D01*
X122198423Y-59167052D01*
X122198416Y-59167046D01*
X122124731Y-59117812D01*
X122124731Y-59117813D01*
X122075493Y-59084913D01*
X121938919Y-59028343D01*
X121938909Y-59028340D01*
X121793922Y-58999500D01*
X121793920Y-58999500D01*
X112050569Y-58999500D01*
X111983530Y-58979815D01*
X111937775Y-58927011D01*
X111927831Y-58857853D01*
X111956856Y-58794297D01*
X111962888Y-58787819D01*
X113613888Y-57136819D01*
X113675211Y-57103334D01*
X113701569Y-57100500D01*
X119420234Y-57100500D01*
X119487273Y-57120185D01*
X119489125Y-57121398D01*
X119620814Y-57209390D01*
X119620827Y-57209397D01*
X119766498Y-57269735D01*
X119766503Y-57269737D01*
X119921153Y-57300499D01*
X119921156Y-57300500D01*
X119921158Y-57300500D01*
X120078844Y-57300500D01*
X120078845Y-57300499D01*
X120233497Y-57269737D01*
X120379179Y-57209394D01*
X120510289Y-57121789D01*
X120621789Y-57010289D01*
X120709394Y-56879179D01*
X120769737Y-56733497D01*
X120800500Y-56578842D01*
X120800500Y-56421158D01*
X120800500Y-56421155D01*
X120800499Y-56421153D01*
X120788032Y-56358477D01*
X120769737Y-56266503D01*
X120751284Y-56221952D01*
X120743815Y-56152483D01*
X120775091Y-56090004D01*
X120835180Y-56054352D01*
X120865845Y-56050500D01*
X121917062Y-56050500D01*
X121984101Y-56070185D01*
G37*
%TD.AperFunction*%
%TA.AperFunction,Conductor*%
G36*
X134147050Y-45202535D02*
G01*
X134209648Y-45233570D01*
X134245530Y-45293522D01*
X134249500Y-45324648D01*
X134249500Y-104427522D01*
X134229815Y-104494561D01*
X134227995Y-104497312D01*
X134048050Y-104761473D01*
X133485157Y-105587798D01*
X133483474Y-105590206D01*
X132607194Y-106813265D01*
X132605455Y-106815633D01*
X131700408Y-108017633D01*
X131698612Y-108019959D01*
X130765406Y-109200093D01*
X130763557Y-109202376D01*
X129802595Y-110360137D01*
X129800692Y-110362375D01*
X128812591Y-111497017D01*
X128810635Y-111499210D01*
X127795934Y-112610116D01*
X127793927Y-112612262D01*
X126753169Y-113698836D01*
X126751111Y-113700934D01*
X125684923Y-114762522D01*
X125682817Y-114764570D01*
X124591774Y-115800599D01*
X124589620Y-115802597D01*
X123474292Y-116812526D01*
X123472090Y-116814472D01*
X122333207Y-117797639D01*
X122330961Y-117799532D01*
X121169082Y-118755457D01*
X121166791Y-118757297D01*
X119982579Y-119685432D01*
X119980245Y-119687217D01*
X118774370Y-120587039D01*
X118771994Y-120588768D01*
X117545197Y-121459723D01*
X117542782Y-121461396D01*
X116295587Y-122303111D01*
X116293132Y-122304725D01*
X115026433Y-123116598D01*
X115023941Y-123118154D01*
X113738332Y-123899805D01*
X113735803Y-123901302D01*
X112432028Y-124652277D01*
X112429465Y-124653713D01*
X111108262Y-125373587D01*
X111105665Y-125374962D01*
X109767796Y-126063320D01*
X109765168Y-126064633D01*
X108411366Y-126721099D01*
X108408707Y-126722350D01*
X107039709Y-127346565D01*
X107037022Y-127347752D01*
X105653619Y-127939357D01*
X105650904Y-127940480D01*
X104475847Y-128410375D01*
X104406291Y-128416990D01*
X104384808Y-128410787D01*
X103995942Y-128259347D01*
X103173010Y-127938864D01*
X103170236Y-127937745D01*
X101749895Y-127344293D01*
X101747225Y-127343138D01*
X101278339Y-127133643D01*
X100341827Y-126715216D01*
X100339079Y-126713948D01*
X98949446Y-126051926D01*
X98946730Y-126050591D01*
X97573685Y-125354860D01*
X97571002Y-125353459D01*
X97136952Y-125120040D01*
X96215329Y-124624419D01*
X96212696Y-124622961D01*
X94875230Y-123861059D01*
X94872619Y-123859529D01*
X93554156Y-123065219D01*
X93551583Y-123063626D01*
X92252862Y-122237354D01*
X92250329Y-122235698D01*
X90972217Y-121378016D01*
X90969724Y-121376299D01*
X89985634Y-120680499D01*
X89712860Y-120487634D01*
X89710428Y-120485869D01*
X89233957Y-120131228D01*
X88475685Y-119566839D01*
X88473281Y-119565005D01*
X88224792Y-119370451D01*
X87261279Y-118616072D01*
X87258919Y-118614177D01*
X87051586Y-118443523D01*
X86070465Y-117635972D01*
X86068152Y-117634020D01*
X84903932Y-116627108D01*
X84901668Y-116625101D01*
X83762367Y-115590076D01*
X83760152Y-115588014D01*
X82646454Y-114525496D01*
X82644289Y-114523380D01*
X81823311Y-113700934D01*
X81556808Y-113433954D01*
X81554702Y-113431792D01*
X80494197Y-112316219D01*
X80492138Y-112314000D01*
X79738223Y-111481146D01*
X79459121Y-111172819D01*
X79457127Y-111170562D01*
X79129171Y-110789998D01*
X78452285Y-110004531D01*
X78450350Y-110002229D01*
X78071609Y-109540405D01*
X77474256Y-108812012D01*
X77472376Y-108809661D01*
X76525606Y-107595959D01*
X76523822Y-107593613D01*
X75606975Y-106357197D01*
X75605205Y-106354748D01*
X75549066Y-106275048D01*
X74987941Y-105478417D01*
X74718799Y-105096315D01*
X74717086Y-105093819D01*
X73963035Y-103965787D01*
X73942144Y-103899114D01*
X73942124Y-103896707D01*
X73995195Y-64897648D01*
X75449500Y-64897648D01*
X75449500Y-65102351D01*
X75481522Y-65304534D01*
X75544781Y-65499223D01*
X75637715Y-65681613D01*
X75758028Y-65847213D01*
X75758034Y-65847219D01*
X75902781Y-65991966D01*
X76068390Y-66112287D01*
X76081793Y-66119116D01*
X76132589Y-66167088D01*
X76149500Y-66229601D01*
X76149500Y-66413330D01*
X76149499Y-66413348D01*
X76149499Y-66579054D01*
X76149498Y-66579054D01*
X76176856Y-66681155D01*
X76190423Y-66731785D01*
X76218888Y-66781087D01*
X76269479Y-66868714D01*
X76269481Y-66868717D01*
X76388349Y-66987585D01*
X76388355Y-66987590D01*
X77515139Y-68114374D01*
X77515149Y-68114385D01*
X77519479Y-68118715D01*
X77519480Y-68118716D01*
X77631284Y-68230520D01*
X77631286Y-68230521D01*
X77631290Y-68230524D01*
X77696554Y-68268204D01*
X77696558Y-68268205D01*
X77696559Y-68268206D01*
X77768215Y-68309577D01*
X77920943Y-68350501D01*
X77920946Y-68350501D01*
X78086653Y-68350501D01*
X78086669Y-68350500D01*
X82170234Y-68350500D01*
X82237273Y-68370185D01*
X82239125Y-68371398D01*
X82370814Y-68459390D01*
X82370827Y-68459397D01*
X82516498Y-68519735D01*
X82516503Y-68519737D01*
X82671153Y-68550499D01*
X82671156Y-68550500D01*
X82671158Y-68550500D01*
X82828844Y-68550500D01*
X82828845Y-68550499D01*
X82983497Y-68519737D01*
X83129179Y-68459394D01*
X83260289Y-68371789D01*
X83371789Y-68260289D01*
X83459394Y-68129179D01*
X83459396Y-68129172D01*
X83462264Y-68123809D01*
X83463657Y-68124553D01*
X83502658Y-68076144D01*
X83568949Y-68054070D01*
X83636651Y-68071339D01*
X83661073Y-68090309D01*
X84051284Y-68480520D01*
X84051286Y-68480521D01*
X84051290Y-68480524D01*
X84119210Y-68519737D01*
X84188216Y-68559577D01*
X84340943Y-68600501D01*
X84340945Y-68600501D01*
X84506654Y-68600501D01*
X84506670Y-68600500D01*
X90420234Y-68600500D01*
X90487273Y-68620185D01*
X90489125Y-68621398D01*
X90620814Y-68709390D01*
X90620827Y-68709397D01*
X90719005Y-68750063D01*
X90766503Y-68769737D01*
X90903155Y-68796919D01*
X90921153Y-68800499D01*
X90921156Y-68800500D01*
X90921158Y-68800500D01*
X91078844Y-68800500D01*
X91078845Y-68800499D01*
X91233497Y-68769737D01*
X91379179Y-68709394D01*
X91510289Y-68621789D01*
X91621789Y-68510289D01*
X91709394Y-68379179D01*
X91769737Y-68233497D01*
X91800500Y-68078842D01*
X91800500Y-67921158D01*
X91800500Y-67921155D01*
X91800499Y-67921153D01*
X91769738Y-67766510D01*
X91769737Y-67766503D01*
X91769735Y-67766498D01*
X91709397Y-67620827D01*
X91709390Y-67620814D01*
X91621789Y-67489711D01*
X91621786Y-67489707D01*
X91510292Y-67378213D01*
X91510288Y-67378210D01*
X91379185Y-67290609D01*
X91379172Y-67290602D01*
X91233501Y-67230264D01*
X91233489Y-67230261D01*
X91078845Y-67199500D01*
X91078842Y-67199500D01*
X90921158Y-67199500D01*
X90921155Y-67199500D01*
X90766510Y-67230261D01*
X90766498Y-67230264D01*
X90620827Y-67290602D01*
X90620814Y-67290609D01*
X90489125Y-67378602D01*
X90422447Y-67399480D01*
X90420234Y-67399500D01*
X84720098Y-67399500D01*
X84653059Y-67379815D01*
X84632417Y-67363181D01*
X82794077Y-65524842D01*
X82760592Y-65463519D01*
X82763828Y-65398841D01*
X82765142Y-65394797D01*
X82768477Y-65384534D01*
X82800500Y-65182352D01*
X82800500Y-64977648D01*
X82786281Y-64887875D01*
X82768477Y-64775465D01*
X82718438Y-64621462D01*
X82705220Y-64580781D01*
X82705218Y-64580778D01*
X82705218Y-64580776D01*
X82663805Y-64499500D01*
X82612287Y-64398390D01*
X82598330Y-64379179D01*
X82491971Y-64232786D01*
X82347213Y-64088028D01*
X82181613Y-63967715D01*
X82181612Y-63967714D01*
X82181610Y-63967713D01*
X82124653Y-63938691D01*
X81999223Y-63874781D01*
X81804534Y-63811522D01*
X81629995Y-63783878D01*
X81602352Y-63779500D01*
X81397648Y-63779500D01*
X81373329Y-63783351D01*
X81195465Y-63811522D01*
X81000776Y-63874781D01*
X80818386Y-63967715D01*
X80652786Y-64088028D01*
X80508028Y-64232786D01*
X80387715Y-64398386D01*
X80294781Y-64580776D01*
X80231522Y-64775465D01*
X80199500Y-64977648D01*
X80199500Y-65182351D01*
X80231522Y-65384534D01*
X80294781Y-65579223D01*
X80346951Y-65681610D01*
X80381401Y-65749223D01*
X80387715Y-65761613D01*
X80508028Y-65927213D01*
X80652786Y-66071971D01*
X80783706Y-66167088D01*
X80818390Y-66192287D01*
X80917849Y-66242964D01*
X81000776Y-66285218D01*
X81000778Y-66285218D01*
X81000781Y-66285220D01*
X81105137Y-66319127D01*
X81195465Y-66348477D01*
X81296557Y-66364488D01*
X81397648Y-66380500D01*
X81397649Y-66380500D01*
X81602351Y-66380500D01*
X81602352Y-66380500D01*
X81804534Y-66348477D01*
X81818842Y-66343827D01*
X81888682Y-66341831D01*
X81944842Y-66374077D01*
X82409691Y-66838926D01*
X82443176Y-66900249D01*
X82438192Y-66969941D01*
X82396320Y-67025874D01*
X82376027Y-67037430D01*
X82376191Y-67037736D01*
X82370814Y-67040609D01*
X82239125Y-67128602D01*
X82172447Y-67149480D01*
X82170234Y-67149500D01*
X78300097Y-67149500D01*
X78233058Y-67129815D01*
X78212416Y-67113181D01*
X77406369Y-66307134D01*
X77372884Y-66245811D01*
X77377868Y-66176119D01*
X77419740Y-66120186D01*
X77429273Y-66113718D01*
X77431592Y-66112296D01*
X77431610Y-66112287D01*
X77597219Y-65991966D01*
X77741966Y-65847219D01*
X77741968Y-65847215D01*
X77741971Y-65847213D01*
X77804164Y-65761610D01*
X77862287Y-65681610D01*
X77955220Y-65499219D01*
X78018477Y-65304534D01*
X78050500Y-65102352D01*
X78050500Y-64897648D01*
X78018477Y-64695466D01*
X77955220Y-64500781D01*
X77955218Y-64500778D01*
X77955218Y-64500776D01*
X77905286Y-64402781D01*
X77862287Y-64318390D01*
X77835185Y-64281087D01*
X77741971Y-64152786D01*
X77597213Y-64008028D01*
X77431613Y-63887715D01*
X77431612Y-63887714D01*
X77431610Y-63887713D01*
X77374653Y-63858691D01*
X77249223Y-63794781D01*
X77054534Y-63731522D01*
X76873225Y-63702806D01*
X76852352Y-63699500D01*
X76647648Y-63699500D01*
X76626775Y-63702806D01*
X76445465Y-63731522D01*
X76250776Y-63794781D01*
X76068386Y-63887715D01*
X75902786Y-64008028D01*
X75758028Y-64152786D01*
X75637715Y-64318386D01*
X75544781Y-64500776D01*
X75481522Y-64695465D01*
X75449500Y-64897648D01*
X73995195Y-64897648D01*
X74009021Y-54737648D01*
X75449500Y-54737648D01*
X75449500Y-54942351D01*
X75481522Y-55144534D01*
X75544781Y-55339223D01*
X75590369Y-55428692D01*
X75637147Y-55520500D01*
X75637715Y-55521613D01*
X75758028Y-55687213D01*
X75902786Y-55831971D01*
X76057749Y-55944556D01*
X76068390Y-55952287D01*
X76184607Y-56011503D01*
X76250776Y-56045218D01*
X76250778Y-56045218D01*
X76250781Y-56045220D01*
X76355137Y-56079127D01*
X76445465Y-56108477D01*
X76537090Y-56122989D01*
X76647648Y-56140500D01*
X76647649Y-56140500D01*
X76852351Y-56140500D01*
X76852352Y-56140500D01*
X77054534Y-56108477D01*
X77249219Y-56045220D01*
X77431610Y-55952287D01*
X77542407Y-55871789D01*
X77597213Y-55831971D01*
X77597215Y-55831968D01*
X77597219Y-55831966D01*
X77741966Y-55687219D01*
X77741968Y-55687215D01*
X77741971Y-55687213D01*
X77798357Y-55609603D01*
X77862287Y-55521610D01*
X77955220Y-55339219D01*
X78018477Y-55144534D01*
X78050500Y-54942352D01*
X78050500Y-54817648D01*
X80199500Y-54817648D01*
X80199500Y-55022351D01*
X80231522Y-55224534D01*
X80294781Y-55419223D01*
X80346385Y-55520500D01*
X80387147Y-55600500D01*
X80387715Y-55601613D01*
X80508028Y-55767213D01*
X80652786Y-55911971D01*
X80800768Y-56019484D01*
X80818390Y-56032287D01*
X80915900Y-56081971D01*
X81000776Y-56125218D01*
X81000778Y-56125218D01*
X81000781Y-56125220D01*
X81084688Y-56152483D01*
X81195465Y-56188477D01*
X81296557Y-56204488D01*
X81397648Y-56220500D01*
X81397649Y-56220500D01*
X81602351Y-56220500D01*
X81602352Y-56220500D01*
X81804534Y-56188477D01*
X81999219Y-56125220D01*
X82181610Y-56032287D01*
X82274590Y-55964732D01*
X82347213Y-55911971D01*
X82347215Y-55911968D01*
X82347219Y-55911966D01*
X82491966Y-55767219D01*
X82491968Y-55767215D01*
X82491971Y-55767213D01*
X82612284Y-55601614D01*
X82612285Y-55601613D01*
X82612287Y-55601610D01*
X82619117Y-55588204D01*
X82667091Y-55537409D01*
X82729602Y-55520500D01*
X83493331Y-55520500D01*
X83493347Y-55520501D01*
X83500943Y-55520501D01*
X83659054Y-55520501D01*
X83659057Y-55520501D01*
X83811785Y-55479577D01*
X83880777Y-55439744D01*
X83948716Y-55400520D01*
X84060520Y-55288716D01*
X84060520Y-55288714D01*
X84070724Y-55278511D01*
X84070728Y-55278506D01*
X84817374Y-54531859D01*
X84878695Y-54498376D01*
X84948387Y-54503360D01*
X85004320Y-54545232D01*
X85028737Y-54610696D01*
X85022984Y-54657860D01*
X84981523Y-54785461D01*
X84981523Y-54785464D01*
X84949500Y-54987648D01*
X84949500Y-55192351D01*
X84981522Y-55394534D01*
X85044781Y-55589223D01*
X85095019Y-55687819D01*
X85136759Y-55769738D01*
X85137715Y-55771613D01*
X85258028Y-55937213D01*
X85402786Y-56081971D01*
X85549382Y-56188477D01*
X85568390Y-56202287D01*
X85673225Y-56255703D01*
X85750776Y-56295218D01*
X85750778Y-56295218D01*
X85750781Y-56295220D01*
X85822873Y-56318644D01*
X85945465Y-56358477D01*
X86046557Y-56374488D01*
X86147648Y-56390500D01*
X86147649Y-56390500D01*
X86352351Y-56390500D01*
X86352352Y-56390500D01*
X86554534Y-56358477D01*
X86749219Y-56295220D01*
X86931610Y-56202287D01*
X87024590Y-56134732D01*
X87097213Y-56081971D01*
X87097215Y-56081968D01*
X87097219Y-56081966D01*
X87241966Y-55937219D01*
X87241968Y-55937215D01*
X87241971Y-55937213D01*
X87362284Y-55771614D01*
X87362285Y-55771613D01*
X87362287Y-55771610D01*
X87369117Y-55758204D01*
X87417091Y-55707409D01*
X87479602Y-55690500D01*
X90910903Y-55690500D01*
X90977942Y-55710185D01*
X91023697Y-55762989D01*
X91033641Y-55832147D01*
X91004616Y-55895703D01*
X90998586Y-55902178D01*
X90399796Y-56500968D01*
X89881286Y-57019478D01*
X89769481Y-57131282D01*
X89769479Y-57131285D01*
X89724385Y-57209392D01*
X89724384Y-57209393D01*
X89690423Y-57268214D01*
X89690423Y-57268215D01*
X89649499Y-57420943D01*
X89649499Y-57420945D01*
X89649499Y-57589046D01*
X89649500Y-57589059D01*
X89649500Y-61920234D01*
X89629815Y-61987273D01*
X89628602Y-61989125D01*
X89540609Y-62120814D01*
X89540602Y-62120827D01*
X89480264Y-62266498D01*
X89480261Y-62266510D01*
X89449500Y-62421153D01*
X89449500Y-62578846D01*
X89480261Y-62733489D01*
X89480264Y-62733501D01*
X89540602Y-62879172D01*
X89540609Y-62879185D01*
X89628210Y-63010288D01*
X89628213Y-63010292D01*
X89739707Y-63121786D01*
X89739711Y-63121789D01*
X89870814Y-63209390D01*
X89870827Y-63209397D01*
X90013461Y-63268477D01*
X90016503Y-63269737D01*
X90139974Y-63294297D01*
X90171153Y-63300499D01*
X90171156Y-63300500D01*
X90171158Y-63300500D01*
X90328844Y-63300500D01*
X90328845Y-63300499D01*
X90483497Y-63269737D01*
X90629179Y-63209394D01*
X90760289Y-63121789D01*
X90871789Y-63010289D01*
X90959394Y-62879179D01*
X90961239Y-62874726D01*
X90991522Y-62801615D01*
X91019737Y-62733497D01*
X91050500Y-62578842D01*
X91050500Y-62421158D01*
X91050500Y-62421155D01*
X91050499Y-62421153D01*
X91027302Y-62304534D01*
X91019737Y-62266503D01*
X90980242Y-62171153D01*
X90959397Y-62120827D01*
X90959390Y-62120814D01*
X90871398Y-61989125D01*
X90850520Y-61922447D01*
X90850500Y-61920234D01*
X90850500Y-61749097D01*
X90870185Y-61682058D01*
X90922989Y-61636303D01*
X90992147Y-61626359D01*
X91055703Y-61655384D01*
X91062181Y-61661416D01*
X92113181Y-62712416D01*
X92146666Y-62773739D01*
X92149500Y-62800097D01*
X92149500Y-63420234D01*
X92129815Y-63487273D01*
X92128602Y-63489125D01*
X92040609Y-63620814D01*
X92040602Y-63620827D01*
X91980264Y-63766498D01*
X91980261Y-63766510D01*
X91949500Y-63921153D01*
X91949500Y-64078846D01*
X91980261Y-64233489D01*
X91980263Y-64233497D01*
X91999977Y-64281092D01*
X92019427Y-64328047D01*
X92026896Y-64397517D01*
X91995621Y-64459996D01*
X91935532Y-64495648D01*
X91904866Y-64499500D01*
X89616868Y-64499500D01*
X89549829Y-64479815D01*
X89504074Y-64427011D01*
X89495251Y-64399692D01*
X89471659Y-64281092D01*
X89471658Y-64281091D01*
X89471658Y-64281087D01*
X89451946Y-64233497D01*
X89415087Y-64144511D01*
X89415080Y-64144498D01*
X89332952Y-64021585D01*
X89292889Y-63981522D01*
X89228416Y-63917049D01*
X88978416Y-63667048D01*
X88894263Y-63610820D01*
X88894262Y-63610819D01*
X88855500Y-63584919D01*
X88855488Y-63584912D01*
X88718917Y-63528343D01*
X88718907Y-63528340D01*
X88573920Y-63499500D01*
X88573918Y-63499500D01*
X87176082Y-63499500D01*
X87176076Y-63499500D01*
X87147242Y-63505234D01*
X87147243Y-63505235D01*
X87031093Y-63528339D01*
X87031083Y-63528342D01*
X86951081Y-63561479D01*
X86951082Y-63561480D01*
X86894506Y-63584915D01*
X86840078Y-63621283D01*
X86771586Y-63667047D01*
X86515105Y-63923527D01*
X86453782Y-63957011D01*
X86408026Y-63958318D01*
X86352352Y-63949500D01*
X86147648Y-63949500D01*
X86123329Y-63953351D01*
X85945465Y-63981522D01*
X85750776Y-64044781D01*
X85568386Y-64137715D01*
X85402786Y-64258028D01*
X85258028Y-64402786D01*
X85137715Y-64568386D01*
X85044781Y-64750776D01*
X84981522Y-64945465D01*
X84956176Y-65105495D01*
X84949500Y-65147648D01*
X84949500Y-65352352D01*
X84952578Y-65371786D01*
X84981522Y-65554534D01*
X85044781Y-65749223D01*
X85137715Y-65931613D01*
X85258028Y-66097213D01*
X85402786Y-66241971D01*
X85542983Y-66343828D01*
X85568390Y-66362287D01*
X85668603Y-66413348D01*
X85750776Y-66455218D01*
X85750778Y-66455218D01*
X85750781Y-66455220D01*
X85839588Y-66484075D01*
X85945465Y-66518477D01*
X86046557Y-66534488D01*
X86147648Y-66550500D01*
X86147649Y-66550500D01*
X86352351Y-66550500D01*
X86352352Y-66550500D01*
X86554534Y-66518477D01*
X86749219Y-66455220D01*
X86931610Y-66362287D01*
X87024590Y-66294732D01*
X87097213Y-66241971D01*
X87097215Y-66241968D01*
X87097219Y-66241966D01*
X87241966Y-66097219D01*
X87241968Y-66097215D01*
X87241971Y-66097213D01*
X87318437Y-65991965D01*
X87362287Y-65931610D01*
X87455220Y-65749219D01*
X87518477Y-65554534D01*
X87550500Y-65352352D01*
X87550500Y-65147648D01*
X87549906Y-65143898D01*
X87558860Y-65074605D01*
X87603856Y-65021153D01*
X87670607Y-65000513D01*
X87672379Y-65000500D01*
X87958572Y-65000500D01*
X88025611Y-65020185D01*
X88071366Y-65072989D01*
X88073133Y-65077048D01*
X88084912Y-65105488D01*
X88084918Y-65105498D01*
X88100741Y-65129179D01*
X88100740Y-65129179D01*
X88167046Y-65228414D01*
X88167052Y-65228421D01*
X88771578Y-65832947D01*
X88771585Y-65832953D01*
X88839019Y-65878010D01*
X88839021Y-65878011D01*
X88839024Y-65878013D01*
X88894505Y-65915084D01*
X88894506Y-65915084D01*
X88894507Y-65915085D01*
X89031082Y-65971656D01*
X89031087Y-65971658D01*
X89031091Y-65971658D01*
X89031092Y-65971659D01*
X89176079Y-66000500D01*
X89176082Y-66000500D01*
X93323920Y-66000500D01*
X93421462Y-65981096D01*
X93468913Y-65971658D01*
X93498547Y-65959382D01*
X93568017Y-65951914D01*
X93630496Y-65983189D01*
X93666148Y-66043278D01*
X93670000Y-66073944D01*
X93670000Y-66700000D01*
X94586988Y-66700000D01*
X94554075Y-66757007D01*
X94520000Y-66884174D01*
X94520000Y-67015826D01*
X94554075Y-67142993D01*
X94586988Y-67200000D01*
X93670000Y-67200000D01*
X93670000Y-67847844D01*
X93676401Y-67907372D01*
X93676403Y-67907379D01*
X93726645Y-68042086D01*
X93726649Y-68042093D01*
X93812809Y-68157187D01*
X93812812Y-68157190D01*
X93927906Y-68243350D01*
X93927913Y-68243354D01*
X94059470Y-68292422D01*
X94115404Y-68334293D01*
X94139821Y-68399758D01*
X94124969Y-68468031D01*
X94103819Y-68496285D01*
X93989889Y-68610215D01*
X93864951Y-68782179D01*
X93768444Y-68971585D01*
X93702753Y-69173760D01*
X93669500Y-69383713D01*
X93669500Y-69596286D01*
X93698346Y-69778417D01*
X93702754Y-69806243D01*
X93733055Y-69899500D01*
X93768444Y-70008414D01*
X93864951Y-70197820D01*
X93989890Y-70369786D01*
X94140213Y-70520109D01*
X94312182Y-70645050D01*
X94320946Y-70649516D01*
X94371742Y-70697491D01*
X94388536Y-70765312D01*
X94365998Y-70831447D01*
X94320946Y-70870484D01*
X94312182Y-70874949D01*
X94140213Y-70999890D01*
X93989890Y-71150213D01*
X93864951Y-71322179D01*
X93768444Y-71511585D01*
X93702753Y-71713760D01*
X93684616Y-71828272D01*
X93669500Y-71923713D01*
X93669500Y-72136287D01*
X93702754Y-72346243D01*
X93765905Y-72540602D01*
X93768444Y-72548414D01*
X93864951Y-72737820D01*
X93989890Y-72909786D01*
X94140213Y-73060109D01*
X94312182Y-73185050D01*
X94320946Y-73189516D01*
X94371742Y-73237491D01*
X94388536Y-73305312D01*
X94365998Y-73371447D01*
X94320946Y-73410484D01*
X94312182Y-73414949D01*
X94140213Y-73539890D01*
X93989890Y-73690213D01*
X93864951Y-73862179D01*
X93768444Y-74051585D01*
X93702753Y-74253760D01*
X93669500Y-74463713D01*
X93669500Y-74676286D01*
X93701914Y-74880943D01*
X93702754Y-74886243D01*
X93752406Y-75039056D01*
X93768444Y-75088414D01*
X93864951Y-75277820D01*
X93989890Y-75449786D01*
X94140213Y-75600109D01*
X94312182Y-75725050D01*
X94320946Y-75729516D01*
X94371742Y-75777491D01*
X94388536Y-75845312D01*
X94365998Y-75911447D01*
X94320946Y-75950484D01*
X94312182Y-75954949D01*
X94140213Y-76079890D01*
X93989890Y-76230213D01*
X93864951Y-76402179D01*
X93768444Y-76591585D01*
X93702753Y-76793760D01*
X93669500Y-77003713D01*
X93669500Y-77216287D01*
X93702754Y-77426243D01*
X93733048Y-77519479D01*
X93768444Y-77628414D01*
X93864951Y-77817820D01*
X93989890Y-77989786D01*
X94140213Y-78140109D01*
X94312179Y-78265048D01*
X94312181Y-78265049D01*
X94312184Y-78265051D01*
X94321493Y-78269794D01*
X94372290Y-78317766D01*
X94389087Y-78385587D01*
X94366552Y-78451722D01*
X94321505Y-78490760D01*
X94312446Y-78495376D01*
X94312440Y-78495380D01*
X94258282Y-78534727D01*
X94258282Y-78534728D01*
X94890591Y-79167037D01*
X94827007Y-79184075D01*
X94712993Y-79249901D01*
X94619901Y-79342993D01*
X94554075Y-79457007D01*
X94537037Y-79520591D01*
X93904728Y-78888282D01*
X93904727Y-78888282D01*
X93865380Y-78942439D01*
X93768904Y-79131782D01*
X93703242Y-79333869D01*
X93703242Y-79333872D01*
X93670000Y-79543753D01*
X93670000Y-79756246D01*
X93703242Y-79966127D01*
X93703242Y-79966130D01*
X93768904Y-80168217D01*
X93865375Y-80357550D01*
X93904728Y-80411716D01*
X94537037Y-79779408D01*
X94554075Y-79842993D01*
X94619901Y-79957007D01*
X94712993Y-80050099D01*
X94827007Y-80115925D01*
X94890590Y-80132962D01*
X94258282Y-80765269D01*
X94258282Y-80765270D01*
X94312452Y-80804626D01*
X94312451Y-80804626D01*
X94321495Y-80809234D01*
X94372292Y-80857208D01*
X94389087Y-80925029D01*
X94366550Y-80991164D01*
X94321499Y-81030202D01*
X94312182Y-81034949D01*
X94140213Y-81159890D01*
X93989890Y-81310213D01*
X93864951Y-81482179D01*
X93768444Y-81671585D01*
X93702753Y-81873760D01*
X93674875Y-82049776D01*
X93669500Y-82083713D01*
X93669500Y-82296287D01*
X93702754Y-82506243D01*
X93756338Y-82671158D01*
X93768444Y-82708414D01*
X93864951Y-82897820D01*
X93989890Y-83069786D01*
X94140213Y-83220109D01*
X94312182Y-83345050D01*
X94320946Y-83349516D01*
X94371742Y-83397491D01*
X94388536Y-83465312D01*
X94365998Y-83531447D01*
X94320946Y-83570484D01*
X94312182Y-83574949D01*
X94140213Y-83699890D01*
X93989890Y-83850213D01*
X93864951Y-84022179D01*
X93768444Y-84211585D01*
X93702753Y-84413760D01*
X93702753Y-84413762D01*
X93669500Y-84623713D01*
X93669500Y-84836287D01*
X93702754Y-85046243D01*
X93738757Y-85157049D01*
X93768444Y-85248414D01*
X93864951Y-85437820D01*
X93989890Y-85609786D01*
X94140213Y-85760109D01*
X94312179Y-85885048D01*
X94312181Y-85885049D01*
X94312184Y-85885051D01*
X94501588Y-85981557D01*
X94703757Y-86047246D01*
X94913713Y-86080500D01*
X94913714Y-86080500D01*
X95126286Y-86080500D01*
X95126287Y-86080500D01*
X95336243Y-86047246D01*
X95538412Y-85981557D01*
X95727816Y-85885051D01*
X95830159Y-85810695D01*
X95899786Y-85760109D01*
X95899788Y-85760106D01*
X95899792Y-85760104D01*
X96050104Y-85609792D01*
X96050106Y-85609788D01*
X96050109Y-85609786D01*
X96175048Y-85437820D01*
X96175047Y-85437820D01*
X96175051Y-85437816D01*
X96271557Y-85248412D01*
X96337246Y-85046243D01*
X96370500Y-84836287D01*
X96370500Y-84623713D01*
X96337246Y-84413757D01*
X96323506Y-84371473D01*
X96321512Y-84301635D01*
X96353755Y-84245478D01*
X100937821Y-79661413D01*
X100999142Y-79627930D01*
X101068834Y-79632914D01*
X101124767Y-79674786D01*
X101149184Y-79740250D01*
X101149500Y-79749096D01*
X101149500Y-82139903D01*
X101129815Y-82206942D01*
X101113181Y-82227584D01*
X90977584Y-92363181D01*
X90916261Y-92396666D01*
X90889903Y-92399500D01*
X86920943Y-92399500D01*
X86768216Y-92440423D01*
X86768209Y-92440426D01*
X86631290Y-92519475D01*
X86631282Y-92519481D01*
X86519481Y-92631282D01*
X86519475Y-92631290D01*
X86440426Y-92768209D01*
X86440423Y-92768216D01*
X86399500Y-92920943D01*
X86399500Y-102843330D01*
X86399499Y-102843348D01*
X86399499Y-103009054D01*
X86399498Y-103009054D01*
X86440423Y-103161786D01*
X86451227Y-103180497D01*
X86451228Y-103180502D01*
X86451229Y-103180502D01*
X86519475Y-103298709D01*
X86519481Y-103298717D01*
X86638349Y-103417585D01*
X86638355Y-103417590D01*
X87856241Y-104635476D01*
X87889726Y-104696799D01*
X87886492Y-104761473D01*
X87872753Y-104803757D01*
X87839500Y-105013713D01*
X87839500Y-105226286D01*
X87867763Y-105404735D01*
X87872754Y-105436243D01*
X87922393Y-105589016D01*
X87938444Y-105638414D01*
X88034951Y-105827820D01*
X88159890Y-105999786D01*
X88310213Y-106150109D01*
X88482179Y-106275048D01*
X88482181Y-106275049D01*
X88482184Y-106275051D01*
X88671588Y-106371557D01*
X88873757Y-106437246D01*
X89083713Y-106470500D01*
X89083714Y-106470500D01*
X89296286Y-106470500D01*
X89296287Y-106470500D01*
X89506243Y-106437246D01*
X89708412Y-106371557D01*
X89897816Y-106275051D01*
X89919789Y-106259086D01*
X90069786Y-106150109D01*
X90069788Y-106150106D01*
X90069792Y-106150104D01*
X90220104Y-105999792D01*
X90220106Y-105999788D01*
X90220109Y-105999786D01*
X90345048Y-105827820D01*
X90345047Y-105827820D01*
X90345051Y-105827816D01*
X90441557Y-105638412D01*
X90507246Y-105436243D01*
X90540500Y-105226287D01*
X90540500Y-105013713D01*
X90507246Y-104803757D01*
X90441557Y-104601588D01*
X90345051Y-104412184D01*
X90345049Y-104412181D01*
X90345048Y-104412179D01*
X90220109Y-104240213D01*
X90069786Y-104089890D01*
X89897820Y-103964951D01*
X89897115Y-103964591D01*
X89889054Y-103960485D01*
X89838259Y-103912512D01*
X89821463Y-103844692D01*
X89843999Y-103778556D01*
X89889054Y-103739515D01*
X89897816Y-103735051D01*
X89919789Y-103719086D01*
X90069786Y-103610109D01*
X90069788Y-103610106D01*
X90069792Y-103610104D01*
X90220104Y-103459792D01*
X90220106Y-103459788D01*
X90220109Y-103459786D01*
X90278661Y-103379193D01*
X90345051Y-103287816D01*
X90345349Y-103287230D01*
X90365235Y-103248205D01*
X90413209Y-103197409D01*
X90475719Y-103180500D01*
X101583331Y-103180500D01*
X101583347Y-103180501D01*
X101590943Y-103180501D01*
X101749054Y-103180501D01*
X101749057Y-103180501D01*
X101901785Y-103139577D01*
X101951904Y-103110639D01*
X102038716Y-103060520D01*
X102150520Y-102948716D01*
X102150520Y-102948714D01*
X102160728Y-102938507D01*
X102160729Y-102938504D01*
X107514662Y-97584572D01*
X107575983Y-97551089D01*
X107578150Y-97550638D01*
X107636085Y-97539113D01*
X107733497Y-97519737D01*
X107879179Y-97459394D01*
X108010289Y-97371789D01*
X108121789Y-97260289D01*
X108209394Y-97129179D01*
X108269737Y-96983497D01*
X108300500Y-96828842D01*
X108300500Y-96671158D01*
X108300500Y-96671155D01*
X108300499Y-96671153D01*
X108269738Y-96516510D01*
X108269737Y-96516503D01*
X108269735Y-96516498D01*
X108209397Y-96370827D01*
X108209390Y-96370814D01*
X108121789Y-96239711D01*
X108121786Y-96239707D01*
X108010292Y-96128213D01*
X108010288Y-96128210D01*
X107879185Y-96040609D01*
X107879172Y-96040602D01*
X107778881Y-95999061D01*
X107724477Y-95955220D01*
X107702412Y-95888926D01*
X107719691Y-95821227D01*
X107770828Y-95773616D01*
X107826333Y-95760500D01*
X114587060Y-95760500D01*
X114654099Y-95780185D01*
X114674741Y-95796819D01*
X122119707Y-103241786D01*
X122119711Y-103241789D01*
X122250814Y-103329390D01*
X122250827Y-103329397D01*
X122396498Y-103389735D01*
X122396503Y-103389737D01*
X122536529Y-103417590D01*
X122551153Y-103420499D01*
X122551156Y-103420500D01*
X122551158Y-103420500D01*
X122708844Y-103420500D01*
X122708845Y-103420499D01*
X122863497Y-103389737D01*
X123009179Y-103329394D01*
X123140289Y-103241789D01*
X123251789Y-103130289D01*
X126121789Y-100260289D01*
X126209394Y-100129179D01*
X126269737Y-99983497D01*
X126300500Y-99828842D01*
X126300500Y-99671158D01*
X126300500Y-99671155D01*
X126300499Y-99671153D01*
X126270748Y-99521588D01*
X126269737Y-99516503D01*
X126222798Y-99403181D01*
X126209397Y-99370827D01*
X126209390Y-99370814D01*
X126121789Y-99239711D01*
X126121786Y-99239707D01*
X126010292Y-99128213D01*
X126010288Y-99128210D01*
X125879185Y-99040609D01*
X125879172Y-99040602D01*
X125733501Y-98980264D01*
X125733489Y-98980261D01*
X125578845Y-98949500D01*
X125578842Y-98949500D01*
X125421158Y-98949500D01*
X125421155Y-98949500D01*
X125266510Y-98980261D01*
X125266498Y-98980264D01*
X125120827Y-99040602D01*
X125120814Y-99040609D01*
X124989711Y-99128210D01*
X124989707Y-99128213D01*
X122717680Y-101400240D01*
X122656357Y-101433725D01*
X122586665Y-101428741D01*
X122542318Y-101400240D01*
X115480292Y-94338213D01*
X115480288Y-94338210D01*
X115349185Y-94250609D01*
X115349172Y-94250602D01*
X115203501Y-94190264D01*
X115203489Y-94190261D01*
X115048845Y-94159500D01*
X115048842Y-94159500D01*
X111382413Y-94159500D01*
X111315374Y-94139815D01*
X111269619Y-94087011D01*
X111259675Y-94017853D01*
X111267850Y-93988051D01*
X111269737Y-93983497D01*
X111292777Y-93867668D01*
X111300638Y-93828150D01*
X111333023Y-93766239D01*
X111334519Y-93764715D01*
X112858506Y-92240727D01*
X112858511Y-92240724D01*
X112868714Y-92230520D01*
X112868716Y-92230520D01*
X112980520Y-92118716D01*
X113038129Y-92018934D01*
X113059577Y-91981785D01*
X113100500Y-91829057D01*
X113100500Y-91670943D01*
X113100500Y-90040402D01*
X114449500Y-90040402D01*
X114449500Y-90459597D01*
X114486035Y-90877190D01*
X114486035Y-90877194D01*
X114558824Y-91289998D01*
X114558828Y-91290015D01*
X114667316Y-91694902D01*
X114667319Y-91694912D01*
X114667320Y-91694913D01*
X114810691Y-92088822D01*
X114810694Y-92088829D01*
X114810695Y-92088831D01*
X114810698Y-92088839D01*
X114987843Y-92468726D01*
X114987851Y-92468742D01*
X115081694Y-92631282D01*
X115197443Y-92831764D01*
X115197447Y-92831770D01*
X115197454Y-92831781D01*
X115437879Y-93175144D01*
X115602885Y-93371789D01*
X115707329Y-93496260D01*
X116003740Y-93792671D01*
X116010967Y-93798735D01*
X116324855Y-94062120D01*
X116668218Y-94302545D01*
X116668225Y-94302549D01*
X116668236Y-94302557D01*
X117031264Y-94512152D01*
X117031273Y-94512156D01*
X117411160Y-94689301D01*
X117411164Y-94689302D01*
X117411178Y-94689309D01*
X117805087Y-94832680D01*
X117805093Y-94832681D01*
X117805097Y-94832683D01*
X117915359Y-94862227D01*
X118209992Y-94941174D01*
X118622812Y-95013965D01*
X119040404Y-95050499D01*
X119040405Y-95050500D01*
X119040406Y-95050500D01*
X119459595Y-95050500D01*
X119459595Y-95050499D01*
X119877188Y-95013965D01*
X120290008Y-94941174D01*
X120694913Y-94832680D01*
X121088822Y-94689309D01*
X121468736Y-94512152D01*
X121831764Y-94302557D01*
X122175143Y-94062121D01*
X122496260Y-93792671D01*
X122792671Y-93496260D01*
X123062121Y-93175143D01*
X123302557Y-92831764D01*
X123512152Y-92468736D01*
X123689309Y-92088822D01*
X123832680Y-91694913D01*
X123941174Y-91290008D01*
X124013965Y-90877188D01*
X124050500Y-90459594D01*
X124050500Y-90040406D01*
X124013965Y-89622812D01*
X123941174Y-89209992D01*
X123832680Y-88805087D01*
X123689309Y-88411178D01*
X123512152Y-88031264D01*
X123302557Y-87668236D01*
X123302549Y-87668225D01*
X123302545Y-87668218D01*
X123062120Y-87324855D01*
X122792668Y-87003737D01*
X122496262Y-86707331D01*
X122175144Y-86437879D01*
X121831781Y-86197454D01*
X121831770Y-86197447D01*
X121831764Y-86197443D01*
X121711222Y-86127848D01*
X121468742Y-85987851D01*
X121468726Y-85987843D01*
X121088839Y-85810698D01*
X121088831Y-85810695D01*
X121088829Y-85810694D01*
X121088822Y-85810691D01*
X120694913Y-85667320D01*
X120694912Y-85667319D01*
X120694902Y-85667316D01*
X120290015Y-85558828D01*
X120290018Y-85558828D01*
X120290008Y-85558826D01*
X120290002Y-85558824D01*
X120289998Y-85558824D01*
X119877192Y-85486035D01*
X119459597Y-85449500D01*
X119459594Y-85449500D01*
X119040406Y-85449500D01*
X119040402Y-85449500D01*
X118622809Y-85486035D01*
X118622805Y-85486035D01*
X118210001Y-85558824D01*
X118209984Y-85558828D01*
X117805097Y-85667316D01*
X117728509Y-85695192D01*
X117411178Y-85810691D01*
X117411174Y-85810692D01*
X117411168Y-85810695D01*
X117411160Y-85810698D01*
X117031273Y-85987843D01*
X117031257Y-85987851D01*
X116668244Y-86197438D01*
X116668218Y-86197454D01*
X116324855Y-86437879D01*
X116003737Y-86707331D01*
X115707331Y-87003737D01*
X115437879Y-87324855D01*
X115197454Y-87668218D01*
X115197438Y-87668244D01*
X114987851Y-88031257D01*
X114987843Y-88031273D01*
X114810698Y-88411160D01*
X114810695Y-88411168D01*
X114667316Y-88805097D01*
X114558828Y-89209984D01*
X114558824Y-89210001D01*
X114486035Y-89622805D01*
X114486035Y-89622809D01*
X114449500Y-90040402D01*
X113100500Y-90040402D01*
X113100500Y-74300097D01*
X113120185Y-74233058D01*
X113136819Y-74212416D01*
X116212416Y-71136819D01*
X116273739Y-71103334D01*
X116300097Y-71100500D01*
X116823331Y-71100500D01*
X116823347Y-71100501D01*
X116830943Y-71100501D01*
X116989054Y-71100501D01*
X116989057Y-71100501D01*
X117141785Y-71059577D01*
X117193879Y-71029500D01*
X117278716Y-70980520D01*
X117390520Y-70868716D01*
X117390520Y-70868714D01*
X117400724Y-70858511D01*
X117400728Y-70858506D01*
X122935479Y-65323754D01*
X122996800Y-65290271D01*
X123061474Y-65293505D01*
X123103758Y-65307245D01*
X123313714Y-65340499D01*
X123313715Y-65340499D01*
X123526287Y-65340499D01*
X123526288Y-65340499D01*
X123736244Y-65307245D01*
X123938413Y-65241556D01*
X124127817Y-65145050D01*
X124214139Y-65082334D01*
X124299787Y-65020108D01*
X124299789Y-65020105D01*
X124299793Y-65020103D01*
X124450105Y-64869791D01*
X124450107Y-64869787D01*
X124450110Y-64869785D01*
X124575049Y-64697819D01*
X124575048Y-64697819D01*
X124575052Y-64697815D01*
X124579515Y-64689053D01*
X124627489Y-64638258D01*
X124695309Y-64621462D01*
X124761445Y-64643998D01*
X124800487Y-64689055D01*
X124804952Y-64697819D01*
X124929891Y-64869785D01*
X125080214Y-65020108D01*
X125252180Y-65145047D01*
X125252182Y-65145048D01*
X125252185Y-65145050D01*
X125441589Y-65241556D01*
X125643758Y-65307245D01*
X125853714Y-65340499D01*
X125853715Y-65340499D01*
X126066287Y-65340499D01*
X126066288Y-65340499D01*
X126161729Y-65325382D01*
X126231022Y-65334336D01*
X126268808Y-65360174D01*
X127329574Y-66420939D01*
X128387051Y-67478416D01*
X128458402Y-67549767D01*
X128491587Y-67582952D01*
X128614500Y-67665080D01*
X128614513Y-67665087D01*
X128751084Y-67721656D01*
X128751089Y-67721658D01*
X128751093Y-67721658D01*
X128751094Y-67721659D01*
X128896081Y-67750500D01*
X128896084Y-67750500D01*
X130875500Y-67750500D01*
X130942539Y-67770185D01*
X130988294Y-67822989D01*
X130999500Y-67874500D01*
X130999500Y-104637769D01*
X130979815Y-104704808D01*
X130963181Y-104725450D01*
X123827904Y-111860726D01*
X123766581Y-111894211D01*
X123696889Y-111889227D01*
X123640956Y-111847355D01*
X123616539Y-111781891D01*
X123627841Y-111720640D01*
X123687364Y-111592994D01*
X123689309Y-111588822D01*
X123832680Y-111194913D01*
X123941174Y-110790008D01*
X124013965Y-110377188D01*
X124050500Y-109959594D01*
X124050500Y-109540406D01*
X124013965Y-109122812D01*
X123941174Y-108709992D01*
X123832680Y-108305087D01*
X123689309Y-107911178D01*
X123512152Y-107531264D01*
X123302557Y-107168236D01*
X123302549Y-107168225D01*
X123302545Y-107168218D01*
X123062120Y-106824855D01*
X122792668Y-106503737D01*
X122496262Y-106207331D01*
X122175144Y-105937879D01*
X121831781Y-105697454D01*
X121831770Y-105697447D01*
X121831764Y-105697443D01*
X121641854Y-105587798D01*
X121468742Y-105487851D01*
X121468726Y-105487843D01*
X121088839Y-105310698D01*
X121088831Y-105310695D01*
X121088829Y-105310694D01*
X121088822Y-105310691D01*
X120694913Y-105167320D01*
X120694912Y-105167319D01*
X120694902Y-105167316D01*
X120290015Y-105058828D01*
X120290018Y-105058828D01*
X120290008Y-105058826D01*
X120290002Y-105058824D01*
X120289998Y-105058824D01*
X119877192Y-104986035D01*
X119459597Y-104949500D01*
X119459594Y-104949500D01*
X119040406Y-104949500D01*
X119040402Y-104949500D01*
X118622809Y-104986035D01*
X118622805Y-104986035D01*
X118210001Y-105058824D01*
X118209984Y-105058828D01*
X117805097Y-105167316D01*
X117663336Y-105218913D01*
X117411178Y-105310691D01*
X117411174Y-105310692D01*
X117411168Y-105310695D01*
X117411160Y-105310698D01*
X117031273Y-105487843D01*
X117031257Y-105487851D01*
X116668244Y-105697438D01*
X116668218Y-105697454D01*
X116324855Y-105937879D01*
X116003737Y-106207331D01*
X115707331Y-106503737D01*
X115437879Y-106824855D01*
X115197454Y-107168218D01*
X115197438Y-107168244D01*
X114987851Y-107531257D01*
X114987843Y-107531273D01*
X114810698Y-107911160D01*
X114810695Y-107911168D01*
X114810692Y-107911174D01*
X114810691Y-107911178D01*
X114771098Y-108019959D01*
X114667316Y-108305097D01*
X114558828Y-108709984D01*
X114558824Y-108710001D01*
X114486035Y-109122805D01*
X114486035Y-109122809D01*
X114449500Y-109540402D01*
X114449500Y-109959597D01*
X114486035Y-110377190D01*
X114486035Y-110377194D01*
X114558824Y-110789998D01*
X114558828Y-110790015D01*
X114667316Y-111194902D01*
X114667319Y-111194912D01*
X114667320Y-111194913D01*
X114810691Y-111588822D01*
X114810694Y-111588829D01*
X114810695Y-111588831D01*
X114810698Y-111588839D01*
X114931247Y-111847355D01*
X114987848Y-111968736D01*
X115197443Y-112331764D01*
X115197447Y-112331770D01*
X115197454Y-112331781D01*
X115437879Y-112675144D01*
X115632640Y-112907249D01*
X115707329Y-112996260D01*
X116003740Y-113292671D01*
X116137255Y-113404704D01*
X116324855Y-113562120D01*
X116668218Y-113802545D01*
X116668225Y-113802549D01*
X116668236Y-113802557D01*
X117031264Y-114012152D01*
X117031273Y-114012156D01*
X117411160Y-114189301D01*
X117411164Y-114189302D01*
X117411178Y-114189309D01*
X117805087Y-114332680D01*
X117805093Y-114332681D01*
X117805097Y-114332683D01*
X117915359Y-114362227D01*
X118209992Y-114441174D01*
X118622812Y-114513965D01*
X119040404Y-114550499D01*
X119040405Y-114550500D01*
X119040406Y-114550500D01*
X119459595Y-114550500D01*
X119459595Y-114550499D01*
X119877188Y-114513965D01*
X120290008Y-114441174D01*
X120694913Y-114332680D01*
X121088822Y-114189309D01*
X121220640Y-114127840D01*
X121289717Y-114117349D01*
X121353501Y-114145868D01*
X121391741Y-114204345D01*
X121392296Y-114274212D01*
X121360726Y-114327904D01*
X117095451Y-118593181D01*
X117034128Y-118626666D01*
X117007770Y-118629500D01*
X105503733Y-118629500D01*
X105436694Y-118609815D01*
X105390939Y-118557011D01*
X105386028Y-118544506D01*
X105381495Y-118530829D01*
X105374814Y-118510666D01*
X105282712Y-118361344D01*
X105158656Y-118237288D01*
X105009334Y-118145186D01*
X104842797Y-118090001D01*
X104842795Y-118090000D01*
X104740010Y-118079500D01*
X103539998Y-118079500D01*
X103539981Y-118079501D01*
X103437203Y-118090000D01*
X103437200Y-118090001D01*
X103270668Y-118145185D01*
X103270663Y-118145187D01*
X103121342Y-118237289D01*
X102997289Y-118361342D01*
X102905187Y-118510663D01*
X102905185Y-118510668D01*
X102884717Y-118572438D01*
X102844944Y-118629883D01*
X102780428Y-118656706D01*
X102757283Y-118657052D01*
X102719474Y-118654076D01*
X102040000Y-119333551D01*
X102040000Y-119327339D01*
X102012741Y-119225606D01*
X101960080Y-119134394D01*
X101885606Y-119059920D01*
X101794394Y-119007259D01*
X101692661Y-118980000D01*
X101686446Y-118980000D01*
X102365922Y-118300524D01*
X102365921Y-118300523D01*
X102321359Y-118268147D01*
X102321350Y-118268141D01*
X102139031Y-118175244D01*
X101944417Y-118112009D01*
X101742317Y-118080000D01*
X101537683Y-118080000D01*
X101335582Y-118112009D01*
X101140968Y-118175244D01*
X100958644Y-118268143D01*
X100914077Y-118300523D01*
X100914077Y-118300524D01*
X101593554Y-118980000D01*
X101587339Y-118980000D01*
X101485606Y-119007259D01*
X101394394Y-119059920D01*
X101319920Y-119134394D01*
X101267259Y-119225606D01*
X101240000Y-119327339D01*
X101240000Y-119333553D01*
X100560524Y-118654077D01*
X100560523Y-118654077D01*
X100528143Y-118698644D01*
X100435244Y-118880968D01*
X100372009Y-119075582D01*
X100340000Y-119277682D01*
X100340000Y-119482317D01*
X100372009Y-119684417D01*
X100435244Y-119879031D01*
X100528141Y-120061350D01*
X100528147Y-120061359D01*
X100560523Y-120105921D01*
X100560524Y-120105922D01*
X101240000Y-119426446D01*
X101240000Y-119432661D01*
X101267259Y-119534394D01*
X101319920Y-119625606D01*
X101394394Y-119700080D01*
X101485606Y-119752741D01*
X101587339Y-119780000D01*
X101593553Y-119780000D01*
X100914076Y-120459474D01*
X100958650Y-120491859D01*
X101140968Y-120584755D01*
X101335582Y-120647990D01*
X101537683Y-120680000D01*
X101742317Y-120680000D01*
X101944417Y-120647990D01*
X102139031Y-120584755D01*
X102321349Y-120491859D01*
X102365921Y-120459474D01*
X101686447Y-119780000D01*
X101692661Y-119780000D01*
X101794394Y-119752741D01*
X101885606Y-119700080D01*
X101960080Y-119625606D01*
X102012741Y-119534394D01*
X102040000Y-119432661D01*
X102040000Y-119426448D01*
X102719473Y-120105921D01*
X102757280Y-120102946D01*
X102825658Y-120117310D01*
X102875415Y-120166361D01*
X102884714Y-120187556D01*
X102905186Y-120249334D01*
X102997288Y-120398656D01*
X103121344Y-120522712D01*
X103270666Y-120614814D01*
X103437203Y-120669999D01*
X103539991Y-120680500D01*
X104740008Y-120680499D01*
X104842797Y-120669999D01*
X105009334Y-120614814D01*
X105158656Y-120522712D01*
X105282712Y-120398656D01*
X105374814Y-120249334D01*
X105386028Y-120215494D01*
X105425801Y-120158050D01*
X105490317Y-120131228D01*
X105503733Y-120130500D01*
X117443920Y-120130500D01*
X117541462Y-120111096D01*
X117588913Y-120101658D01*
X117725495Y-120045084D01*
X117774729Y-120012186D01*
X117848416Y-119962952D01*
X132332952Y-105478416D01*
X132382186Y-105404729D01*
X132415084Y-105355495D01*
X132471658Y-105218913D01*
X132496045Y-105096315D01*
X132500500Y-105073920D01*
X132500500Y-83667648D01*
X132520185Y-83600609D01*
X132572989Y-83554854D01*
X132642147Y-83544910D01*
X132648672Y-83546027D01*
X132671158Y-83550500D01*
X132828844Y-83550500D01*
X132828845Y-83550499D01*
X132983497Y-83519737D01*
X133129179Y-83459394D01*
X133260289Y-83371789D01*
X133371789Y-83260289D01*
X133459394Y-83129179D01*
X133519737Y-82983497D01*
X133550500Y-82828842D01*
X133550500Y-82671158D01*
X133550500Y-65621156D01*
X133536446Y-65550500D01*
X133519738Y-65466501D01*
X133459394Y-65320819D01*
X133459392Y-65320816D01*
X133459390Y-65320812D01*
X133371789Y-65189709D01*
X133371786Y-65189705D01*
X132426819Y-64244738D01*
X132393334Y-64183415D01*
X132390500Y-64157057D01*
X132390500Y-63092128D01*
X132390499Y-63092122D01*
X132384092Y-63032515D01*
X132333798Y-62897670D01*
X132333794Y-62897663D01*
X132247548Y-62782454D01*
X132247545Y-62782451D01*
X132132336Y-62696205D01*
X132132329Y-62696201D01*
X131997483Y-62645907D01*
X131997484Y-62645907D01*
X131937884Y-62639500D01*
X131937882Y-62639499D01*
X131937874Y-62639499D01*
X131937866Y-62639499D01*
X130872941Y-62639499D01*
X130805902Y-62619814D01*
X130785260Y-62603180D01*
X122810294Y-54628213D01*
X122810290Y-54628210D01*
X122679187Y-54540609D01*
X122679174Y-54540602D01*
X122533503Y-54480264D01*
X122533491Y-54480261D01*
X122378847Y-54449500D01*
X122378844Y-54449500D01*
X115449096Y-54449500D01*
X115382057Y-54429815D01*
X115336302Y-54377011D01*
X115326358Y-54307853D01*
X115355383Y-54244297D01*
X115361415Y-54237819D01*
X115714454Y-53884781D01*
X116212416Y-53386819D01*
X116273739Y-53353334D01*
X116300097Y-53350500D01*
X121873331Y-53350500D01*
X121873347Y-53350501D01*
X121880943Y-53350501D01*
X122039054Y-53350501D01*
X122039057Y-53350501D01*
X122191785Y-53309577D01*
X122261233Y-53269481D01*
X122328716Y-53230520D01*
X122440520Y-53118716D01*
X122440520Y-53118714D01*
X122450724Y-53108511D01*
X122450728Y-53108506D01*
X125475479Y-50083754D01*
X125536800Y-50050271D01*
X125601474Y-50053505D01*
X125643758Y-50067245D01*
X125853714Y-50100499D01*
X125853715Y-50100499D01*
X126066287Y-50100499D01*
X126066288Y-50100499D01*
X126276244Y-50067245D01*
X126478413Y-50001556D01*
X126667817Y-49905050D01*
X126689790Y-49889085D01*
X126839787Y-49780108D01*
X126839789Y-49780105D01*
X126839793Y-49780103D01*
X126990105Y-49629791D01*
X126990107Y-49629787D01*
X126990110Y-49629785D01*
X127115049Y-49457819D01*
X127115048Y-49457819D01*
X127115052Y-49457815D01*
X127119515Y-49449053D01*
X127167489Y-49398258D01*
X127235309Y-49381462D01*
X127301445Y-49403998D01*
X127340487Y-49449055D01*
X127344952Y-49457819D01*
X127469891Y-49629785D01*
X127620214Y-49780108D01*
X127792180Y-49905047D01*
X127792182Y-49905048D01*
X127792185Y-49905050D01*
X127981589Y-50001556D01*
X128183758Y-50067245D01*
X128393714Y-50100499D01*
X128393715Y-50100499D01*
X128606287Y-50100499D01*
X128606288Y-50100499D01*
X128816244Y-50067245D01*
X129018413Y-50001556D01*
X129207817Y-49905050D01*
X129300605Y-49837636D01*
X129379785Y-49780109D01*
X129379785Y-49780108D01*
X129379793Y-49780103D01*
X129493330Y-49666565D01*
X129554649Y-49633083D01*
X129624341Y-49638067D01*
X129680275Y-49679938D01*
X129697190Y-49710916D01*
X129746203Y-49842327D01*
X129746207Y-49842334D01*
X129832453Y-49957543D01*
X129832456Y-49957546D01*
X129947665Y-50043792D01*
X129947672Y-50043796D01*
X130082518Y-50094090D01*
X130082517Y-50094090D01*
X130089445Y-50094834D01*
X130142128Y-50100499D01*
X131937873Y-50100498D01*
X131997484Y-50094090D01*
X132132332Y-50043795D01*
X132247547Y-49957545D01*
X132333797Y-49842330D01*
X132384092Y-49707482D01*
X132390501Y-49647872D01*
X132390500Y-47852127D01*
X132384092Y-47792516D01*
X132383402Y-47790667D01*
X132333798Y-47657670D01*
X132333794Y-47657663D01*
X132247548Y-47542454D01*
X132247545Y-47542451D01*
X132132336Y-47456205D01*
X132132329Y-47456201D01*
X131997483Y-47405907D01*
X131997484Y-47405907D01*
X131937884Y-47399500D01*
X131937882Y-47399499D01*
X131937874Y-47399499D01*
X131937865Y-47399499D01*
X130142130Y-47399499D01*
X130142124Y-47399500D01*
X130082517Y-47405907D01*
X129947672Y-47456201D01*
X129947665Y-47456205D01*
X129832456Y-47542451D01*
X129832453Y-47542454D01*
X129746207Y-47657663D01*
X129746204Y-47657668D01*
X129697190Y-47789082D01*
X129655318Y-47845015D01*
X129589854Y-47869432D01*
X129521581Y-47854580D01*
X129493327Y-47833429D01*
X129379787Y-47719889D01*
X129207821Y-47594950D01*
X129018415Y-47498443D01*
X129018414Y-47498442D01*
X129018413Y-47498442D01*
X128816244Y-47432753D01*
X128816242Y-47432752D01*
X128816241Y-47432752D01*
X128654958Y-47407207D01*
X128606288Y-47399499D01*
X128393714Y-47399499D01*
X128345043Y-47407207D01*
X128183761Y-47432752D01*
X127981586Y-47498443D01*
X127792180Y-47594950D01*
X127620214Y-47719889D01*
X127469891Y-47870212D01*
X127344950Y-48042181D01*
X127340485Y-48050945D01*
X127292510Y-48101741D01*
X127224689Y-48118535D01*
X127158554Y-48095997D01*
X127119517Y-48050945D01*
X127115051Y-48042181D01*
X126990110Y-47870212D01*
X126839787Y-47719889D01*
X126667821Y-47594950D01*
X126478415Y-47498443D01*
X126478414Y-47498442D01*
X126478413Y-47498442D01*
X126276244Y-47432753D01*
X126276242Y-47432752D01*
X126276241Y-47432752D01*
X126114958Y-47407207D01*
X126066288Y-47399499D01*
X125853714Y-47399499D01*
X125805043Y-47407207D01*
X125643761Y-47432752D01*
X125441586Y-47498443D01*
X125252180Y-47594950D01*
X125080214Y-47719889D01*
X124929891Y-47870212D01*
X124804950Y-48042181D01*
X124800485Y-48050945D01*
X124752510Y-48101741D01*
X124684689Y-48118535D01*
X124618554Y-48095997D01*
X124579517Y-48050945D01*
X124575051Y-48042181D01*
X124450110Y-47870212D01*
X124299787Y-47719889D01*
X124127821Y-47594950D01*
X123938415Y-47498443D01*
X123938414Y-47498442D01*
X123938413Y-47498442D01*
X123736244Y-47432753D01*
X123736242Y-47432752D01*
X123736241Y-47432752D01*
X123574958Y-47407207D01*
X123526288Y-47399499D01*
X123313714Y-47399499D01*
X123265043Y-47407207D01*
X123103761Y-47432752D01*
X122901586Y-47498443D01*
X122712180Y-47594950D01*
X122540214Y-47719889D01*
X122389891Y-47870212D01*
X122264950Y-48042181D01*
X122260485Y-48050945D01*
X122212510Y-48101741D01*
X122144689Y-48118535D01*
X122078554Y-48095997D01*
X122039517Y-48050945D01*
X122035051Y-48042181D01*
X121910110Y-47870212D01*
X121759787Y-47719889D01*
X121587821Y-47594950D01*
X121398415Y-47498443D01*
X121398414Y-47498442D01*
X121398413Y-47498442D01*
X121196244Y-47432753D01*
X121196242Y-47432752D01*
X121196241Y-47432752D01*
X121034958Y-47407207D01*
X120986288Y-47399499D01*
X120773714Y-47399499D01*
X120725043Y-47407207D01*
X120563761Y-47432752D01*
X120361586Y-47498443D01*
X120172180Y-47594950D01*
X120000214Y-47719889D01*
X119849891Y-47870212D01*
X119724950Y-48042181D01*
X119720485Y-48050945D01*
X119672510Y-48101741D01*
X119604689Y-48118535D01*
X119538554Y-48095997D01*
X119499517Y-48050945D01*
X119495051Y-48042181D01*
X119370110Y-47870212D01*
X119219787Y-47719889D01*
X119047821Y-47594950D01*
X118858415Y-47498443D01*
X118858414Y-47498442D01*
X118858413Y-47498442D01*
X118656244Y-47432753D01*
X118656242Y-47432752D01*
X118656241Y-47432752D01*
X118494958Y-47407207D01*
X118446288Y-47399499D01*
X118233714Y-47399499D01*
X118185043Y-47407207D01*
X118023761Y-47432752D01*
X117821586Y-47498443D01*
X117632180Y-47594950D01*
X117460214Y-47719889D01*
X117309891Y-47870212D01*
X117184950Y-48042181D01*
X117180485Y-48050945D01*
X117132510Y-48101741D01*
X117064689Y-48118535D01*
X116998554Y-48095997D01*
X116959517Y-48050945D01*
X116955051Y-48042181D01*
X116830110Y-47870212D01*
X116679787Y-47719889D01*
X116507821Y-47594950D01*
X116318415Y-47498443D01*
X116318414Y-47498442D01*
X116318413Y-47498442D01*
X116116244Y-47432753D01*
X116116242Y-47432752D01*
X116116241Y-47432752D01*
X115954958Y-47407207D01*
X115906288Y-47399499D01*
X115693714Y-47399499D01*
X115645043Y-47407207D01*
X115483761Y-47432752D01*
X115281586Y-47498443D01*
X115092180Y-47594950D01*
X114920214Y-47719889D01*
X114769891Y-47870212D01*
X114644950Y-48042181D01*
X114640485Y-48050945D01*
X114592510Y-48101741D01*
X114524689Y-48118535D01*
X114458554Y-48095997D01*
X114419517Y-48050945D01*
X114415051Y-48042181D01*
X114290110Y-47870212D01*
X114139787Y-47719889D01*
X113967821Y-47594950D01*
X113778415Y-47498443D01*
X113778414Y-47498442D01*
X113778413Y-47498442D01*
X113576244Y-47432753D01*
X113576242Y-47432752D01*
X113576241Y-47432752D01*
X113414958Y-47407207D01*
X113366288Y-47399499D01*
X113153714Y-47399499D01*
X113105043Y-47407207D01*
X112943761Y-47432752D01*
X112741586Y-47498443D01*
X112552180Y-47594950D01*
X112380214Y-47719889D01*
X112229891Y-47870212D01*
X112104952Y-48042178D01*
X112008445Y-48231584D01*
X111942754Y-48433759D01*
X111911778Y-48629333D01*
X111909501Y-48643712D01*
X111909501Y-48856286D01*
X111942755Y-49066242D01*
X111992811Y-49220299D01*
X112008445Y-49268413D01*
X112104952Y-49457819D01*
X112229891Y-49629785D01*
X112380214Y-49780108D01*
X112552180Y-49905047D01*
X112552182Y-49905048D01*
X112552185Y-49905050D01*
X112741589Y-50001556D01*
X112943758Y-50067245D01*
X113153714Y-50100499D01*
X113153715Y-50100499D01*
X113366287Y-50100499D01*
X113366288Y-50100499D01*
X113576244Y-50067245D01*
X113778413Y-50001556D01*
X113967817Y-49905050D01*
X113989790Y-49889085D01*
X114139787Y-49780108D01*
X114139789Y-49780105D01*
X114139793Y-49780103D01*
X114290105Y-49629791D01*
X114290107Y-49629787D01*
X114290110Y-49629785D01*
X114415049Y-49457819D01*
X114415048Y-49457819D01*
X114415052Y-49457815D01*
X114419515Y-49449053D01*
X114467489Y-49398258D01*
X114535309Y-49381462D01*
X114601445Y-49403998D01*
X114640487Y-49449055D01*
X114644952Y-49457819D01*
X114769891Y-49629785D01*
X114920214Y-49780108D01*
X115092180Y-49905047D01*
X115092182Y-49905048D01*
X115092185Y-49905050D01*
X115281589Y-50001556D01*
X115483758Y-50067245D01*
X115693714Y-50100499D01*
X115693715Y-50100499D01*
X115840903Y-50100499D01*
X115907942Y-50120184D01*
X115953697Y-50172988D01*
X115963641Y-50242146D01*
X115934616Y-50305702D01*
X115928584Y-50312180D01*
X113127584Y-53113181D01*
X113066261Y-53146666D01*
X113039903Y-53149500D01*
X112329766Y-53149500D01*
X112262727Y-53129815D01*
X112260875Y-53128602D01*
X112129185Y-53040609D01*
X112129172Y-53040602D01*
X111983501Y-52980264D01*
X111983489Y-52980261D01*
X111828845Y-52949500D01*
X111828842Y-52949500D01*
X111671158Y-52949500D01*
X111671155Y-52949500D01*
X111516510Y-52980261D01*
X111516498Y-52980264D01*
X111370827Y-53040602D01*
X111370814Y-53040609D01*
X111239711Y-53128210D01*
X111239707Y-53128213D01*
X111128213Y-53239707D01*
X111128210Y-53239711D01*
X111040609Y-53370814D01*
X111040602Y-53370827D01*
X110980264Y-53516498D01*
X110980261Y-53516510D01*
X110949500Y-53671153D01*
X110949500Y-53828846D01*
X110980261Y-53983489D01*
X110980264Y-53983501D01*
X110999575Y-54030122D01*
X111007044Y-54099592D01*
X110975768Y-54162071D01*
X110915679Y-54197722D01*
X110845854Y-54195228D01*
X110797333Y-54165255D01*
X106465405Y-49833326D01*
X106465401Y-49833323D01*
X106334298Y-49745722D01*
X106334285Y-49745715D01*
X106188614Y-49685377D01*
X106188602Y-49685374D01*
X106033958Y-49654613D01*
X106033955Y-49654613D01*
X105845908Y-49654613D01*
X105778869Y-49634928D01*
X105740363Y-49590841D01*
X105738605Y-49591926D01*
X105714814Y-49553354D01*
X105642712Y-49436457D01*
X105518656Y-49312401D01*
X105369334Y-49220299D01*
X105307558Y-49199828D01*
X105250115Y-49160056D01*
X105223292Y-49095540D01*
X105222946Y-49072393D01*
X105225921Y-49034586D01*
X104546447Y-48355113D01*
X104552661Y-48355113D01*
X104654394Y-48327854D01*
X104745606Y-48275193D01*
X104820080Y-48200719D01*
X104872741Y-48109507D01*
X104900000Y-48007774D01*
X104900000Y-48001561D01*
X105579474Y-48681035D01*
X105579474Y-48681034D01*
X105611859Y-48636462D01*
X105704755Y-48454144D01*
X105767990Y-48259530D01*
X105800000Y-48057430D01*
X105800000Y-47852795D01*
X105767990Y-47650695D01*
X105704755Y-47456081D01*
X105611859Y-47273763D01*
X105579474Y-47229190D01*
X105579474Y-47229189D01*
X104900000Y-47908664D01*
X104900000Y-47902452D01*
X104872741Y-47800719D01*
X104820080Y-47709507D01*
X104745606Y-47635033D01*
X104654394Y-47582372D01*
X104552661Y-47555113D01*
X104546446Y-47555113D01*
X105225922Y-46875637D01*
X105225921Y-46875636D01*
X105181359Y-46843260D01*
X105181350Y-46843254D01*
X104999031Y-46750357D01*
X104804417Y-46687122D01*
X104602317Y-46655113D01*
X104397683Y-46655113D01*
X104195582Y-46687122D01*
X104000968Y-46750357D01*
X103818644Y-46843256D01*
X103774077Y-46875636D01*
X103774077Y-46875637D01*
X104453554Y-47555113D01*
X104447339Y-47555113D01*
X104345606Y-47582372D01*
X104254394Y-47635033D01*
X104179920Y-47709507D01*
X104127259Y-47800719D01*
X104100000Y-47902452D01*
X104100000Y-47908666D01*
X103420524Y-47229190D01*
X103420523Y-47229190D01*
X103388143Y-47273757D01*
X103295244Y-47456081D01*
X103232009Y-47650695D01*
X103200000Y-47852795D01*
X103200000Y-48057430D01*
X103232009Y-48259530D01*
X103295244Y-48454144D01*
X103388141Y-48636463D01*
X103388147Y-48636472D01*
X103420523Y-48681034D01*
X103420524Y-48681035D01*
X104100000Y-48001559D01*
X104100000Y-48007774D01*
X104127259Y-48109507D01*
X104179920Y-48200719D01*
X104254394Y-48275193D01*
X104345606Y-48327854D01*
X104447339Y-48355113D01*
X104453553Y-48355113D01*
X103774076Y-49034587D01*
X103777052Y-49072395D01*
X103762687Y-49140772D01*
X103713636Y-49190528D01*
X103692440Y-49199828D01*
X103630672Y-49220297D01*
X103630663Y-49220300D01*
X103481342Y-49312402D01*
X103357289Y-49436455D01*
X103265187Y-49585776D01*
X103265185Y-49585781D01*
X103247859Y-49638067D01*
X103210001Y-49752316D01*
X103210001Y-49752317D01*
X103210000Y-49752317D01*
X103199500Y-49855096D01*
X103199500Y-51055114D01*
X103199501Y-51055131D01*
X103210000Y-51157909D01*
X103210001Y-51157912D01*
X103222058Y-51194297D01*
X103265186Y-51324447D01*
X103357288Y-51473769D01*
X103481344Y-51597825D01*
X103630666Y-51689927D01*
X103797203Y-51745112D01*
X103899991Y-51755613D01*
X105100008Y-51755612D01*
X105202797Y-51745112D01*
X105369334Y-51689927D01*
X105518656Y-51597825D01*
X105642712Y-51473769D01*
X105642717Y-51473760D01*
X105644148Y-51471952D01*
X105645453Y-51471027D01*
X105647819Y-51468662D01*
X105648223Y-51469066D01*
X105701168Y-51431572D01*
X105770967Y-51428430D01*
X105829099Y-51461177D01*
X108536584Y-54168662D01*
X108570069Y-54229985D01*
X108565085Y-54299677D01*
X108523213Y-54355610D01*
X108517796Y-54359444D01*
X108489127Y-54378601D01*
X108422450Y-54399480D01*
X108420234Y-54399500D01*
X106510759Y-54399500D01*
X106443720Y-54379815D01*
X106397965Y-54327011D01*
X106388021Y-54257853D01*
X106407657Y-54206609D01*
X106433012Y-54168662D01*
X106459394Y-54129179D01*
X106519737Y-53983497D01*
X106550500Y-53828842D01*
X106550500Y-53671158D01*
X106550500Y-53671155D01*
X106550499Y-53671153D01*
X106543264Y-53634780D01*
X106519737Y-53516503D01*
X106466021Y-53386819D01*
X106459397Y-53370827D01*
X106459390Y-53370814D01*
X106371789Y-53239711D01*
X106371786Y-53239707D01*
X106260292Y-53128213D01*
X106260288Y-53128210D01*
X106129185Y-53040609D01*
X106129172Y-53040602D01*
X105983501Y-52980264D01*
X105983489Y-52980261D01*
X105828845Y-52949500D01*
X105828842Y-52949500D01*
X105671158Y-52949500D01*
X105671155Y-52949500D01*
X105516510Y-52980261D01*
X105516498Y-52980264D01*
X105370827Y-53040602D01*
X105370814Y-53040609D01*
X105239125Y-53128602D01*
X105172447Y-53149480D01*
X105170234Y-53149500D01*
X94499097Y-53149500D01*
X94432058Y-53129815D01*
X94386303Y-53077011D01*
X94376359Y-53007853D01*
X94405384Y-52944297D01*
X94411416Y-52937819D01*
X94539566Y-52809668D01*
X95225797Y-52123436D01*
X95287118Y-52089953D01*
X95351794Y-52093188D01*
X95422049Y-52116015D01*
X95639778Y-52150500D01*
X95639779Y-52150500D01*
X95860221Y-52150500D01*
X95860222Y-52150500D01*
X96077951Y-52116015D01*
X96287606Y-52047895D01*
X96484022Y-51947815D01*
X96662365Y-51818242D01*
X96818242Y-51662365D01*
X96947815Y-51484022D01*
X97047895Y-51287606D01*
X97116015Y-51077951D01*
X97150500Y-50860222D01*
X97150500Y-50639778D01*
X97116015Y-50422049D01*
X97047895Y-50212394D01*
X97047895Y-50212393D01*
X96990881Y-50100499D01*
X96947815Y-50015978D01*
X96867222Y-49905050D01*
X96818247Y-49837641D01*
X96818243Y-49837636D01*
X96767683Y-49787076D01*
X96734198Y-49725753D01*
X96739182Y-49656061D01*
X96781054Y-49600128D01*
X96812031Y-49583213D01*
X96892086Y-49553354D01*
X96892093Y-49553350D01*
X97007187Y-49467190D01*
X97007190Y-49467187D01*
X97093350Y-49352093D01*
X97093354Y-49352086D01*
X97143596Y-49217379D01*
X97143598Y-49217372D01*
X97149999Y-49157844D01*
X97150000Y-49157827D01*
X97150000Y-48460000D01*
X96125278Y-48460000D01*
X96169333Y-48383694D01*
X96200000Y-48269244D01*
X96200000Y-48150756D01*
X96169333Y-48036306D01*
X96125278Y-47960000D01*
X97150000Y-47960000D01*
X97150000Y-47262172D01*
X97149999Y-47262155D01*
X97143598Y-47202627D01*
X97143596Y-47202620D01*
X97093354Y-47067913D01*
X97093352Y-47067910D01*
X97040424Y-46997208D01*
X97040423Y-46997207D01*
X97007186Y-46952808D01*
X96892093Y-46866649D01*
X96892086Y-46866645D01*
X96757379Y-46816403D01*
X96757372Y-46816401D01*
X96697844Y-46810000D01*
X96000000Y-46810000D01*
X96000000Y-47834722D01*
X95923694Y-47790667D01*
X95809244Y-47760000D01*
X95690756Y-47760000D01*
X95576306Y-47790667D01*
X95500000Y-47834722D01*
X95500000Y-46810000D01*
X94802155Y-46810000D01*
X94742627Y-46816401D01*
X94742620Y-46816403D01*
X94607913Y-46866645D01*
X94607906Y-46866649D01*
X94492812Y-46952809D01*
X94492809Y-46952812D01*
X94406649Y-47067906D01*
X94406645Y-47067913D01*
X94356403Y-47202620D01*
X94356401Y-47202627D01*
X94350000Y-47262155D01*
X94350000Y-47960000D01*
X95374722Y-47960000D01*
X95330667Y-48036306D01*
X95300000Y-48150756D01*
X95300000Y-48269244D01*
X95330667Y-48383694D01*
X95374722Y-48460000D01*
X94350000Y-48460000D01*
X94350000Y-49157844D01*
X94356401Y-49217372D01*
X94356403Y-49217379D01*
X94406645Y-49352086D01*
X94406649Y-49352093D01*
X94492809Y-49467187D01*
X94492812Y-49467190D01*
X94607906Y-49553350D01*
X94607913Y-49553354D01*
X94687968Y-49583213D01*
X94743902Y-49625084D01*
X94768319Y-49690549D01*
X94753467Y-49758822D01*
X94732317Y-49787075D01*
X94681756Y-49837636D01*
X94681752Y-49837641D01*
X94552187Y-50015974D01*
X94452104Y-50212393D01*
X94452103Y-50212396D01*
X94383985Y-50422047D01*
X94349500Y-50639778D01*
X94349500Y-50860221D01*
X94383985Y-51077952D01*
X94406811Y-51148203D01*
X94408806Y-51218044D01*
X94376561Y-51274202D01*
X91197584Y-54453181D01*
X91136261Y-54486666D01*
X91109903Y-54489500D01*
X87479602Y-54489500D01*
X87412563Y-54469815D01*
X87369117Y-54421795D01*
X87362287Y-54408390D01*
X87362285Y-54408387D01*
X87362284Y-54408385D01*
X87241971Y-54242786D01*
X87097213Y-54098028D01*
X86931613Y-53977715D01*
X86931612Y-53977714D01*
X86931610Y-53977713D01*
X86834110Y-53928034D01*
X86749223Y-53884781D01*
X86554534Y-53821522D01*
X86379995Y-53793878D01*
X86352352Y-53789500D01*
X86147648Y-53789500D01*
X86080254Y-53800174D01*
X85945464Y-53821523D01*
X85945461Y-53821523D01*
X85817860Y-53862984D01*
X85748019Y-53864979D01*
X85688186Y-53828899D01*
X85657358Y-53766198D01*
X85665323Y-53696783D01*
X85691858Y-53657375D01*
X87225797Y-52123436D01*
X87287118Y-52089953D01*
X87351794Y-52093188D01*
X87422049Y-52116015D01*
X87639778Y-52150500D01*
X87639779Y-52150500D01*
X87860221Y-52150500D01*
X87860222Y-52150500D01*
X88077951Y-52116015D01*
X88287606Y-52047895D01*
X88484022Y-51947815D01*
X88662365Y-51818242D01*
X88818242Y-51662365D01*
X88947815Y-51484022D01*
X89047895Y-51287606D01*
X89116015Y-51077951D01*
X89150500Y-50860222D01*
X89150500Y-50639778D01*
X89116015Y-50422049D01*
X89047895Y-50212394D01*
X89047895Y-50212393D01*
X88990881Y-50100499D01*
X88947815Y-50015978D01*
X88867222Y-49905050D01*
X88818247Y-49837641D01*
X88818243Y-49837636D01*
X88767683Y-49787076D01*
X88734198Y-49725753D01*
X88739182Y-49656061D01*
X88781054Y-49600128D01*
X88812031Y-49583213D01*
X88892086Y-49553354D01*
X88892093Y-49553350D01*
X89007187Y-49467190D01*
X89007190Y-49467187D01*
X89093350Y-49352093D01*
X89093354Y-49352086D01*
X89143596Y-49217379D01*
X89143598Y-49217372D01*
X89149999Y-49157844D01*
X89150000Y-49157827D01*
X89150000Y-48460000D01*
X88125278Y-48460000D01*
X88169333Y-48383694D01*
X88200000Y-48269244D01*
X88200000Y-48150756D01*
X88169333Y-48036306D01*
X88125278Y-47960000D01*
X89150000Y-47960000D01*
X89150000Y-47262172D01*
X89149999Y-47262155D01*
X89143598Y-47202627D01*
X89143596Y-47202620D01*
X89093354Y-47067913D01*
X89093350Y-47067906D01*
X89007190Y-46952812D01*
X89007187Y-46952809D01*
X88892093Y-46866649D01*
X88892086Y-46866645D01*
X88757379Y-46816403D01*
X88757372Y-46816401D01*
X88697844Y-46810000D01*
X88000000Y-46810000D01*
X88000000Y-47834722D01*
X87923694Y-47790667D01*
X87809244Y-47760000D01*
X87690756Y-47760000D01*
X87576306Y-47790667D01*
X87500000Y-47834722D01*
X87500000Y-46810000D01*
X86802155Y-46810000D01*
X86742627Y-46816401D01*
X86742620Y-46816403D01*
X86607913Y-46866645D01*
X86607906Y-46866649D01*
X86492812Y-46952809D01*
X86492809Y-46952812D01*
X86406649Y-47067906D01*
X86406645Y-47067913D01*
X86356403Y-47202620D01*
X86356401Y-47202627D01*
X86350000Y-47262155D01*
X86350000Y-47960000D01*
X87374722Y-47960000D01*
X87330667Y-48036306D01*
X87300000Y-48150756D01*
X87300000Y-48269244D01*
X87330667Y-48383694D01*
X87374722Y-48460000D01*
X86350000Y-48460000D01*
X86350000Y-49157844D01*
X86356401Y-49217372D01*
X86356403Y-49217379D01*
X86406645Y-49352086D01*
X86406649Y-49352093D01*
X86492809Y-49467187D01*
X86492812Y-49467190D01*
X86607906Y-49553350D01*
X86607913Y-49553354D01*
X86687968Y-49583213D01*
X86743902Y-49625084D01*
X86768319Y-49690549D01*
X86753467Y-49758822D01*
X86732317Y-49787075D01*
X86681756Y-49837636D01*
X86681752Y-49837641D01*
X86552187Y-50015974D01*
X86452104Y-50212393D01*
X86452103Y-50212396D01*
X86383985Y-50422047D01*
X86349500Y-50639778D01*
X86349500Y-50860221D01*
X86383985Y-51077952D01*
X86406811Y-51148203D01*
X86408806Y-51218044D01*
X86376561Y-51274202D01*
X83367584Y-54283181D01*
X83306261Y-54316666D01*
X83279903Y-54319500D01*
X82729602Y-54319500D01*
X82662563Y-54299815D01*
X82619117Y-54251795D01*
X82612287Y-54238390D01*
X82612285Y-54238387D01*
X82612284Y-54238385D01*
X82491971Y-54072786D01*
X82347213Y-53928028D01*
X82181613Y-53807715D01*
X82181612Y-53807714D01*
X82181610Y-53807713D01*
X82124653Y-53778691D01*
X81999223Y-53714781D01*
X81804534Y-53651522D01*
X81629995Y-53623878D01*
X81602352Y-53619500D01*
X81397648Y-53619500D01*
X81373329Y-53623351D01*
X81195465Y-53651522D01*
X81000776Y-53714781D01*
X80818386Y-53807715D01*
X80652786Y-53928028D01*
X80508028Y-54072786D01*
X80387715Y-54238386D01*
X80294781Y-54420776D01*
X80231522Y-54615465D01*
X80199500Y-54817648D01*
X78050500Y-54817648D01*
X78050500Y-54737648D01*
X78019291Y-54540606D01*
X78018478Y-54535472D01*
X78018477Y-54535471D01*
X78018477Y-54535466D01*
X78013825Y-54521151D01*
X78011832Y-54451312D01*
X78044075Y-54395158D01*
X80230520Y-52208716D01*
X80279755Y-52123438D01*
X80309576Y-52071786D01*
X80310491Y-52069578D01*
X80311761Y-52068001D01*
X80313641Y-52064746D01*
X80314148Y-52065039D01*
X80354331Y-52015174D01*
X80368751Y-52006548D01*
X80484022Y-51947815D01*
X80662365Y-51818242D01*
X80818242Y-51662365D01*
X80947815Y-51484022D01*
X81047895Y-51287606D01*
X81116015Y-51077951D01*
X81150500Y-50860222D01*
X81150500Y-50639778D01*
X81116015Y-50422049D01*
X81047895Y-50212394D01*
X81047895Y-50212393D01*
X80990881Y-50100499D01*
X80947815Y-50015978D01*
X80867222Y-49905050D01*
X80818247Y-49837641D01*
X80818243Y-49837636D01*
X80767683Y-49787076D01*
X80734198Y-49725753D01*
X80739182Y-49656061D01*
X80781054Y-49600128D01*
X80812031Y-49583213D01*
X80892086Y-49553354D01*
X80892093Y-49553350D01*
X81007187Y-49467190D01*
X81007190Y-49467187D01*
X81093350Y-49352093D01*
X81093354Y-49352086D01*
X81143596Y-49217379D01*
X81143598Y-49217372D01*
X81149999Y-49157844D01*
X81150000Y-49157827D01*
X81150000Y-48460000D01*
X80125278Y-48460000D01*
X80169333Y-48383694D01*
X80200000Y-48269244D01*
X80200000Y-48150756D01*
X80169333Y-48036306D01*
X80125278Y-47960000D01*
X81150000Y-47960000D01*
X81150000Y-47262172D01*
X81149999Y-47262155D01*
X81143598Y-47202627D01*
X81143596Y-47202620D01*
X81093354Y-47067913D01*
X81093350Y-47067906D01*
X81007190Y-46952812D01*
X81007187Y-46952809D01*
X80892093Y-46866649D01*
X80892086Y-46866645D01*
X80757379Y-46816403D01*
X80757372Y-46816401D01*
X80697844Y-46810000D01*
X80000000Y-46810000D01*
X80000000Y-47834722D01*
X79923694Y-47790667D01*
X79809244Y-47760000D01*
X79690756Y-47760000D01*
X79576306Y-47790667D01*
X79500000Y-47834722D01*
X79500000Y-46810000D01*
X78802155Y-46810000D01*
X78742627Y-46816401D01*
X78742620Y-46816403D01*
X78607913Y-46866645D01*
X78607906Y-46866649D01*
X78492812Y-46952809D01*
X78492809Y-46952812D01*
X78406649Y-47067906D01*
X78406645Y-47067913D01*
X78356403Y-47202620D01*
X78356401Y-47202627D01*
X78350000Y-47262155D01*
X78350000Y-47960000D01*
X79374722Y-47960000D01*
X79330667Y-48036306D01*
X79300000Y-48150756D01*
X79300000Y-48269244D01*
X79330667Y-48383694D01*
X79374722Y-48460000D01*
X78350000Y-48460000D01*
X78350000Y-49157844D01*
X78356401Y-49217372D01*
X78356403Y-49217379D01*
X78406645Y-49352086D01*
X78406649Y-49352093D01*
X78492809Y-49467187D01*
X78492812Y-49467190D01*
X78607906Y-49553350D01*
X78607913Y-49553354D01*
X78687968Y-49583213D01*
X78743902Y-49625084D01*
X78768319Y-49690549D01*
X78753467Y-49758822D01*
X78732317Y-49787075D01*
X78681756Y-49837636D01*
X78681752Y-49837641D01*
X78552187Y-50015974D01*
X78452104Y-50212393D01*
X78452103Y-50212396D01*
X78383985Y-50422047D01*
X78349500Y-50639778D01*
X78349500Y-50860221D01*
X78383985Y-51077952D01*
X78452103Y-51287603D01*
X78452104Y-51287606D01*
X78499088Y-51379815D01*
X78546961Y-51473770D01*
X78552187Y-51484025D01*
X78681752Y-51662358D01*
X78681756Y-51662363D01*
X78792397Y-51773004D01*
X78825882Y-51834327D01*
X78820898Y-51904019D01*
X78792397Y-51948366D01*
X77194842Y-53545921D01*
X77133519Y-53579406D01*
X77068848Y-53576173D01*
X77054534Y-53571522D01*
X76879995Y-53543878D01*
X76852352Y-53539500D01*
X76647648Y-53539500D01*
X76623329Y-53543351D01*
X76445465Y-53571522D01*
X76250776Y-53634781D01*
X76068386Y-53727715D01*
X75902786Y-53848028D01*
X75758028Y-53992786D01*
X75637715Y-54158386D01*
X75544781Y-54340776D01*
X75481522Y-54535465D01*
X75449500Y-54737648D01*
X74009021Y-54737648D01*
X74021843Y-45315689D01*
X74041619Y-45248680D01*
X74094485Y-45202997D01*
X74124290Y-45193749D01*
X104089230Y-39905813D01*
X104132320Y-39905813D01*
X134147050Y-45202535D01*
G37*
%TD.AperFunction*%
%TD*%
M02*
